STARTFONT 2.1
COMMENT
COMMENT Converted from OpenType font "OldStandard-Regular.ttf" by "otf2bdf 3.0".
COMMENT
FONT -FreeType-Old Standard TT-Medium-R-Normal--49-490-72-72-P-256-ISO10646-1
SIZE 49 72 72
FONTBOUNDINGBOX 128 62 -40 -15
STARTPROPERTIES 19
FOUNDRY "FreeType"
FAMILY_NAME "Old Standard TT"
WEIGHT_NAME "Medium"
SLANT "R"
SETWIDTH_NAME "Normal"
ADD_STYLE_NAME ""
PIXEL_SIZE 49
POINT_SIZE 490
RESOLUTION_X 72
RESOLUTION_Y 72
SPACING "P"
AVERAGE_WIDTH 256
CHARSET_REGISTRY "ISO10646"
CHARSET_ENCODING "1"
FONT_ASCENT 46
FONT_DESCENT 14
COPYRIGHT "Copyright (C) 2006-2008 Alexey Kryukov <alexios@thessalonica.org.ru>"
_OTF_FONTFILE "OldStandard-Regular.ttf"
_OTF_PSNAME "OldStandardTT-Regular"
ENDPROPERTIES
CHARS 1456
STARTCHAR 0020
ENCODING 32
SWIDTH 285 0
DWIDTH 14 0
BBX 0 0 0 0
BITMAP
ENDCHAR
STARTCHAR 0021
ENCODING 33
SWIDTH 285 0
DWIDTH 14 0
BBX 6 34 4 0
BITMAP
78
FC
FC
FC
FC
FC
FC
FC
FC
78
78
78
78
78
78
30
30
30
30
30
30
30
30
30
30
30
00
00
00
78
FC
FC
FC
78
ENDCHAR
STARTCHAR 0022
ENCODING 34
SWIDTH 387 0
DWIDTH 19 0
BBX 11 10 4 26
BITMAP
E0E0
E0E0
E0E0
E0E0
E0E0
E0E0
4040
4040
4040
4040
ENDCHAR
STARTCHAR 0023
ENCODING 35
SWIDTH 693 0
DWIDTH 34 0
BBX 26 34 4 0
BITMAP
00301800
00301800
00701800
00601800
00603800
00603800
00603000
00603000
00603000
00E03000
FFFFFFC0
FFFFFFC0
00C06000
00C06000
00C06000
01C06000
01806000
0180E000
0180C000
0180C000
0180C000
0380C000
FFFFFFC0
FFFFFFC0
03018000
03018000
03018000
07018000
07018000
06018000
06038000
06030000
06030000
06030000
ENDCHAR
STARTCHAR 0024
ENCODING 36
SWIDTH 591 0
DWIDTH 29 0
BBX 22 41 3 -4
BITMAP
00CC00
00CC00
00CC00
01FE00
07CFC0
0CCC60
18CC30
30CC18
20CC18
60CC1C
60CC3C
60CC7C
60CC7C
70CC78
78CC78
3ECC00
3FCC00
1FFC00
0FFC00
07FF80
01FFC0
00FFE0
00CFF0
00CDF8
00CC78
30CC3C
78CC1C
F8CC1C
F8CC0C
F0CC0C
F0CC08
E0CC18
60CC18
60CC30
30CC60
1CCDC0
07FF80
00CC00
00CC00
00CC00
00CC00
ENDCHAR
STARTCHAR 0025
ENCODING 37
SWIDTH 877 0
DWIDTH 43 0
BBX 33 34 5 0
BITMAP
0F80003000
18C0006000
3060004000
707000C000
6030018000
E038018000
E038030000
E038020000
E038060000
E0380C0000
E0380C0000
E038180000
6030300000
6070300000
3060600000
18C0400000
0F80C00000
000180F800
0001818C00
0003030600
0002060700
0006060300
000C0E0380
00080E0380
00180E0380
00300E0380
00300E0380
00600E0380
00400E0380
00C0060300
0180060300
0180070700
0300030E00
060001FC00
ENDCHAR
STARTCHAR 0026
ENCODING 38
SWIDTH 795 0
DWIDTH 39 0
BBX 33 34 3 0
BITMAP
003F000000
00E3800000
0180C00000
0380400000
0300600000
0700600000
0700600000
0700E00000
0700C00000
0781C00000
0783800000
03C7000000
03EE000000
01F8000000
00F807FF80
01F800FC00
03FC007000
073E007000
0E3F006000
1C1F006000
3C0F80C000
3807C0C000
7807C18000
7803E18000
F001F30000
F001FE0000
F000FE0000
F0007C0000
F8003E0000
F8003E0100
78007F0100
3C00CF8200
1E0387FC00
0FFE01F800
ENDCHAR
STARTCHAR 0027
ENCODING 39
SWIDTH 224 0
DWIDTH 11 0
BBX 3 10 4 26
BITMAP
E0
E0
E0
E0
E0
E0
40
40
40
40
ENDCHAR
STARTCHAR 0028
ENCODING 40
SWIDTH 367 0
DWIDTH 18 0
BBX 11 46 5 -10
BITMAP
0040
00E0
01C0
0380
0300
0600
0E00
0C00
1C00
1800
3800
3000
3000
7000
6000
6000
6000
E000
C000
C000
C000
C000
C000
C000
C000
C000
C000
C000
E000
6000
6000
6000
7000
3000
3000
3800
1800
1C00
0C00
0E00
0600
0300
0380
01C0
00E0
0040
ENDCHAR
STARTCHAR 0029
ENCODING 41
SWIDTH 367 0
DWIDTH 18 0
BBX 11 45 2 -10
BITMAP
4000
6000
7000
3800
1C00
0C00
0E00
0600
0300
0300
0380
0180
01C0
00C0
00C0
00C0
00E0
0060
0060
0060
0060
0060
0060
0060
0060
0060
0060
0060
0060
00E0
00C0
00C0
00C0
0180
0180
0380
0300
0700
0600
0E00
0C00
1800
3800
7000
E000
ENDCHAR
STARTCHAR 002A
ENCODING 42
SWIDTH 510 0
DWIDTH 25 0
BBX 18 20 4 14
BITMAP
00E000
01E000
01E000
01E000
E0C380
F087C0
F88FC0
3C9F80
03F800
01E000
03F000
1EBE00
7C8F80
F887C0
F0C3C0
61C180
01E000
01E000
01E000
00E000
ENDCHAR
STARTCHAR 002B
ENCODING 43
SWIDTH 918 0
DWIDTH 45 0
BBX 41 41 2 -8
BITMAP
00000C000000
00000C000000
00000C000000
00000C000000
00000C000000
00000C000000
00000C000000
00000C000000
00000C000000
00000C000000
00000C000000
00000C000000
00000C000000
00000C000000
00000C000000
00000C000000
00000C000000
00000C000000
00000C000000
FFFFFFFFFF80
FFFFFFFFFF80
00000C000000
00000C000000
00000C000000
00000C000000
00000C000000
00000C000000
00000C000000
00000C000000
00000C000000
00000C000000
00000C000000
00000C000000
00000C000000
00000C000000
00000C000000
00000C000000
00000C000000
00000C000000
00000C000000
00000C000000
ENDCHAR
STARTCHAR 002C
ENCODING 44
SWIDTH 285 0
DWIDTH 14 0
BBX 7 15 4 -9
BITMAP
78
FC
FC
FE
7E
06
06
06
04
0C
08
18
30
60
40
ENDCHAR
STARTCHAR 002D
ENCODING 45
SWIDTH 367 0
DWIDTH 18 0
BBX 12 3 3 11
BITMAP
FFF0
FFF0
FFF0
ENDCHAR
STARTCHAR 002E
ENCODING 46
SWIDTH 285 0
DWIDTH 14 0
BBX 6 5 4 1
BITMAP
78
FC
FC
FC
78
ENDCHAR
STARTCHAR 002F
ENCODING 47
SWIDTH 448 0
DWIDTH 22 0
BBX 16 46 3 -10
BITMAP
0003
0003
0003
0006
0006
0006
000C
000C
000C
0018
0018
0018
0030
0030
0030
0030
0060
0060
0060
00C0
00C0
00C0
0180
0180
0180
0300
0300
0300
0600
0600
0600
0C00
0C00
0C00
1800
1800
1800
3000
3000
3000
6000
6000
6000
6000
C000
C000
ENDCHAR
STARTCHAR 0030
ENCODING 48
SWIDTH 571 0
DWIDTH 28 0
BBX 23 34 2 0
BITMAP
007C00
01C700
070180
0600C0
0E00E0
1C0070
3C0078
3C0078
380038
78003C
78003C
78003C
F8003E
F8003E
F8003E
F8003E
F8003E
F8003E
F8003E
F8003E
F8003E
F8003E
78003C
78003C
78003C
78003C
3C0078
3C0078
1C0070
1C0070
0E00E0
0701C0
038380
00FE00
ENDCHAR
STARTCHAR 0031
ENCODING 49
SWIDTH 571 0
DWIDTH 28 0
BBX 17 34 6 0
BITMAP
004000
004000
00C000
00C000
01C000
07C000
FFC000
03C000
03C000
03C000
03C000
03C000
03C000
03C000
03C000
03C000
03C000
03C000
03C000
03C000
03C000
03C000
03C000
03C000
03C000
03C000
03C000
03C000
03C000
03C000
03C000
03C000
FFFF80
FFFF80
ENDCHAR
STARTCHAR 0032
ENCODING 50
SWIDTH 571 0
DWIDTH 28 0
BBX 21 34 4 0
BITMAP
03FC00
0E1F00
1007C0
2003E0
6001F0
4001F0
C000F0
C000F8
E000F8
FC00F8
FE00F8
7E00F8
7E00F0
3E01F0
0001E0
0003C0
000380
000700
000E00
001C00
007000
00E000
01C000
030000
060010
0C0010
180010
100010
300030
300070
7FFFF0
7FFFF0
7FFFF0
7FFFF0
ENDCHAR
STARTCHAR 0033
ENCODING 51
SWIDTH 571 0
DWIDTH 28 0
BBX 21 34 4 0
BITMAP
03F800
0E1F00
180780
3003C0
7003C0
7801E0
7C01E0
7E01E0
7E01E0
3C01E0
0001E0
0003C0
0003C0
000780
000E00
0FF800
1F8F00
0E0380
0003E0
0001E0
0001F0
0000F8
0000F8
0000F8
3C00F8
7E00F8
FE00F8
FE00F8
FC01F0
E001F0
E003E0
6003C0
300F00
0FFE00
ENDCHAR
STARTCHAR 0034
ENCODING 52
SWIDTH 571 0
DWIDTH 28 0
BBX 23 34 3 0
BITMAP
000180
000180
000380
000780
000780
000F80
001F80
001F80
003780
007780
00E780
00C780
01C780
038780
030780
060780
0E0780
0C0780
180780
380780
300780
600780
E00780
FFFFFE
000780
000780
000780
000780
000780
000780
000780
000780
03FFFE
03FFFE
ENDCHAR
STARTCHAR 0035
ENCODING 53
SWIDTH 571 0
DWIDTH 28 0
BBX 21 35 4 0
BITMAP
300040
3C03C0
3FFF80
3FFF00
3FFC00
37F000
300000
300000
300000
300000
300000
300000
300000
33FE00
3C0780
3803C0
3001E0
3001F0
3001F0
0000F0
0000F8
0000F8
0000F8
0000F8
3C00F8
7E00F8
FE00F8
FE00F0
FC01F0
F801E0
F001E0
7003C0
700780
3C1F00
0FFC00
ENDCHAR
STARTCHAR 0036
ENCODING 54
SWIDTH 571 0
DWIDTH 28 0
BBX 21 34 4 0
BITMAP
007E00
01C180
0380C0
070040
0E00E0
1C01E0
1C03E0
3803E0
3803C0
780000
780000
780000
780000
F07E00
F1FF80
F383C0
F701E0
FE01F0
FC00F0
FC00F0
F800F8
F80078
F80078
F80078
780078
780078
7800F8
7800F0
3800F0
3C00E0
1C01E0
0E03C0
070780
01FE00
ENDCHAR
STARTCHAR 0037
ENCODING 55
SWIDTH 571 0
DWIDTH 28 0
BBX 19 34 5 0
BITMAP
FFFFE0
FFFFE0
FFFFE0
FFFFE0
E000E0
C00040
800040
8000C0
800080
800180
000180
000300
000200
000600
000C00
001800
001800
003000
007000
007000
00E000
00E000
01E000
01E000
03E000
03E000
03E000
07F000
07F000
07F000
07F000
07F000
03F000
03E000
ENDCHAR
STARTCHAR 0038
ENCODING 56
SWIDTH 571 0
DWIDTH 28 0
BBX 23 34 3 0
BITMAP
01FE00
078780
1E01C0
3800E0
780070
700070
F00038
F00038
F00038
F00038
F80038
FC0070
7E0070
7FC0E0
3FF1C0
1FFF00
07FF80
07FFE0
0C3FF8
3807FC
7001FC
70007E
E0003E
E0003E
E0003E
E0001E
E0001E
E0001C
60003C
700038
300078
1800F0
0E01C0
03FF00
ENDCHAR
STARTCHAR 0039
ENCODING 57
SWIDTH 571 0
DWIDTH 28 0
BBX 21 34 4 0
BITMAP
01F800
078E00
0E0300
1C0180
3801C0
7801E0
7800E0
7800F0
F000F0
F000F0
F000F0
F000F8
F000F8
F800F8
7801F8
7801F8
7803F8
3C0778
1E0E78
0FFC78
03F078
0000F0
0000F0
0000F0
0000F0
3C00E0
7C00E0
7C01C0
7C01C0
780380
700300
380600
1C1C00
0FF800
ENDCHAR
STARTCHAR 003A
ENCODING 58
SWIDTH 285 0
DWIDTH 14 0
BBX 6 22 4 1
BITMAP
78
FC
FC
FC
78
00
00
00
00
00
00
00
00
00
00
00
00
78
FC
FC
FC
78
ENDCHAR
STARTCHAR 003B
ENCODING 59
SWIDTH 285 0
DWIDTH 14 0
BBX 7 31 4 -8
BITMAP
78
FC
FC
FC
78
00
00
00
00
00
00
00
00
00
00
00
78
FC
FC
FE
7E
0E
06
06
04
0C
08
18
30
60
40
ENDCHAR
STARTCHAR 003C
ENCODING 60
SWIDTH 938 0
DWIDTH 46 0
BBX 38 40 4 -7
BITMAP
000000001C
0000000078
00000001F0
00000007C0
0000000F00
0000003C00
000000F000
000003C000
00000F0000
00003E0000
0000F80000
0001E00000
0007800000
001E000000
0078000000
01E0000000
07C0000000
1F00000000
3C00000000
F000000000
F000000000
7C00000000
1F00000000
0780000000
01E0000000
0078000000
001E000000
0007800000
0003E00000
0000F80000
00003C0000
00000F0000
000003C000
000000F000
0000003C00
0000001F00
00000007C0
00000001E0
0000000078
000000001C
ENDCHAR
STARTCHAR 003D
ENCODING 61
SWIDTH 918 0
DWIDTH 45 0
BBX 41 11 2 7
BITMAP
FFFFFFFFFF80
FFFFFFFFFF80
000000000000
000000000000
000000000000
000000000000
000000000000
000000000000
000000000000
FFFFFFFFFF80
FFFFFFFFFF80
ENDCHAR
STARTCHAR 003E
ENCODING 62
SWIDTH 938 0
DWIDTH 46 0
BBX 38 40 4 -7
BITMAP
E000000000
7800000000
3E00000000
0F80000000
03C0000000
00F0000000
003C000000
000F000000
0003C00000
0001F00000
00007C0000
00001E0000
0000078000
000001E000
0000007800
0000001E00
0000000F80
00000003E0
00000000F0
000000003C
000000003C
00000000F8
00000003E0
0000000780
0000001E00
0000007800
000001E000
0000078000
00001F0000
00007C0000
0000F00000
0003C00000
000F000000
003C000000
00F0000000
03E0000000
0F80000000
1E00000000
7800000000
E000000000
ENDCHAR
STARTCHAR 003F
ENCODING 63
SWIDTH 469 0
DWIDTH 23 0
BBX 18 34 3 0
BITMAP
07F000
1C3C00
300F00
600780
C00780
C003C0
C003C0
F803C0
FC03C0
7C07C0
380780
000F80
001F00
003E00
007C00
00F000
00E000
01C000
030000
060000
0E0800
0C0800
0C0800
0C0800
061000
03E000
000000
000000
000000
01E000
03F000
03F000
03F000
01E000
ENDCHAR
STARTCHAR 0040
ENCODING 64
SWIDTH 816 0
DWIDTH 40 0
BBX 35 36 2 0
BITMAP
0003FE0000
001E07C000
0070007000
01C0001800
0380000C00
0700000600
0E00000300
1C00780100
1801C4E180
380707E080
300E03E0C0
700C03C0C0
601C03C040
603803C060
E03803C060
C078038060
C070078060
C070078060
C0F0078060
C0E0070060
C0E00F00E0
C0E00F00C0
C0E00E00C0
60E01E0180
60E03E0180
60E03E0300
60604E0600
30318F0C00
301F07F000
1800000000
0C00000000
0600000000
0300000000
01C0007000
007001C000
001FFF0000
ENDCHAR
STARTCHAR 0041
ENCODING 65
SWIDTH 755 0
DWIDTH 37 0
BBX 34 35 2 0
BITMAP
0000C00000
0000C00000
0000E00000
0001E00000
0001E00000
0003F00000
0003F00000
0003F00000
0006F80000
0006F80000
0006F80000
000C7C0000
000C7C0000
000C7C0000
00183E0000
00183E0000
00181E0000
00301F0000
00301F0000
00300F0000
00600F8000
00600F8000
0060078000
00FFFFC000
00FFFFC000
00C003C000
018003E000
018003E000
038001E000
030001F000
030001F000
070000F000
070000F800
1F8001FC00
FFF81FFFC0
ENDCHAR
STARTCHAR 0042
ENCODING 66
SWIDTH 693 0
DWIDTH 34 0
BBX 28 35 3 0
BITMAP
FFFFF000
07C03E00
07800F00
07800780
078003C0
078001E0
078001E0
078001E0
078001E0
078001E0
078001E0
078001E0
078003C0
07800380
07800700
07801E00
07FFF000
07803E00
07800F00
07800780
078003C0
078003E0
078001E0
078001F0
078001F0
078001F0
078001F0
078001F0
078001F0
078003E0
078003E0
078007C0
07800F80
07C03E00
FFFFF000
ENDCHAR
STARTCHAR 0043
ENCODING 67
SWIDTH 653 0
DWIDTH 32 0
BBX 26 36 3 0
BITMAP
003F0080
00E1E080
03807180
07003F80
0E001F80
1E000F80
1C000780
3C000380
3C000380
7C000380
78000180
78000180
78000080
F8000080
F8000000
F8000000
F8000000
F8000000
F8000000
F8000000
F8000000
F8000000
F8000000
780000C0
780000C0
780000C0
3C0000C0
3C000080
3C000180
1C000180
0E000300
0E000300
07000600
03800C00
00E03800
007FE000
ENDCHAR
STARTCHAR 0044
ENCODING 68
SWIDTH 775 0
DWIDTH 38 0
BBX 33 35 3 0
BITMAP
FFFFFC0000
07C00F0000
078003C000
078000E000
0780007000
0780007800
0780003C00
0780003E00
0780001E00
0780001F00
0780001F00
0780000F00
0780000F00
0780000F80
0780000F80
0780000F80
0780000F80
0780000F80
0780000F80
0780000F80
0780000F80
0780000F80
0780000F00
0780001F00
0780001F00
0780001E00
0780001E00
0780003C00
0780003C00
0780007800
0780007000
078000E000
078003C000
07C00F0000
FFFFFC0000
ENDCHAR
STARTCHAR 0045
ENCODING 69
SWIDTH 693 0
DWIDTH 34 0
BBX 28 35 3 0
BITMAP
FFFFFFF0
07C007F0
078001F0
078000F0
07800070
07800070
07800030
07800030
07800030
07800010
07802010
07802010
07802000
07806000
07806000
07806000
0780E000
07FFE000
0781E000
07806000
07806000
07806000
07802010
07802010
07802010
07800010
07800030
07800030
07800030
07800070
07800070
078000F0
078001F0
FFFFFFF0
FFFFFFF0
ENDCHAR
STARTCHAR 0046
ENCODING 70
SWIDTH 693 0
DWIDTH 34 0
BBX 27 35 4 0
BITMAP
FFFFFFE0
0F800FE0
078003E0
078001E0
078000E0
078000E0
07800060
07800060
07800060
07800020
07802020
07802020
07802000
07806000
07806000
07806000
0780E000
07FFE000
0781E000
07806000
07806000
07806000
07802000
07802000
07802000
07800000
07800000
07800000
07800000
07800000
07800000
07800000
07800000
0F800000
FFFE0000
ENDCHAR
STARTCHAR 0047
ENCODING 71
SWIDTH 693 0
DWIDTH 34 0
BBX 30 36 3 0
BITMAP
003F80C0
00E0E0C0
038038C0
07001DC0
0E000FC0
0E0007C0
1C0007C0
3C0003C0
3C0003C0
7C0001C0
780001C0
780000C0
780000C0
F80000C0
F8000000
F8000000
F8000000
F8000000
F800FFFC
F800FFFC
F80007C0
F80007C0
F80007C0
F80007C0
780007C0
780007C0
7C0007C0
3C0007C0
3C0007C0
1C000FC0
1E000FC0
0E001CC0
070018C0
030030C0
01C0E0C0
007F80C0
ENDCHAR
STARTCHAR 0048
ENCODING 72
SWIDTH 775 0
DWIDTH 38 0
BBX 33 35 3 0
BITMAP
FFFC1FFF80
07C000F800
078000F000
078000F000
078000F000
078000F000
078000F000
078000F000
078000F000
078000F000
078000F000
078000F000
078000F000
078000F000
078000F000
078000F000
07FFFFF000
078000F000
078000F000
078000F000
078000F000
078000F000
078000F000
078000F000
078000F000
078000F000
078000F000
078000F000
078000F000
078000F000
078000F000
078000F000
078000F000
07C000F800
FFFC1FFF80
ENDCHAR
STARTCHAR 0049
ENCODING 73
SWIDTH 387 0
DWIDTH 19 0
BBX 14 35 3 0
BITMAP
FFFC
07C0
0780
0780
0780
0780
0780
0780
0780
0780
0780
0780
0780
0780
0780
0780
0780
0780
0780
0780
0780
0780
0780
0780
0780
0780
0780
0780
0780
0780
0780
0780
0780
07C0
FFFC
ENDCHAR
STARTCHAR 004A
ENCODING 74
SWIDTH 551 0
DWIDTH 27 0
BBX 23 35 2 0
BITMAP
007FFE
0007C0
0003C0
0003C0
0003C0
0003C0
0003C0
0003C0
0003C0
0003C0
0003C0
0003C0
0003C0
0003C0
0003C0
0003C0
0003C0
0003C0
0003C0
0003C0
0003C0
0003C0
0003C0
0003C0
3C03C0
7E03C0
FE03C0
FE03C0
FC03C0
E00380
E00780
600700
700E00
381C00
0FF800
ENDCHAR
STARTCHAR 004B
ENCODING 75
SWIDTH 755 0
DWIDTH 37 0
BBX 32 35 3 0
BITMAP
FFFC3FFE
07C00FF0
078007C0
07800380
07800700
07800600
07800C00
07801C00
07803800
07807000
0780E000
0781C000
07818000
07838000
07878000
078FC000
079BE000
07B3E000
07E1F000
07C1F000
0780F800
0780F800
07807C00
07807C00
07803E00
07803E00
07801F00
07801F00
07800F80
07800FC0
078007C0
078007E0
078003E0
07C007F8
FFFC7FFF
ENDCHAR
STARTCHAR 004C
ENCODING 76
SWIDTH 673 0
DWIDTH 33 0
BBX 27 35 3 0
BITMAP
FFFE0000
07C00000
07800000
07800000
07800000
07800000
07800000
07800000
07800000
07800000
07800000
07800000
07800000
07800000
07800000
07800000
07800000
07800000
07800000
07800000
07800000
07800000
07800020
07800060
07800060
07800060
07800060
078000E0
078000E0
078000E0
078001E0
078003E0
078007E0
FFFFFFE0
FFFFFFE0
ENDCHAR
STARTCHAR 004D
ENCODING 77
SWIDTH 836 0
DWIDTH 41 0
BBX 36 35 3 0
BITMAP
FFE0003FF0
07E0003E00
07E0007E00
07F0005E00
07F0005E00
06F000DE00
06F800DE00
06F8009E00
0678009E00
0678019E00
067C019E00
063C011E00
063C011E00
063E031E00
063E031E00
061E021E00
061E021E00
061F061E00
060F041E00
060F041E00
060F8C1E00
06078C1E00
0607881E00
0607C81E00
0607D81E00
0603D81E00
0603D01E00
0603F01E00
0601F01E00
0601F01E00
0601E01E00
0600E01E00
0F00E01E00
1F80C03E00
FFF0C3FFF0
ENDCHAR
STARTCHAR 004E
ENCODING 78
SWIDTH 775 0
DWIDTH 38 0
BBX 33 36 3 -1
BITMAP
FFC007FF80
07C000FC00
07E0007800
07F0003000
07F0003000
07F8003000
06F8003000
067C003000
067E003000
063E003000
061F003000
061F003000
060F803000
060FC03000
0607C03000
0603E03000
0603E03000
0601F03000
0601F83000
0600F83000
06007C3000
06007C3000
06003E3000
06003F3000
06001F3000
06000FB000
06000FB000
060007F000
060007F000
060003F000
060001F000
060001F000
0F0000F000
1F80007000
FFF0007000
0000003000
ENDCHAR
STARTCHAR 004F
ENCODING 79
SWIDTH 673 0
DWIDTH 33 0
BBX 28 36 3 0
BITMAP
001F8000
00F0F000
01C03800
03801C00
07000E00
0E000700
1E000780
1C000380
3C0003C0
3C0003C0
7C0003E0
780001E0
780001E0
F80001E0
F80001F0
F80001F0
F80001F0
F80001F0
F80001F0
F80001F0
F80001F0
F80001F0
F80001F0
780001E0
780001E0
7C0003E0
7C0003E0
3C0003C0
3C0003C0
1E000780
0E000700
0E000F00
07000E00
03801C00
00E07000
007FE000
ENDCHAR
STARTCHAR 0050
ENCODING 80
SWIDTH 673 0
DWIDTH 33 0
BBX 28 35 3 0
BITMAP
FFFFF000
07C01E00
07800780
078007C0
078003E0
078003E0
078001F0
078001F0
078001F0
078001F0
078001F0
078001F0
078003E0
078003E0
078007C0
07800780
07801E00
07FFF800
07800000
07800000
07800000
07800000
07800000
07800000
07800000
07800000
07800000
07800000
07800000
07800000
07800000
07800000
07800000
07C00000
FFFE0000
ENDCHAR
STARTCHAR 0051
ENCODING 81
SWIDTH 673 0
DWIDTH 33 0
BBX 28 44 3 -8
BITMAP
001F8000
00F0F000
01C03800
03801C00
07000E00
0E000700
1E000780
1C000380
3C0003C0
3C0003C0
7C0003E0
780001E0
780001E0
F80001E0
F80001F0
F80001F0
F80001F0
F80001F0
F80001F0
F80001F0
F80001F0
F80001F0
F80001F0
780001E0
780001E0
7C0003E0
7C0003E0
3C0F03C0
3C19C3C0
1E30C780
0E60E780
0F606F00
07607E00
03E07C10
00F07810
007FF010
00007010
00007010
00007830
00007820
00007C60
00003FC0
00003FC0
00000F00
ENDCHAR
STARTCHAR 0052
ENCODING 82
SWIDTH 714 0
DWIDTH 35 0
BBX 30 35 3 0
BITMAP
FFFFF800
07C03E00
07800F80
078007C0
078007C0
078003E0
078003E0
078003E0
078003E0
078003E0
078003C0
078007C0
07800780
07800F00
07803C00
07FFE000
0780F000
07803800
07801C00
07801E00
07801E00
07801F00
07800F00
07800F00
07800F00
07800F00
07800F80
07800F84
07800F84
07800F84
07800F84
07800F8C
078007F8
07C007F8
FFFE03F0
ENDCHAR
STARTCHAR 0053
ENCODING 83
SWIDTH 612 0
DWIDTH 30 0
BBX 23 36 4 0
BITMAP
03F000
0E1C18
380718
3003F8
7001F8
6000F8
E00078
E00038
E00038
E00038
E00018
F00018
F80008
7E0008
7FC000
3FF000
1FFC00
0FFF80
03FFE0
00FFF0
803FF8
8007FC
8001FC
C0007E
C0003E
C0001E
E0000E
E0000E
F0000E
F0000E
F8000C
FC001C
DE0018
C70030
C38060
80FFC0
ENDCHAR
STARTCHAR 0054
ENCODING 84
SWIDTH 714 0
DWIDTH 35 0
BBX 28 35 4 0
BITMAP
FFFFFFF0
FE0F83F0
F80F01F0
F00F00F0
E00F0070
C00F0070
C00F0030
C00F0030
C00F0030
800F0010
800F0010
800F0010
800F0010
000F0000
000F0000
000F0000
000F0000
000F0000
000F0000
000F0000
000F0000
000F0000
000F0000
000F0000
000F0000
000F0000
000F0000
000F0000
000F0000
000F0000
000F0000
000F0000
000F0000
000F8000
03FFFE00
ENDCHAR
STARTCHAR 0055
ENCODING 85
SWIDTH 795 0
DWIDTH 39 0
BBX 34 35 3 0
BITMAP
FFFC03FFC0
07C0007E00
0780003C00
0780001800
0780001800
0780001800
0780001800
0780001800
0780001800
0780001800
0780001800
0780001800
0780001800
0780001800
0780001800
0780001800
0780001800
0780001800
0780001800
0780001800
0780001800
0780001800
0780001800
0780001800
0780001800
0780001800
0780001800
03C0001800
03C0003000
03C0003000
01E0006000
00E0006000
007000C000
003C038000
000FFE0000
ENDCHAR
STARTCHAR 0056
ENCODING 86
SWIDTH 755 0
DWIDTH 37 0
BBX 34 36 2 -1
BITMAP
FFFF07FFC0
0FF0007E00
03E0003800
03E0003800
03F0003000
01F0003000
01F0003000
00F8006000
00F8006000
00F8006000
007C00C000
007C00C000
007C00C000
003E00C000
003E018000
003E018000
001F018000
001F030000
001F030000
000F830000
000F860000
000F860000
0007C60000
0007CC0000
0003CC0000
0003EC0000
0003E80000
0001F80000
0001F80000
0001F80000
0000F00000
0000F00000
0000F00000
0000600000
0000600000
0000600000
ENDCHAR
STARTCHAR 0057
ENCODING 87
SWIDTH 1061 0
DWIDTH 52 0
BBX 49 36 2 -1
BITMAP
FFFE7FFF0FFF80
0FF00FF801F800
03E003F000F000
03E003E0006000
03E003F0006000
01F003F0006000
01F003F000C000
01F003F000C000
00F007F800C000
00F806F8008000
00F806F8018000
00F8067C018000
00780E7C018000
007C0C7C030000
007C0C3E030000
003C1C3E030000
003C183E060000
003C181E060000
003E181F060000
001E381F0C0000
001E301F0C0000
001E300F8C0000
000F300F980000
000F700F980000
000F6007D80000
000F6007D00000
0007E007F00000
0007C003F00000
0007C003F00000
0003C003E00000
0003C003E00000
00038001E00000
00018001C00000
00018001C00000
00018000C00000
00010000800000
ENDCHAR
STARTCHAR 0058
ENCODING 88
SWIDTH 734 0
DWIDTH 36 0
BBX 33 35 2 0
BITMAP
7FFF1FFF00
03F003F000
01F001E000
01F001C000
00F8018000
0078030000
007C030000
003C060000
003E0E0000
001F0C0000
001F180000
000F980000
000FB00000
0007E00000
0007E00000
0003E00000
0003E00000
0001F00000
0003F00000
0003F80000
0006F80000
000E7C0000
000C7C0000
00183E0000
00383E0000
00301F0000
00601F0000
00E00F8000
00C00F8000
018007C000
038007C000
038003E000
078003F000
1FC003F800
FFF83FFF80
ENDCHAR
STARTCHAR 0059
ENCODING 89
SWIDTH 714 0
DWIDTH 35 0
BBX 32 35 2 0
BITMAP
FFFE0FFF
0FE001F8
07E000F0
03E00060
03F00040
01F000C0
01F80080
00F80080
00FC0100
007C0300
003E0200
003E0600
001F0400
001F0C00
000F8800
0007D800
0007D000
0003F000
0003E000
0001E000
0001E000
0001E000
0001E000
0001E000
0001E000
0001E000
0001E000
0001E000
0001E000
0001E000
0001E000
0001E000
0001E000
0001F000
007FFFC0
ENDCHAR
STARTCHAR 005A
ENCODING 90
SWIDTH 653 0
DWIDTH 32 0
BBX 26 35 3 0
BITMAP
3FFFFFC0
3F800F80
3E001F80
3C001F00
38003E00
38003E00
30007C00
3000FC00
6000F800
6001F000
4003F000
4003E000
0007C000
0007C000
000F8000
001F8000
001F0000
003E0000
007E0000
007C0000
00FC0000
00F80040
01F00040
03F00040
03E000C0
07C000C0
07C000C0
0F8001C0
1F8001C0
1F0003C0
3E0003C0
7E0007C0
7C000F80
F8003F80
FFFFFF80
ENDCHAR
STARTCHAR 005B
ENCODING 91
SWIDTH 387 0
DWIDTH 19 0
BBX 10 45 6 -9
BITMAP
FFC0
FE00
F000
F000
F000
F000
F000
F000
F000
F000
F000
F000
F000
F000
F000
F000
F000
F000
F000
F000
F000
F000
F000
F000
F000
F000
F000
F000
F000
F000
F000
F000
F000
F000
F000
F000
F000
F000
F000
F000
F000
F000
F000
FE00
FFC0
ENDCHAR
STARTCHAR 005C
ENCODING 92
SWIDTH 448 0
DWIDTH 22 0
BBX 16 46 3 -10
BITMAP
C000
C000
C000
6000
6000
6000
3000
3000
3000
1800
1800
1800
0C00
0C00
0C00
0600
0600
0600
0200
0300
0300
0300
0180
0180
0180
00C0
00C0
00C0
0060
0060
0060
0030
0030
0030
0018
0018
0018
000C
000C
000C
0006
0006
0006
0003
0003
0003
ENDCHAR
STARTCHAR 005D
ENCODING 93
SWIDTH 387 0
DWIDTH 19 0
BBX 10 45 3 -9
BITMAP
FFC0
1FC0
03C0
03C0
03C0
03C0
03C0
03C0
03C0
03C0
03C0
03C0
03C0
03C0
03C0
03C0
03C0
03C0
03C0
03C0
03C0
03C0
03C0
03C0
03C0
03C0
03C0
03C0
03C0
03C0
03C0
03C0
03C0
03C0
03C0
03C0
03C0
03C0
03C0
03C0
03C0
03C0
03C0
1FC0
FFC0
ENDCHAR
STARTCHAR 005E
ENCODING 94
SWIDTH 571 0
DWIDTH 28 0
BBX 22 18 3 17
BITMAP
001000
003000
003800
007800
006C00
00CE00
01C600
018300
030300
070180
0601C0
0E00C0
1C0060
180070
380030
300038
600018
E0000C
ENDCHAR
STARTCHAR 005F
ENCODING 95
SWIDTH 510 0
DWIDTH 25 0
BBX 25 2 0 -8
BITMAP
FFFFFF80
FFFFFF80
ENDCHAR
STARTCHAR 0060
ENCODING 96
SWIDTH 448 0
DWIDTH 22 0
BBX 8 9 4 25
BITMAP
E0
F0
F0
78
3C
0C
06
03
01
ENDCHAR
STARTCHAR 0061
ENCODING 97
SWIDTH 489 0
DWIDTH 24 0
BBX 21 22 2 1
BITMAP
07F800
181E00
100F00
300700
380780
3C0780
3E0780
1C0780
000780
001F80
03F780
1F0780
3C0780
780780
F80780
F00780
F00F88
F00F88
F01788
F81798
7827F0
3FC3F0
ENDCHAR
STARTCHAR 0062
ENCODING 98
SWIDTH 510 0
DWIDTH 25 0
BBX 22 35 1 0
BITMAP
FF0000
0F0000
0F0000
0F0000
0F0000
0F0000
0F0000
0F0000
0F0000
0F0000
0F0000
0F0000
0F0000
0F1F80
0F20E0
0F40F0
0FC070
0F8078
0F8078
0F0078
0F003C
0F003C
0F003C
0F003C
0F003C
0F003C
0F003C
0F003C
0F0078
0F0078
0F8078
0D8070
0CC0E0
0C60E0
083F80
ENDCHAR
STARTCHAR 0063
ENCODING 99
SWIDTH 428 0
DWIDTH 21 0
BBX 17 22 2 1
BITMAP
07FC00
0E0600
1C0300
380300
380380
780F80
780F80
F00F80
F00700
F00000
F00000
F00000
F00000
F00000
F00080
780080
780080
380100
380100
1C0200
0E0600
07F800
ENDCHAR
STARTCHAR 0064
ENCODING 100
SWIDTH 510 0
DWIDTH 25 0
BBX 22 35 2 0
BITMAP
003FC0
0003C0
0003C0
0003C0
0003C0
0003C0
0003C0
0003C0
0003C0
0003C0
0003C0
0003C0
0003C0
0FE3C0
1C13C0
3C0BC0
380FC0
7807C0
7807C0
7803C0
F003C0
F003C0
F003C0
F003C0
F003C0
F003C0
F003C0
F003C0
7803C0
7803C0
7807C0
3807C0
3C0FC0
1C1BC0
07F3FC
ENDCHAR
STARTCHAR 0065
ENCODING 101
SWIDTH 448 0
DWIDTH 22 0
BBX 18 22 2 1
BITMAP
07F800
0E1C00
1C0E00
380F00
380780
780780
780780
F007C0
F007C0
F007C0
FFFFC0
F00000
F00000
F00000
F00080
780080
780080
780180
380100
1C0300
0E0600
07FC00
ENDCHAR
STARTCHAR 0066
ENCODING 102
SWIDTH 326 0
DWIDTH 16 0
BBX 16 35 1 0
BITMAP
00F8
03C6
0703
0F07
0E0F
0E0F
1E0F
1E06
1E00
1E00
1E00
1E00
1E00
FFF0
1E00
1E00
1E00
1E00
1E00
1E00
1E00
1E00
1E00
1E00
1E00
1E00
1E00
1E00
1E00
1E00
1E00
1E00
1E00
1E00
FFF0
ENDCHAR
STARTCHAR 0067
ENCODING 103
SWIDTH 551 0
DWIDTH 27 0
BBX 23 33 3 -10
BITMAP
07FC7C
1E0ECE
3C078E
7C079E
7803DE
7803C0
7803C0
7803C0
7803C0
7803C0
3C0780
1C0780
0E0E00
03F800
1C0000
600000
C00000
C00000
E00000
FFFF80
7FFFE0
0FFFF0
1C0070
300038
600018
C00018
C00018
C00018
C00030
600030
780060
1E07C0
03FE00
ENDCHAR
STARTCHAR 0068
ENCODING 104
SWIDTH 551 0
DWIDTH 27 0
BBX 24 35 1 0
BITMAP
FF0000
0F0000
0F0000
0F0000
0F0000
0F0000
0F0000
0F0000
0F0000
0F0000
0F0000
0F0000
0F0000
0F0FC0
0F30F0
0F6070
0F4078
0F8078
0F8078
0F0078
0F0078
0F0078
0F0078
0F0078
0F0078
0F0078
0F0078
0F0078
0F0078
0F0078
0F0078
0F0078
0F0078
0F0078
FFC3FF
ENDCHAR
STARTCHAR 0069
ENCODING 105
SWIDTH 285 0
DWIDTH 14 0
BBX 10 34 2 0
BITMAP
1C00
3E00
3E00
3E00
1C00
0000
0000
0000
0000
0000
0000
0000
FE00
1E00
1E00
1E00
1E00
1E00
1E00
1E00
1E00
1E00
1E00
1E00
1E00
1E00
1E00
1E00
1E00
1E00
1E00
1E00
1E00
FFC0
ENDCHAR
STARTCHAR 006A
ENCODING 106
SWIDTH 326 0
DWIDTH 16 0
BBX 13 45 -2 -11
BITMAP
0070
00F8
00F8
00F8
0070
0000
0000
0000
0000
0000
0000
0000
0FF8
0078
0078
0078
0078
0078
0078
0078
0078
0078
0078
0078
0078
0078
0078
0078
0078
0078
0078
0078
0078
0078
0078
0078
0078
0078
F078
F078
F070
E0F0
60E0
73C0
1F00
ENDCHAR
STARTCHAR 006B
ENCODING 107
SWIDTH 489 0
DWIDTH 24 0
BBX 22 35 1 0
BITMAP
FE0000
1E0000
1E0000
1E0000
1E0000
1E0000
1E0000
1E0000
1E0000
1E0000
1E0000
1E0000
1E0000
1E0FFC
1E03E0
1E0180
1E0300
1E0600
1E0600
1E0C00
1E1800
1E3000
1E7800
1EF800
1EBC00
1FBE00
1F1E00
1E0F00
1E0F80
1E0780
1E03C0
1E03E0
1E01E0
1E03F0
FFCFFC
ENDCHAR
STARTCHAR 006C
ENCODING 108
SWIDTH 265 0
DWIDTH 13 0
BBX 11 35 1 0
BITMAP
FE00
1E00
1E00
1E00
1E00
1E00
1E00
1E00
1E00
1E00
1E00
1E00
1E00
1E00
1E00
1E00
1E00
1E00
1E00
1E00
1E00
1E00
1E00
1E00
1E00
1E00
1E00
1E00
1E00
1E00
1E00
1E00
1E00
1E00
FFE0
ENDCHAR
STARTCHAR 006D
ENCODING 109
SWIDTH 816 0
DWIDTH 40 0
BBX 36 22 2 1
BITMAP
FE3F81FC00
1E61C30E00
1EC1E60F00
1E80E40780
1F00F80780
1F00F80780
1E00F00780
1E00F00780
1E00F00780
1E00F00780
1E00F00780
1E00F00780
1E00F00780
1E00F00780
1E00F00780
1E00F00780
1E00F00780
1E00F00780
1E00F00780
1E00F00780
1E00F00780
FFC7FE3FF0
ENDCHAR
STARTCHAR 006E
ENCODING 110
SWIDTH 551 0
DWIDTH 27 0
BBX 23 22 2 1
BITMAP
FE1F80
1E61E0
1EC0E0
1E80F0
1F00F0
1F00F0
1E00F0
1E00F0
1E00F0
1E00F0
1E00F0
1E00F0
1E00F0
1E00F0
1E00F0
1E00F0
1E00F0
1E00F0
1E00F0
1E00F0
1E00F0
FFC7FE
ENDCHAR
STARTCHAR 006F
ENCODING 111
SWIDTH 489 0
DWIDTH 24 0
BBX 19 22 2 1
BITMAP
03FC00
0E0E00
1C0700
3C0380
3803C0
7803C0
7801E0
F801E0
F001E0
F001E0
F001E0
F001E0
F001E0
F001E0
F001E0
7801E0
7803C0
3803C0
3C0380
1C0700
0E0E00
03FC00
ENDCHAR
STARTCHAR 0070
ENCODING 112
SWIDTH 510 0
DWIDTH 25 0
BBX 22 33 1 -10
BITMAP
FE3F80
1E61C0
1EC0E0
1F8070
1F0078
1F0078
1E0078
1E003C
1E003C
1E003C
1E003C
1E003C
1E003C
1E003C
1E003C
1E0078
1E0078
1F0078
1F0070
1F80E0
1EC0C0
1E7F80
1E0000
1E0000
1E0000
1E0000
1E0000
1E0000
1E0000
1E0000
1E0000
1E0000
FFE000
ENDCHAR
STARTCHAR 0071
ENCODING 113
SWIDTH 510 0
DWIDTH 25 0
BBX 22 33 2 -10
BITMAP
07F040
1C18C0
1C0CC0
380CC0
7807C0
7807C0
7803C0
F003C0
F003C0
F003C0
F003C0
F003C0
F003C0
F003C0
F003C0
7803C0
7803C0
7807C0
3807C0
3C0FC0
1C1BC0
07F3C0
0003C0
0003C0
0003C0
0003C0
0003C0
0003C0
0003C0
0003C0
0003C0
0003C0
001FFC
ENDCHAR
STARTCHAR 0072
ENCODING 114
SWIDTH 408 0
DWIDTH 20 0
BBX 17 22 2 1
BITMAP
FE1F00
1E2380
1E4380
1ECF80
1E8F80
1F8F00
1F0200
1F0000
1F0000
1E0000
1E0000
1E0000
1E0000
1E0000
1E0000
1E0000
1E0000
1E0000
1E0000
1E0000
1E0000
FFC000
ENDCHAR
STARTCHAR 0073
ENCODING 115
SWIDTH 448 0
DWIDTH 22 0
BBX 17 22 3 1
BITMAP
1FE200
703200
601E00
C00E00
C00600
E00200
F00200
FC0000
7F0000
3FC000
1FF800
07FE00
80FF00
C01F00
C00780
E00380
E00180
F00180
F00180
F80300
C60700
83FC00
ENDCHAR
STARTCHAR 0074
ENCODING 116
SWIDTH 346 0
DWIDTH 17 0
BBX 14 32 1 0
BITMAP
0200
0200
0200
0200
0200
0600
0600
0600
0E00
1E00
FFF8
1E00
1E00
1E00
1E00
1E00
1E00
1E00
1E00
1E00
1E00
1E00
1E00
1E00
1E00
1E04
1E04
1E04
1E0C
0F08
0FF8
07F0
ENDCHAR
STARTCHAR 0075
ENCODING 117
SWIDTH 551 0
DWIDTH 27 0
BBX 23 22 2 0
BITMAP
FE07F0
1E00F0
1E00F0
1E00F0
1E00F0
1E00F0
1E00F0
1E00F0
1E00F0
1E00F0
1E00F0
1E00F0
1E00F0
1E00F0
1E00F0
1E01F0
1E01F0
1E01F0
1E02F0
0E06F0
0F0CF0
03F0FE
ENDCHAR
STARTCHAR 0076
ENCODING 118
SWIDTH 530 0
DWIDTH 26 0
BBX 24 23 1 -1
BITMAP
FFE1FF
1F007C
0F0030
0F0030
0F0020
078060
078060
03C040
03C0C0
01C0C0
01E080
01E180
00F180
00F100
007100
007B00
003A00
003E00
003E00
001C00
001C00
000C00
000800
ENDCHAR
STARTCHAR 0077
ENCODING 119
SWIDTH 775 0
DWIDTH 38 0
BBX 36 23 1 -1
BITMAP
FFE7FF1FF0
1F01F80780
1F00F00300
0F00780300
0F00780200
0780780600
0780FC0600
0380FC0400
03C0BC0C00
03C09E0C00
01E19E0800
01E10E1800
00E10F1800
00F30F1000
00F2073000
007207B000
007E07A000
003E03E000
003C03C000
001C01C000
001C01C000
0018018000
0008008000
ENDCHAR
STARTCHAR 0078
ENCODING 120
SWIDTH 530 0
DWIDTH 26 0
BBX 22 22 2 0
BITMAP
FFCFF8
1F03C0
1F0380
0F0300
078300
07C600
03C400
01EC00
01F800
00F000
007000
007800
007C00
00DC00
019E00
010F00
030F00
060780
0407C0
0C03C0
1C03E0
FF0FFC
ENDCHAR
STARTCHAR 0079
ENCODING 121
SWIDTH 530 0
DWIDTH 26 0
BBX 24 33 1 -11
BITMAP
FFE1FF
1F0078
0F0030
0F0030
070020
078060
078060
03C040
03C0C0
03C0C0
01E080
01E180
00E180
00F180
00F100
007300
007B00
007A00
003E00
003E00
003C00
001C00
001C00
001800
001800
001800
183000
3C3000
3C3000
3C6000
386000
1FC000
0F0000
ENDCHAR
STARTCHAR 007A
ENCODING 122
SWIDTH 448 0
DWIDTH 22 0
BBX 17 22 2 0
BITMAP
FFFF80
F80780
E00F00
E01F00
C01E00
C03C00
807C00
807800
00F000
01F000
01E000
03C000
07C000
078080
0F0080
1F0080
1E0080
3C0180
7C0180
780380
F00F80
FFFF80
ENDCHAR
STARTCHAR 007B
ENCODING 123
SWIDTH 428 0
DWIDTH 21 0
BBX 11 45 6 -9
BITMAP
00E0
0180
0700
0E00
0C00
1C00
1C00
1C00
1C00
1E00
1E00
0E00
0E00
0F00
0F00
0700
0700
0700
0700
0600
0400
1800
E000
3800
0C00
0600
0600
0700
0700
0700
0F00
0F00
0F00
0E00
1E00
1E00
1C00
1C00
1C00
1C00
0C00
0C00
0600
0380
00E0
ENDCHAR
STARTCHAR 007C
ENCODING 124
SWIDTH 285 0
DWIDTH 14 0
BBX 2 46 6 -10
BITMAP
C0
C0
C0
C0
C0
C0
C0
C0
C0
C0
C0
C0
C0
C0
C0
C0
C0
C0
C0
C0
C0
C0
C0
C0
C0
C0
C0
C0
C0
C0
C0
C0
C0
C0
C0
C0
C0
C0
C0
C0
C0
C0
C0
C0
C0
C0
ENDCHAR
STARTCHAR 007D
ENCODING 125
SWIDTH 408 0
DWIDTH 20 0
BBX 11 45 4 -9
BITMAP
C000
7000
1C00
0C00
0600
0700
0700
0700
0700
0F00
0F00
0E00
1E00
1E00
1E00
1C00
1C00
1C00
1C00
0C00
0400
0300
00E0
0300
0600
0C00
1C00
1C00
1C00
1C00
1E00
1E00
1E00
0E00
0F00
0F00
0700
0700
0700
0700
0600
0600
0C00
3800
E000
ENDCHAR
STARTCHAR 007E
ENCODING 126
SWIDTH 653 0
DWIDTH 32 0
BBX 28 9 2 8
BITMAP
1F8000C0
7FF00060
7FFC0030
E3FF0030
C07FE030
C01FF870
C003FFE0
6000FFC0
30001F80
ENDCHAR
STARTCHAR 00A0
ENCODING 160
SWIDTH 285 0
DWIDTH 14 0
BBX 0 0 0 0
BITMAP
ENDCHAR
STARTCHAR 00A1
ENCODING 161
SWIDTH 285 0
DWIDTH 14 0
BBX 6 33 4 -10
BITMAP
78
FC
FC
FC
78
00
00
30
30
30
30
30
30
30
30
30
30
30
78
78
78
78
78
78
F8
FC
FC
FC
FC
FC
FC
FC
78
ENDCHAR
STARTCHAR 00A2
ENCODING 162
SWIDTH 571 0
DWIDTH 28 0
BBX 17 34 5 -6
BITMAP
00C000
00C000
00C000
00C000
00C000
00C000
07FC00
0EC600
1CC300
38C380
78C380
78CF80
78CF80
F8CF80
F0C700
F0C000
F0C000
F0C000
F0C000
F0C000
F8C080
78C080
78C080
78C180
38C100
1CC300
0EC600
07FC00
00C000
00C000
00C000
00C000
00C000
00C000
ENDCHAR
STARTCHAR 00A3
ENCODING 163
SWIDTH 714 0
DWIDTH 35 0
BBX 28 34 3 0
BITMAP
00007E00
0001E380
000380C0
000700C0
000E00E0
000E01E0
001C03E0
001C03E0
003C03C0
003C0080
003C0000
003C0000
003C0000
003C0000
003C0000
1FFC0000
007FF800
007C0000
007C0000
003C0000
003C0000
003C0000
003C0000
003C0000
00380000
00380010
3E380020
63F00020
C1F00060
80780040
80FE00C0
809FFF80
C107FF00
7E01FE00
ENDCHAR
STARTCHAR 00A4
ENCODING 164
SWIDTH 571 0
DWIDTH 28 0
BBX 24 24 2 5
BITMAP
400002
E07E07
73FFCE
3F81FC
1E0078
1C0038
380018
30000C
30000C
600006
600006
600006
600006
600006
600006
70000C
30000C
38001C
1C0038
1E0078
3F81FC
73FFCE
E07E07
400002
ENDCHAR
STARTCHAR 00A5
ENCODING 165
SWIDTH 591 0
DWIDTH 29 0
BBX 27 33 1 0
BITMAP
FFE07FE0
1F000F00
0F000600
0F800600
07800C00
07C00C00
03C01800
03E01800
01E03000
01F02000
00F06000
00F84000
00F8C000
007C8000
007D8000
003F0000
003F0000
0FFFFC00
001E0000
001E0000
001E0000
0FFFFC00
001E0000
001E0000
001E0000
001E0000
001E0000
001E0000
001E0000
001E0000
001E0000
001F0000
03FFF000
ENDCHAR
STARTCHAR 00A6
ENCODING 166
SWIDTH 285 0
DWIDTH 14 0
BBX 2 44 6 -8
BITMAP
C0
C0
C0
C0
C0
C0
C0
C0
C0
C0
C0
C0
C0
C0
C0
C0
C0
C0
00
00
00
00
00
00
00
00
C0
C0
C0
C0
C0
C0
C0
C0
C0
C0
C0
C0
C0
C0
C0
C0
C0
C0
ENDCHAR
STARTCHAR 00A7
ENCODING 167
SWIDTH 632 0
DWIDTH 31 0
BBX 18 43 5 -9
BITMAP
01F000
061800
0C0C00
181E00
383E00
383E00
383E00
380800
3C0000
1E0000
1F0000
0F8000
07C000
0FE000
19F000
30FC00
607E00
403F00
C00F80
C00780
C003C0
E001C0
F000C0
7800C0
7C00C0
3E0080
1F0180
0F8300
07C600
03F800
01F000
00F800
007C00
003C00
001E00
000E00
1E0E00
3E0E00
3E0E00
3C0C00
181C00
0C3800
07E000
ENDCHAR
STARTCHAR 00A8
ENCODING 168
SWIDTH 448 0
DWIDTH 22 0
BBX 14 5 4 27
BITMAP
7038
F87C
F87C
F87C
7038
ENDCHAR
STARTCHAR 00A9
ENCODING 169
SWIDTH 816 0
DWIDTH 40 0
BBX 35 36 3 0
BITMAP
0007FC0000
003C078000
00E000C000
0180003000
0300001800
0400000C00
0800000600
1801F08300
30071C8100
201E078080
601C038080
4038018040
4078018040
C078008040
8078008060
80F8000020
80F0000020
80F0000020
80F0000020
80F0000020
80F0000020
80F0000020
80F8008060
4078008040
4078008040
60380180C0
203C010080
301E030180
100F0E0300
1803F80200
0C00000600
0600000C00
0380003800
00C0006000
007803C000
001FFE0000
ENDCHAR
STARTCHAR 00AA
ENCODING 170
SWIDTH 387 0
DWIDTH 19 0
BBX 13 17 3 17
BITMAP
3E00
6300
C180
E180
E180
0380
0D80
3180
7180
E180
E188
E188
F798
78F0
0000
0000
FFF0
ENDCHAR
STARTCHAR 00AB
ENCODING 171
SWIDTH 469 0
DWIDTH 23 0
BBX 13 19 5 1
BITMAP
0400
0C18
1830
3020
7060
6060
60C0
E0C0
E0C0
E0C0
E0C0
E0C0
E0C0
60C0
7060
3060
3830
1810
0C00
ENDCHAR
STARTCHAR 00AC
ENCODING 172
SWIDTH 591 0
DWIDTH 29 0
BBX 23 10 3 8
BITMAP
FFFFFE
FFFFFE
000006
000006
000006
000006
000006
000006
000006
000006
ENDCHAR
STARTCHAR 00AD
ENCODING 173
SWIDTH 367 0
DWIDTH 18 0
BBX 12 3 3 11
BITMAP
FFF0
FFF0
FFF0
ENDCHAR
STARTCHAR 00AE
ENCODING 174
SWIDTH 816 0
DWIDTH 40 0
BBX 35 36 3 0
BITMAP
0007FC0000
003C078000
00E000C000
0180003000
0300001800
0400000C00
0800000600
19FFF80300
303C1E0100
203C0F0080
603C078080
403C078040
403C078040
C03C078040
803C078060
803C0F0020
803C1E0020
803FF00020
803C1C0020
803C0E0020
803C070020
803C070020
803C078060
403C078040
403C078440
403C0784C0
203C078880
303C03C980
11FF81F100
1800000200
0C00000600
0600000C00
0300001800
00C0006000
007001C000
001FFE0000
ENDCHAR
STARTCHAR 00AF
ENCODING 175
SWIDTH 428 0
DWIDTH 21 0
BBX 13 2 4 28
BITMAP
FFF8
FFF8
ENDCHAR
STARTCHAR 00B0
ENCODING 176
SWIDTH 591 0
DWIDTH 29 0
BBX 14 13 8 21
BITMAP
0FC0
3860
7030
6018
C008
C00C
C00C
C00C
C00C
6018
6018
3870
0FC0
ENDCHAR
STARTCHAR 00B1
ENCODING 177
SWIDTH 918 0
DWIDTH 45 0
BBX 41 34 2 -2
BITMAP
00000C000000
00000C000000
00000C000000
00000C000000
00000C000000
00000C000000
00000C000000
00000C000000
00000C000000
00000C000000
00000C000000
00000C000000
00000C000000
FFFFFFFFFF80
FFFFFFFFFF80
00000C000000
00000C000000
00000C000000
00000C000000
00000C000000
00000C000000
00000C000000
00000C000000
00000C000000
00000C000000
00000C000000
00000C000000
00000C000000
00000C000000
000000000000
000000000000
000000000000
FFFFFFFFFF80
FFFFFFFFFF80
ENDCHAR
STARTCHAR 00B2
ENCODING 178
SWIDTH 448 0
DWIDTH 22 0
BBX 14 21 4 13
BITMAP
0FC0
31F0
6078
C07C
C03C
E03C
F83C
783C
3078
0070
00E0
01C0
0380
0600
0C00
3004
2004
600C
7FF8
FFF8
FFF8
ENDCHAR
STARTCHAR 00B3
ENCODING 179
SWIDTH 448 0
DWIDTH 22 0
BBX 14 21 5 13
BITMAP
0FC0
38E0
6070
6038
7038
7838
3038
0070
00E0
3F80
38E0
0078
0038
003C
703C
F83C
F03C
C038
C078
60F0
1FC0
ENDCHAR
STARTCHAR 00B4
ENCODING 180
SWIDTH 448 0
DWIDTH 22 0
BBX 8 9 10 25
BITMAP
07
0F
0F
1E
3C
30
60
C0
80
ENDCHAR
STARTCHAR 00B5
ENCODING 181
SWIDTH 591 0
DWIDTH 29 0
BBX 25 36 3 -13
BITMAP
7001C000
F003C000
F003E000
F003E000
F003E000
F003E000
F003E000
F003E000
F003E000
F003E000
E003E000
E001C000
E001C000
6001C000
6001C000
6001C000
60018000
60038180
7007C180
580F7F80
4FFE3F80
43FC1F00
40000000
C0000000
C0000000
C0000000
C0000000
C0000000
E0000000
E0000000
F0000000
F0000000
F0000000
F8000000
78000000
78000000
ENDCHAR
STARTCHAR 00B6
ENCODING 182
SWIDTH 530 0
DWIDTH 26 0
BBX 20 42 3 -7
BITMAP
07FFF0
1FC180
3FC180
7FC180
7FC180
FFC180
FFC180
FFC180
FFC180
FFC180
FFC180
7FC180
7FC180
3FC180
0FC180
00C180
00C180
00C180
00C180
00C180
00C180
00C180
00C180
00C180
00C180
00C180
00C180
00C180
00C180
00C180
00C180
00C180
00C180
00C180
00C180
00C180
00C180
00C180
00C180
00C180
00C180
00C180
ENDCHAR
STARTCHAR 00B7
ENCODING 183
SWIDTH 285 0
DWIDTH 14 0
BBX 6 6 4 12
BITMAP
78
FC
FC
FC
FC
78
ENDCHAR
STARTCHAR 00B8
ENCODING 184
SWIDTH 428 0
DWIDTH 21 0
BBX 10 10 5 -10
BITMAP
0800
0800
1800
0F00
0380
01C0
01C0
01C0
C380
3F00
ENDCHAR
STARTCHAR 00B9
ENCODING 185
SWIDTH 428 0
DWIDTH 21 0
BBX 11 20 5 14
BITMAP
0200
0600
0E00
FE00
0E00
0E00
0E00
0E00
0E00
0E00
0E00
0E00
0E00
0E00
0E00
0E00
0E00
0E00
0E00
FFE0
ENDCHAR
STARTCHAR 00BA
ENCODING 186
SWIDTH 367 0
DWIDTH 18 0
BBX 12 17 3 17
BITMAP
0F00
39C0
70C0
60E0
E060
E070
E070
E070
E070
E070
6060
70E0
31C0
1F00
0000
0000
FFF0
ENDCHAR
STARTCHAR 00BB
ENCODING 187
SWIDTH 469 0
DWIDTH 23 0
BBX 13 19 5 1
BITMAP
0100
C180
60C0
2060
3070
3030
1830
1838
1838
1838
1838
1838
1838
1830
3070
3060
60E0
40C0
0180
ENDCHAR
STARTCHAR 00BC
ENCODING 188
SWIDTH 857 0
DWIDTH 42 0
BBX 33 35 5 -1
BITMAP
0200006000
0600004000
0E0000C000
FE00018000
0E00010000
0E00030000
0E00020000
0E00060000
0E000C0000
0E00080000
0E00180000
0E00100000
0E00300000
0E00600000
0E00603800
0E00C07800
0E00807800
0E0180F800
0E0300B800
FFE3013800
0006013800
0004023800
000C023800
0008043800
00180C3800
0030083800
0020183800
00601FFF80
0040003800
00C0003800
0180003800
0180003800
0300003800
020001FF80
0600000000
ENDCHAR
STARTCHAR 00BD
ENCODING 189
SWIDTH 857 0
DWIDTH 42 0
BBX 33 35 5 -1
BITMAP
0200006000
0600004000
060000C000
0E00018000
FE00018000
0E00030000
0E00020000
0E00060000
0E00040000
0E000C0000
0E00180000
0E00100000
0E00300000
0E0021F800
0E00663E00
0E00CC0F00
0E00980F80
0E01980780
0E01180780
FFE31F0780
00061F0780
00040F0700
000C000E00
0008001C00
0018003800
0030007000
003000C000
0060018000
0040020080
00C0040080
01800C0180
01800FFF00
03000FFF00
02001FFF00
0600000000
ENDCHAR
STARTCHAR 00BE
ENCODING 190
SWIDTH 857 0
DWIDTH 42 0
BBX 33 35 5 -1
BITMAP
0FC0003000
38E0006000
6070006000
603800C000
7038008000
7838018000
3038030000
0070030000
00E0060000
3F80040000
38E00C0000
0078180000
0038180000
003C300000
703C201C00
F83C601C00
F03CC03C00
C078C05C00
60F1805C00
3FC1009C00
0003019C00
0006011C00
0006021C00
000C061C00
0008041C00
0018081C00
0030181C00
00301FFF80
0060001C00
0040001C00
00C0001C00
0180001C00
0180001C00
030001FF80
0200000000
ENDCHAR
STARTCHAR 00BF
ENCODING 191
SWIDTH 489 0
DWIDTH 24 0
BBX 18 33 2 -10
BITMAP
01E000
03F000
03F000
03F000
01E000
000000
000000
01E000
023000
041800
041800
041800
041800
003000
007000
00E000
01C000
078000
0F0000
1E0000
3C0000
7C0000
780F00
F81F80
F01FC0
F00FC0
F000C0
F000C0
7800C0
780180
3C0300
0F0E00
03F800
ENDCHAR
STARTCHAR 00C0
ENCODING 192
SWIDTH 755 0
DWIDTH 37 0
BBX 34 46 2 0
BITMAP
0038000000
003C000000
003C000000
001E000000
000F000000
0003800000
0001800000
0000C00000
0000000000
0000000000
0000000000
0000C00000
0000C00000
0000E00000
0001E00000
0001E00000
0003F00000
0003F00000
0003F00000
0006F80000
0006F80000
0006F80000
000C7C0000
000C7C0000
000C7C0000
00183E0000
00183E0000
00181E0000
00301F0000
00301F0000
00300F0000
00600F8000
00600F8000
0060078000
00FFFFC000
00FFFFC000
00C003C000
018003E000
018003E000
038001E000
030001F000
030001F000
070000F000
070000F800
1F8001FC00
FFF81FFFC0
ENDCHAR
STARTCHAR 00C1
ENCODING 193
SWIDTH 755 0
DWIDTH 37 0
BBX 34 46 2 0
BITMAP
0000070000
00000F0000
00000F0000
00001E0000
00003C0000
0000300000
0000600000
0000C00000
0000800000
0000000000
0000000000
0000C00000
0000C00000
0000E00000
0001E00000
0001E00000
0003F00000
0003F00000
0003F00000
0006F80000
0006F80000
0006F80000
000C7C0000
000C7C0000
000C7C0000
00183E0000
00183E0000
00181E0000
00301F0000
00301F0000
00300F0000
00600F8000
00600F8000
00E0078000
00FFFFC000
00FFFFC000
01C003C000
018003E000
018003E000
038001E000
030001F000
030001F000
070000F000
0F8000F800
FFF81FFFC0
FFF81FFFC0
ENDCHAR
STARTCHAR 00C2
ENCODING 194
SWIDTH 755 0
DWIDTH 37 0
BBX 34 45 2 0
BITMAP
0000C00000
0001E00000
0003F00000
0007380000
000E1C0000
001C0E0000
0030030000
0000000000
0000000000
0000000000
0000C00000
0000C00000
0000E00000
0001E00000
0001E00000
0003F00000
0003F00000
0003F00000
0006F80000
0006F80000
0006F80000
000C7C0000
000C7C0000
000C7C0000
00183E0000
00183E0000
00181E0000
00301F0000
00301F0000
00300F0000
00600F8000
00600F8000
0060078000
00FFFFC000
00FFFFC000
00C003C000
018003E000
018003E000
038001E000
030001F000
030001F000
070000F000
070000F800
1F8001FC00
FFF81FFFC0
ENDCHAR
STARTCHAR 00C3
ENCODING 195
SWIDTH 755 0
DWIDTH 37 0
BBX 34 45 2 0
BITMAP
000F008000
001FE18000
003FFF0000
0021FF0000
00203E0000
0000000000
0000000000
0000000000
0000000000
0000000000
0000C00000
0000C00000
0001E00000
0001E00000
0001E00000
0003F00000
0003F00000
0003F00000
0006F80000
0006F80000
0006F80000
000C7C0000
000C7C0000
000C7C0000
00183E0000
00183E0000
00181E0000
00301F0000
00301F0000
00700F0000
00600F8000
00600F8000
00E0078000
00FFFFC000
00FFFFC000
01C003C000
018003E000
018003E000
038001E000
030001F000
030001F000
070000F000
0F8000F800
FFF81FFFC0
FFF81FFFC0
ENDCHAR
STARTCHAR 00C4
ENCODING 196
SWIDTH 755 0
DWIDTH 37 0
BBX 34 44 2 0
BITMAP
001C070000
003E0F8000
003E0F8000
003E0F8000
001C070000
0000000000
0000000000
0000000000
0000000000
0000400000
0000C00000
0000E00000
0000E00000
0001E00000
0001F00000
0003F00000
0003F00000
0003F80000
0007F80000
0006780000
00067C0000
000E3C0000
000C3C0000
000C3E0000
001C1E0000
00181E0000
00181F0000
00300F0000
00300F0000
00700F8000
0060078000
0060078000
00FFFFC000
00FFFFC000
00C003C000
01C003E000
01C001E000
018001E000
038001F000
038000F000
078000F000
078000F800
1FC001FC00
FFF81FFFC0
ENDCHAR
STARTCHAR 00C5
ENCODING 197
SWIDTH 755 0
DWIDTH 37 0
BBX 34 47 2 0
BITMAP
0001E00000
0006180000
0004080000
0008040000
0008040000
0008040000
0008040000
0004080000
0006180000
0003E00000
0000000000
0000000000
0000C00000
0000C00000
0000E00000
0001E00000
0001E00000
0003F00000
0003F00000
0003F00000
0006F80000
0006F80000
0006F80000
000C7C0000
000C7C0000
000C7C0000
00183E0000
00183E0000
00181E0000
00301F0000
00301F0000
00300F0000
00600F8000
0060078000
0060078000
00FFFFC000
00FFFFC000
01C003C000
018003E000
018003E000
038001E000
030001F000
030001F000
070000F000
070000F800
1F8001FC00
FFF81FFFC0
ENDCHAR
STARTCHAR 00C6
ENCODING 198
SWIDTH 979 0
DWIDTH 48 0
BBX 44 35 1 0
BITMAP
00007FFFFFF0
00000FE003F0
00000FC000F0
00000FC00070
00000FC00070
00001BC00030
00001BC00030
000033C00030
000033C00010
000063C00010
000063C01010
0000C3C01010
0001C3C01000
000183C03000
000383C03000
000303C03000
000703C07000
000603FFF000
000E03C0F000
000C03C03000
001803C03000
001803C01000
003003C01010
003FFFC01010
006003C01010
006003C00010
00C003C00010
00C003C00030
018003C00030
018003C00070
038003C00070
078003C000F0
0F8003C001F0
FFF87FFFFFF0
FFF87FFFFFF0
ENDCHAR
STARTCHAR 00C7
ENCODING 199
SWIDTH 653 0
DWIDTH 32 0
BBX 26 47 3 -11
BITMAP
003F0080
00E1E180
03807180
07003F80
0E001F80
1E000F80
1C000780
3C000780
3C000380
7C000380
78000180
78000180
78000080
F8000080
F8000000
F8000000
F8000000
F8000000
F8000000
F8000000
F8000000
F8000000
F8000000
780000C0
780000C0
780000C0
7C0000C0
3C000080
3C000180
1C000180
1E000300
0E000300
07000600
03800C00
01C03800
007FE000
00080000
00080000
001C0000
000F8000
0003C000
0001E000
0001E000
0001E000
0081E000
00C7C000
003F0000
ENDCHAR
STARTCHAR 00C8
ENCODING 200
SWIDTH 693 0
DWIDTH 34 0
BBX 28 46 3 0
BITMAP
00E00000
00F00000
00F00000
00780000
003C0000
000E0000
00060000
00030000
00000000
00000000
00000000
FFFFFFF0
FFFFFFF0
078001F0
078000F0
07800070
07800070
07800030
07800030
07800030
07800010
07802010
07802010
07802000
07806000
07806000
07806000
0780E000
07FFE000
0781E000
07806000
07806000
07806000
07802010
07802010
07802010
07800010
07800030
07800030
07800030
07800070
07800070
078000F0
078001F0
FFFFFFF0
FFFFFFF0
ENDCHAR
STARTCHAR 00C9
ENCODING 201
SWIDTH 693 0
DWIDTH 34 0
BBX 28 46 3 0
BITMAP
00001C00
00003C00
00003C00
00007800
0000F000
0000C000
00018000
00030000
00020000
00000000
00000000
FFFFFFF0
FFFFFFF0
078001F0
078000F0
07800070
07800070
07800030
07800030
07800030
07800010
07802010
07802010
07802000
07806000
07806000
07806000
0780E000
07FFE000
0781E000
07806000
07806000
07806000
07802010
07802010
07802010
07800010
07800030
07800030
07800030
07800070
07800070
078000F0
078001F0
FFFFFFF0
FFFFFFF0
ENDCHAR
STARTCHAR 00CA
ENCODING 202
SWIDTH 693 0
DWIDTH 34 0
BBX 28 45 3 0
BITMAP
00030000
00078000
000FC000
000CE000
00187000
00701800
00C00C00
00000200
00000000
00000000
FFFFFFF0
FFFFFFF0
078001F0
078000F0
07800070
07800070
07800030
07800030
07800030
07800010
07802010
07802010
07802000
07806000
07806000
07806000
0780E000
07FFE000
0781E000
07806000
07806000
07806000
07802010
07802010
07802010
07800010
07800030
07800030
07800030
07800070
07800070
078000F0
078001F0
FFFFFFF0
FFFFFFF0
ENDCHAR
STARTCHAR 00CB
ENCODING 203
SWIDTH 693 0
DWIDTH 34 0
BBX 28 44 3 0
BITMAP
00701C00
00F83E00
00F83E00
00F83E00
00701C00
00000000
00000000
00000000
00000000
FFFFFFF0
07C007F0
078001F0
078000F0
07800070
07800070
07800030
07800030
07800030
07800010
07802010
07802010
07802000
07802000
07806000
07806000
0780E000
07FFE000
0781E000
07806000
07806000
07802000
07802010
07802010
07802010
07800010
07800030
07800030
07800030
07800070
07800070
078000F0
078001F0
FFFFFFF0
FFFFFFF0
ENDCHAR
STARTCHAR 00CC
ENCODING 204
SWIDTH 387 0
DWIDTH 19 0
BBX 14 46 3 0
BITMAP
E000
F000
F000
7800
3C00
0C00
0600
0300
0100
0000
0000
FFFC
FFFC
0780
0780
0780
0780
0780
0780
0780
0780
0780
0780
0780
0780
0780
0780
0780
0780
0780
0780
0780
0780
0780
0780
0780
0780
0780
0780
0780
0780
0780
0780
0780
0F80
FFFC
ENDCHAR
STARTCHAR 00CD
ENCODING 205
SWIDTH 387 0
DWIDTH 19 0
BBX 14 46 3 0
BITMAP
001C
003C
003C
0078
00F0
00C0
0180
0300
0000
0000
0000
FFFC
FFFC
0780
0780
0780
0780
0780
0780
0780
0780
0780
0780
0780
0780
0780
0780
0780
0780
0780
0780
0780
0780
0780
0780
0780
0780
0780
0780
0780
0780
0780
0780
0780
07C0
FFFC
ENDCHAR
STARTCHAR 00CE
ENCODING 206
SWIDTH 387 0
DWIDTH 19 0
BBX 14 45 3 0
BITMAP
0300
0780
07C0
0EC0
1860
7038
C00C
0000
0000
0000
FFFC
07C0
0780
0780
0780
0780
0780
0780
0780
0780
0780
0780
0780
0780
0780
0780
0780
0780
0780
0780
0780
0780
0780
0780
0780
0780
0780
0780
0780
0780
0780
0780
0780
FFFC
FFFC
ENDCHAR
STARTCHAR 00CF
ENCODING 207
SWIDTH 408 0
DWIDTH 20 0
BBX 15 44 3 0
BITMAP
701C
F83E
F83E
F83E
701C
0000
0000
0000
0000
7FFE
07C0
03C0
03C0
03C0
03C0
03C0
03C0
03C0
03C0
03C0
03C0
03C0
03C0
03C0
03C0
03C0
03C0
03C0
03C0
03C0
03C0
03C0
03C0
03C0
03C0
03C0
03C0
03C0
03C0
03C0
03C0
03C0
07C0
7FFE
ENDCHAR
STARTCHAR 00D0
ENCODING 208
SWIDTH 775 0
DWIDTH 38 0
BBX 32 35 4 0
BITMAP
FFFFF800
0F800F00
07800380
078001C0
078000E0
078000F0
07800078
0780007C
0780003C
0780003E
0780003E
0780001E
0780001E
0780001F
0780001F
0780001F
FFFE001F
0780001F
0780001F
0780001F
0780001F
0780001F
0780001E
0780003E
0780003E
0780003C
0780003C
07800078
07800078
078000F0
078000E0
078001C0
07800380
0F801E00
FFFFF800
ENDCHAR
STARTCHAR 00D1
ENCODING 209
SWIDTH 775 0
DWIDTH 38 0
BBX 33 46 3 -1
BITMAP
0007018000
001FE18000
001FFF0000
0010FF0000
00303E0000
0000000000
0000000000
0000000000
0000000000
0000000000
FFC007FF80
FFC007FF80
07E0007800
07F0003000
07F0003000
07F8003000
06F8003000
06FC003000
067E003000
063E003000
063F003000
061F003000
060F803000
060FC03000
0607C03000
0607E03000
0603E03000
0601F03000
0601F83000
0600F83000
0600FC3000
06007C3000
06003E3000
06003F3000
06001F3000
06000FB000
06000FB000
060007F000
060007F000
060003F000
060001F000
060001F000
0F0000F000
1F8000F000
FFF0007000
0000003000
ENDCHAR
STARTCHAR 00D2
ENCODING 210
SWIDTH 673 0
DWIDTH 33 0
BBX 28 46 3 1
BITMAP
01C00000
01E00000
01F00000
00700000
00380000
001C0000
000C0000
00060000
00000000
00000000
001F8000
00FFF000
01C03800
03801C00
07000E00
0E000700
1E000780
1E000780
3C0003C0
3C0003C0
7C0003E0
7C0003E0
780001E0
F80001F0
F80001F0
F80001F0
F80001F0
F80001F0
F80001F0
F80001F0
F80001F0
F80001F0
F80001F0
780001E0
780001E0
780003E0
7C0003C0
3C0003C0
3C0003C0
1E000780
0E000700
0E000700
07000E00
03801C00
00C03000
007FE000
ENDCHAR
STARTCHAR 00D3
ENCODING 211
SWIDTH 673 0
DWIDTH 33 0
BBX 28 46 3 1
BITMAP
00003800
00007800
0000F800
0000E000
0001C000
00038000
00030000
00060000
00000000
00000000
001F8000
00FFF000
01C03800
03801C00
07000E00
0E000700
1E000780
1E000780
3C0003C0
3C0003C0
7C0003E0
7C0003E0
780001E0
F80001F0
F80001F0
F80001F0
F80001F0
F80001F0
F80001F0
F80001F0
F80001F0
F80001F0
F80001F0
780001E0
780001E0
780003E0
7C0003C0
3C0003C0
3C0003C0
1E000780
0E000700
0E000700
07000E00
03801C00
00C03000
007FE000
ENDCHAR
STARTCHAR 00D4
ENCODING 212
SWIDTH 673 0
DWIDTH 33 0
BBX 28 46 3 0
BITMAP
00060000
000F0000
000F0000
001F8000
0039C000
0070E000
00C03000
03801C00
00000000
00000000
001F8000
00FFF000
01C03800
03801C00
07000E00
0E000700
1E000780
1E000780
3C0003C0
3C0003C0
7C0003E0
7C0003E0
780001E0
F80001F0
F80001F0
F80001F0
F80001F0
F80001F0
F80001F0
F80001F0
F80001F0
F80001F0
F80001F0
780001E0
780001E0
780003E0
7C0003C0
3C0003C0
3C0003C0
1E000780
0E000700
0E000700
07000E00
03801C00
00C03000
007FE000
ENDCHAR
STARTCHAR 00D5
ENCODING 213
SWIDTH 673 0
DWIDTH 33 0
BBX 28 45 3 0
BITMAP
00780C00
00FF0800
01FFF800
018FF800
0101E000
00000000
00000000
00000000
00000000
001F8000
00FFF000
01C03800
03801C00
07000E00
0E000700
1E000780
1E000780
3C0003C0
3C0003C0
7C0003E0
7C0003E0
780001E0
F80001F0
F80001F0
F80001F0
F80001F0
F80001F0
F80001F0
F80001F0
F80001F0
F80001F0
F80001F0
780001E0
780001E0
780003E0
7C0003C0
3C0003C0
3C0003C0
1E000780
0E000700
0E000700
07000E00
03801C00
00C03000
007FE000
ENDCHAR
STARTCHAR 00D6
ENCODING 214
SWIDTH 673 0
DWIDTH 33 0
BBX 28 45 3 0
BITMAP
00E03800
01F07C00
01F07C00
01F07C00
00E03800
00000000
00000000
00000000
00000000
001F8000
00F0F000
01C03800
03801C00
07000E00
0E000700
1E000780
1C000380
3C0003C0
3C0003C0
7C0003E0
780001E0
780001E0
F80001E0
F80001F0
F80001F0
F80001F0
F80001F0
F80001F0
F80001F0
F80001F0
F80001F0
F80001F0
780001E0
780001E0
7C0003E0
7C0003E0
3C0003C0
3C0003C0
1E000780
0E000700
0E000F00
07000E00
03801C00
00E07000
007FE000
ENDCHAR
STARTCHAR 00D7
ENCODING 215
SWIDTH 938 0
DWIDTH 46 0
BBX 30 30 8 -2
BITMAP
C000000C
E000001C
70000038
38000070
1C0000E0
0E0001C0
07000380
03800700
01C00E00
00E01C00
00703800
00387000
001CE000
000FC000
00078000
00078000
000FC000
001CE000
00387000
00703800
00E01C00
01C00E00
03800700
07000380
0E0001C0
1C0000E0
38000070
70000038
E000001C
C000000C
ENDCHAR
STARTCHAR 00D8
ENCODING 216
SWIDTH 673 0
DWIDTH 33 0
BBX 28 36 3 0
BITMAP
001F8020
00F0F060
01C038E0
03801EC0
07000F80
0E000780
1E000780
1C000780
3C000FC0
3C001FC0
7C003BE0
780031E0
780061E0
F800E1F0
F801C1F0
F80181F0
F80301F0
F80701F0
F80601F0
F80C01F0
F81C01F0
F83801F0
F83001F0
786001E0
78E001E0
79C003E0
7D8003C0
3F0003C0
3F0003C0
1E000780
1E000700
1E000F00
3F000E00
33801C00
61C07000
C07FE000
ENDCHAR
STARTCHAR 00D9
ENCODING 217
SWIDTH 795 0
DWIDTH 39 0
BBX 34 46 3 1
BITMAP
001C000000
001C000000
001E000000
000F000000
0007000000
0001800000
0000C00000
0000400000
0000000000
0000000000
FFFC03FFC0
FFFC03FFC0
07C0007E00
0780003C00
0780001800
0780001800
0780001800
0780001800
0780001800
0780001800
0780001800
0780001800
0780001800
0780001800
0780001800
0780001800
0780001800
0780001800
0780001800
0780001800
0780001800
0780001800
0780001800
0780001800
0780001800
0780001800
0780001800
0780001800
03C0001800
03C0003000
01C0003000
01E0006000
00E0006000
007000C000
003C038000
000FFE0000
ENDCHAR
STARTCHAR 00DA
ENCODING 218
SWIDTH 795 0
DWIDTH 39 0
BBX 34 46 3 1
BITMAP
0000070000
00000F0000
00001E0000
00001C0000
0000380000
0000700000
0000600000
0000800000
0000000000
0000000000
FFFC03FFC0
FFFC03FFC0
07C0007E00
0780003C00
0780001800
0780001800
0780001800
0780001800
0780001800
0780001800
0780001800
0780001800
0780001800
0780001800
0780001800
0780001800
0780001800
0780001800
0780001800
0780001800
0780001800
0780001800
0780001800
0780001800
0780001800
0780001800
0780001800
0780001800
03C0001800
03C0003000
01C0003000
01E0006000
00E0006000
007000C000
003C038000
000FFE0000
ENDCHAR
STARTCHAR 00DB
ENCODING 219
SWIDTH 795 0
DWIDTH 39 0
BBX 34 46 3 0
BITMAP
0000C00000
0000E00000
0001E00000
0003F00000
0003380000
00061C0000
001C060000
0030038000
0000000000
0000000000
0000000000
FFFC03FFC0
07C0007E00
0780003C00
0780001800
0780001800
0780001800
0780001800
0780001800
0780001800
0780001800
0780001800
0780001800
0780001800
0780001800
0780001800
0780001800
0780001800
0780001800
0780001800
0780001800
0780001800
0780001800
0780001800
0780001800
0780001800
0780001800
0780001800
03C0001800
03C0003000
03C0003000
01E0006000
00F000E000
007801C000
003E078000
000FFE0000
ENDCHAR
STARTCHAR 00DC
ENCODING 220
SWIDTH 795 0
DWIDTH 39 0
BBX 34 45 3 0
BITMAP
001C070000
003E0F8000
003E0F8000
003E0F8000
001C070000
0000000000
0000000000
0000000000
0000000000
0000000000
FFFC03FFC0
07C0007E00
0780003C00
0780001800
0780001800
0780001800
0780001800
0780001800
0780001800
0780001800
0780001800
0780001800
0780001800
0780001800
0780001800
0780001800
0780001800
0780001800
0780001800
0780001800
0780001800
0780001800
0780001800
0780001800
0780001800
0780001800
0780001800
03C0001800
03C0003000
03C0003000
01E0006000
00E0006000
007000C000
003C038000
000FFE0000
ENDCHAR
STARTCHAR 00DD
ENCODING 221
SWIDTH 714 0
DWIDTH 35 0
BBX 32 46 2 0
BITMAP
00000300
00000780
00000F00
00001E00
00003C00
00003800
00006000
0000C000
00000000
00000000
00000000
FFFE0FFF
FFFE0FFF
07E000F0
07E00060
03E00060
03F00040
01F000C0
00F80080
00FC0180
007C0100
003E0300
003E0200
001F0600
001F0C00
000F8800
00079800
0007D000
0003F000
0003E000
0001E000
0001E000
0001E000
0001E000
0001E000
0001E000
0001E000
0001E000
0001E000
0001E000
0001E000
0001E000
0001E000
0001E000
0001F000
007FFFC0
ENDCHAR
STARTCHAR 00DE
ENCODING 222
SWIDTH 673 0
DWIDTH 33 0
BBX 28 35 3 0
BITMAP
FFFE0000
07C00000
07800000
07800000
07800000
07800000
07FFF000
07C01E00
07800780
078007C0
078003E0
078003E0
078001F0
078001F0
078001F0
078001F0
078001F0
078001F0
078003E0
078003E0
078007C0
07800780
07801E00
07FFF800
07800000
07800000
07800000
07800000
07800000
07800000
07800000
07800000
07800000
07C00000
FFFE0000
ENDCHAR
STARTCHAR 00DF
ENCODING 223
SWIDTH 530 0
DWIDTH 26 0
BBX 22 35 1 0
BITMAP
003F80
00F3E0
01C0F0
0380F0
0780F8
070078
0F0078
0F0078
0F00F8
0F00F0
0F00E0
0F01C0
0F0300
0F3C00
0F0600
0F0180
0F00C0
0F00E0
0F0070
0F0078
0F0078
0F003C
0F003C
0F003C
0F003C
0F003C
0F003C
0F003C
0F383C
0F783C
0F783C
0F7078
0F6070
0F30E0
FF1FC0
ENDCHAR
STARTCHAR 00E0
ENCODING 224
SWIDTH 489 0
DWIDTH 24 0
BBX 21 33 2 1
BITMAP
380000
3C0000
1E0000
0E0000
070000
038000
018000
00C000
000000
000000
000000
07F800
181E00
100F00
300700
380780
3C0780
3E0780
1C0780
000780
001F80
03F780
1F0780
3C0780
780780
F80780
F00780
F00F88
F00F88
F01788
F81798
7827F0
3FC3F0
ENDCHAR
STARTCHAR 00E1
ENCODING 225
SWIDTH 489 0
DWIDTH 24 0
BBX 21 33 2 1
BITMAP
000700
000F80
000F00
001E00
003C00
003000
006000
00C000
000000
000000
000000
07F800
181E00
100F00
300700
380780
3C0780
3E0780
1C0780
000780
001F80
03F780
1F0780
3C0780
780780
F80780
F00780
F00F88
F00F88
F01788
F81798
7827F0
3FC3F0
ENDCHAR
STARTCHAR 00E2
ENCODING 226
SWIDTH 489 0
DWIDTH 24 0
BBX 21 33 2 0
BITMAP
00C000
00E000
01E000
01F000
033000
061800
0C0C00
180200
000000
000000
000000
07F800
181E00
100F00
300700
380780
3C0780
3E0780
1C0780
000780
001F80
03F780
1F0780
3C0780
780780
F80780
F00780
F00F88
F00F88
F01788
F81798
7827F0
3FC3F0
ENDCHAR
STARTCHAR 00E3
ENCODING 227
SWIDTH 489 0
DWIDTH 24 0
BBX 21 32 2 0
BITMAP
0F8100
1FE300
1FFF00
10FE00
203C00
000000
000000
000000
000000
000000
07F800
181E00
100F00
300700
380780
3C0780
3E0780
1C0780
000780
001F80
03F780
1F0780
3C0780
780780
F80780
F00780
F00F88
F00F88
F01788
F81798
7827F0
3FC3F0
ENDCHAR
STARTCHAR 00E4
ENCODING 228
SWIDTH 489 0
DWIDTH 24 0
BBX 21 32 2 0
BITMAP
1C0E00
3E1F00
3E1F00
3E1F00
1C0E00
000000
000000
000000
000000
000000
07F800
181E00
100F00
300700
380780
3C0780
3E0780
1C0780
000780
001F80
03F780
1F0780
3C0780
780780
F80780
F00780
F00F88
F00F88
F01788
F81798
7827F0
3FC3F0
ENDCHAR
STARTCHAR 00E5
ENCODING 229
SWIDTH 489 0
DWIDTH 24 0
BBX 21 34 2 0
BITMAP
01E000
021800
040800
080400
080400
080400
040C00
061800
01F000
000000
000000
000000
07F800
181E00
100F00
300700
380780
3C0780
3C0780
1C0780
000780
001F80
03F780
1F0780
3C0780
780780
F80780
F00780
F00F88
F00F88
F01F88
F81798
7827F0
3FC3F0
ENDCHAR
STARTCHAR 00E6
ENCODING 230
SWIDTH 693 0
DWIDTH 34 0
BBX 30 22 2 1
BITMAP
07F83F80
181E61E0
100FE0E0
3007C070
3807C078
3C078078
3E078078
1E07803C
0007803C
000F803C
01F7FFFC
0F078000
3C078000
78078000
F8078000
F0078008
F00F8008
F00BC008
F01BC010
F811E030
7820F060
3FC07FC0
ENDCHAR
STARTCHAR 00E7
ENCODING 231
SWIDTH 428 0
DWIDTH 21 0
BBX 17 32 2 -9
BITMAP
07FC00
0E0600
1C0300
380300
380380
780F80
780F80
F00F80
F00700
F00000
F00000
F00000
F00000
F00000
F00080
780080
780080
780100
380100
1C0200
0E0600
07F800
008000
008000
018000
00F000
003800
001C00
001C00
001C00
0C3800
03F000
ENDCHAR
STARTCHAR 00E8
ENCODING 232
SWIDTH 448 0
DWIDTH 22 0
BBX 18 33 2 1
BITMAP
3C0000
3C0000
1E0000
0F0000
070000
038000
00C000
004000
000000
000000
000000
07F800
0E1C00
1C0E00
380F00
380780
780780
780780
F007C0
F007C0
F007C0
FFFFC0
F00000
F00000
F00000
F00080
780080
780080
780180
380100
1C0300
0E0600
07FC00
ENDCHAR
STARTCHAR 00E9
ENCODING 233
SWIDTH 448 0
DWIDTH 22 0
BBX 18 33 2 1
BITMAP
000700
000F00
000F00
001E00
003C00
003000
006000
00C000
000000
000000
000000
07F800
0E1C00
1C0E00
380F00
380780
780780
780780
F007C0
F007C0
F007C0
FFFFC0
F00000
F00000
F00000
F00080
780080
780080
780180
380100
1C0300
0E0600
07FC00
ENDCHAR
STARTCHAR 00EA
ENCODING 234
SWIDTH 448 0
DWIDTH 22 0
BBX 18 33 2 0
BITMAP
00C000
00E000
01E000
01F000
03B800
071800
040C00
180200
000000
000000
000000
07F800
0E1C00
1C0E00
380F00
380780
780780
780780
F007C0
F007C0
F007C0
FFFFC0
F00000
F00000
F00000
F00080
780080
780080
780180
380100
1C0300
0E0600
07FC00
ENDCHAR
STARTCHAR 00EB
ENCODING 235
SWIDTH 448 0
DWIDTH 22 0
BBX 18 32 2 0
BITMAP
1C0700
3E0F80
3E0F80
3E0F80
1C0700
000000
000000
000000
000000
000000
07F800
0E0C00
1C0E00
3C0700
380780
780380
780380
F003C0
F003C0
F003C0
FFFFC0
F00000
F00000
F00000
F00040
780080
780080
780080
380180
1C0100
0E0600
07FC00
ENDCHAR
STARTCHAR 00EC
ENCODING 236
SWIDTH 285 0
DWIDTH 14 0
BBX 12 33 0 1
BITMAP
E000
F000
F000
7800
3C00
0C00
0600
0300
0000
0000
0000
3F80
0780
0780
0780
0780
0780
0780
0780
0780
0780
0780
0780
0780
0780
0780
0780
0780
0780
0780
0780
0780
3FF0
ENDCHAR
STARTCHAR 00ED
ENCODING 237
SWIDTH 265 0
DWIDTH 13 0
BBX 11 33 2 1
BITMAP
00E0
01E0
01E0
03C0
0780
0600
0C00
1800
0000
0000
0000
FE00
1E00
1E00
1E00
1E00
1E00
1E00
1E00
1E00
1E00
1E00
1E00
1E00
1E00
1E00
1E00
1E00
1E00
1E00
1E00
1E00
FFC0
ENDCHAR
STARTCHAR 00EE
ENCODING 238
SWIDTH 285 0
DWIDTH 14 0
BBX 13 33 0 0
BITMAP
0700
0700
0780
0F80
1DC0
1860
3030
C018
0000
0000
0000
3F80
0780
0780
0780
0780
0780
0780
0780
0780
0780
0780
0780
0780
0780
0780
0780
0780
0780
0780
0780
0780
3FF0
ENDCHAR
STARTCHAR 00EF
ENCODING 239
SWIDTH 306 0
DWIDTH 15 0
BBX 13 32 1 0
BITMAP
7070
F8F8
F8F8
F8F8
7070
0000
0000
0000
0000
0000
3F80
0780
0780
0780
0780
0780
0780
0780
0780
0780
0780
0780
0780
0780
0780
0780
0780
0780
0780
0780
0780
3FF0
ENDCHAR
STARTCHAR 00F0
ENCODING 240
SWIDTH 489 0
DWIDTH 24 0
BBX 19 35 2 0
BITMAP
1F0000
0F8380
07C600
03FC00
01F000
00F000
01F800
077C00
0C3C00
181E00
001F00
000F00
000780
03FF80
0E0FC0
1C07C0
3C03C0
3803E0
7803E0
7801E0
F801E0
F001E0
F001E0
F001E0
F001E0
F001E0
F001E0
F001E0
7801C0
7803C0
3803C0
3C0380
1C0700
0E0E00
03FC00
ENDCHAR
STARTCHAR 00F1
ENCODING 241
SWIDTH 551 0
DWIDTH 27 0
BBX 23 32 2 0
BITMAP
01E040
03F8C0
07FFC0
063F80
040700
000000
000000
000000
000000
000000
FE1F80
1E61E0
1EC0E0
1E80F0
1F00F0
1F00F0
1E00F0
1E00F0
1E00F0
1E00F0
1E00F0
1E00F0
1E00F0
1E00F0
1E00F0
1E00F0
1E00F0
1E00F0
1E00F0
1E00F0
1E00F0
FFC7FE
ENDCHAR
STARTCHAR 00F2
ENCODING 242
SWIDTH 489 0
DWIDTH 24 0
BBX 19 33 2 1
BITMAP
1C0000
1E0000
1E0000
0F0000
078000
018000
00C000
006000
000000
000000
000000
03FC00
0E0E00
1C0700
3C0380
3803C0
7803C0
7801E0
F801E0
F001E0
F001E0
F001E0
F001E0
F001E0
F001E0
F001E0
7801E0
7803C0
3803C0
3C0380
1C0700
0E0E00
03FC00
ENDCHAR
STARTCHAR 00F3
ENCODING 243
SWIDTH 489 0
DWIDTH 24 0
BBX 19 33 2 1
BITMAP
000700
000780
000F00
001E00
001C00
003800
006000
004000
000000
000000
000000
03FC00
0E0E00
1C0700
3C0380
3803C0
7803C0
7801E0
F801E0
F001E0
F001E0
F001E0
F001E0
F001E0
F001E0
F001E0
7801E0
7803C0
3803C0
3C0380
1C0700
0E0E00
03FC00
ENDCHAR
STARTCHAR 00F4
ENCODING 244
SWIDTH 489 0
DWIDTH 24 0
BBX 19 33 2 0
BITMAP
006000
00E000
00F000
01F000
01B800
031800
060400
080300
000000
000000
000000
03FC00
0E0E00
1C0700
3C0380
3803C0
7803C0
7801E0
F801E0
F001E0
F001E0
F001E0
F001E0
F001E0
F001E0
F001E0
7801E0
7803C0
3803C0
3C0380
1C0700
0E0E00
03FC00
ENDCHAR
STARTCHAR 00F5
ENCODING 245
SWIDTH 489 0
DWIDTH 24 0
BBX 19 32 2 0
BITMAP
078100
0FE100
1FFF00
18FE00
101C00
000000
000000
000000
000000
000000
03FC00
0E0E00
1C0700
3C0380
3803C0
7803C0
7801E0
F801E0
F001E0
F001E0
F001E0
F001E0
F001E0
F001E0
F001E0
7801E0
7803C0
3803C0
3C0380
1C0700
0E0E00
03FC00
ENDCHAR
STARTCHAR 00F6
ENCODING 246
SWIDTH 489 0
DWIDTH 24 0
BBX 19 32 2 0
BITMAP
0E0700
1F0F80
1F0F80
1F0F80
0E0700
000000
000000
000000
000000
000000
03FC00
0E0E00
1C0700
3C0380
3803C0
7803C0
7801E0
F801E0
F001E0
F001E0
F001E0
F001E0
F001E0
F001E0
F001E0
7801E0
7803C0
3803C0
3C0380
1C0700
0E0E00
03FC00
ENDCHAR
STARTCHAR 00F7
ENCODING 247
SWIDTH 918 0
DWIDTH 45 0
BBX 41 31 2 -3
BITMAP
00001E000000
00003F000000
00003F000000
00003F000000
00003F000000
00001E000000
000000000000
000000000000
000000000000
000000000000
000000000000
000000000000
000000000000
000000000000
FFFFFFFFFF80
FFFFFFFFFF80
000000000000
000000000000
000000000000
000000000000
000000000000
000000000000
000000000000
000000000000
000000000000
00001E000000
00003F000000
00003F000000
00003F000000
00003F000000
00001E000000
ENDCHAR
STARTCHAR 00F8
ENCODING 248
SWIDTH 489 0
DWIDTH 24 0
BBX 19 22 2 1
BITMAP
03FC60
0E0E40
1C07C0
3C0380
3803C0
7807C0
780DE0
F809E0
F019E0
F031E0
F061E0
F0C1E0
F081E0
F181E0
F301E0
7E01E0
7C03C0
3803C0
3C0380
3C0700
6E0E00
C3FC00
ENDCHAR
STARTCHAR 00F9
ENCODING 249
SWIDTH 551 0
DWIDTH 27 0
BBX 23 33 2 1
BITMAP
0E0000
0F0000
078000
03C000
01C000
00E000
003000
001000
000000
000000
000000
FE07F0
1E00F0
1E00F0
1E00F0
1E00F0
1E00F0
1E00F0
1E00F0
1E00F0
1E00F0
1E00F0
1E00F0
1E00F0
1E00F0
1E00F0
1E01F0
1E01F0
1E01F0
1E02F0
0E06F0
0F0CF0
03F0FE
ENDCHAR
STARTCHAR 00FA
ENCODING 250
SWIDTH 551 0
DWIDTH 27 0
BBX 23 33 2 1
BITMAP
0001C0
0003C0
0003C0
000780
000E00
000C00
001800
003000
000000
000000
000000
FE07F0
1E00F0
1E00F0
1E00F0
1E00F0
1E00F0
1E00F0
1E00F0
1E00F0
1E00F0
1E00F0
1E00F0
1E00F0
1E00F0
1E00F0
1E01F0
1E01F0
1E01F0
1E02F0
0E06F0
0F0CF0
03F0FE
ENDCHAR
STARTCHAR 00FB
ENCODING 251
SWIDTH 551 0
DWIDTH 27 0
BBX 23 33 2 0
BITMAP
003000
003800
007800
007C00
00CC00
018600
030300
060080
000000
000000
000000
FE07F0
1E00F0
1E00F0
1E00F0
1E00F0
1E00F0
1E00F0
1E00F0
1E00F0
1E00F0
1E00F0
1E00F0
1E00F0
1E00F0
1E00F0
1E01F0
1E01F0
1E01F0
1E02F0
0E06F0
0F0CF0
03F0FE
ENDCHAR
STARTCHAR 00FC
ENCODING 252
SWIDTH 551 0
DWIDTH 27 0
BBX 23 32 2 0
BITMAP
070380
0F87C0
0F87C0
0F87C0
070380
000000
000000
000000
000000
000000
FE07F0
1E00F0
1E00F0
1E00F0
1E00F0
1E00F0
1E00F0
1E00F0
1E00F0
1E00F0
1E00F0
1E00F0
1E00F0
1E00F0
1E00F0
1E01F0
1E01F0
1E01F0
1E02F0
0E06F0
0F0CF0
03F0FE
ENDCHAR
STARTCHAR 00FD
ENCODING 253
SWIDTH 530 0
DWIDTH 26 0
BBX 24 45 1 -10
BITMAP
0000F0
0000F0
0001E0
0001C0
000380
000700
000600
000C00
001800
000000
000000
000000
FFE1FF
1F0078
0F0030
0F0030
070020
078060
078060
03C040
03C0C0
03C0C0
01E080
01E180
00E180
00F180
00F100
007300
007B00
007A00
003E00
003E00
003C00
001C00
001C00
001800
001800
001800
183000
3C3000
3C3000
3C6000
386000
1FC000
0F0000
ENDCHAR
STARTCHAR 00FE
ENCODING 254
SWIDTH 510 0
DWIDTH 25 0
BBX 20 46 2 -13
BITMAP
1E0000
7E0000
FE0000
1E0000
1E0000
1E0000
1E0000
1E0000
1E0000
1E0000
1E0000
1E0FC0
1E3FE0
1E61F0
1EC0F0
1E80F0
1F80F0
1F00F0
1F00F0
1E00F0
1E00F0
1E01E0
1E01E0
1E01C0
1E0380
1E0380
1E0700
1E0600
1E0C00
1E1800
1E3000
1EC000
1F8000
1E0000
1E0000
1E0000
1E0000
1E0000
1E0000
1E0000
1E0000
1E0000
1E0000
3C0000
F00000
800000
ENDCHAR
STARTCHAR 00FF
ENCODING 255
SWIDTH 530 0
DWIDTH 26 0
BBX 24 43 1 -11
BITMAP
01C0E0
03E1F0
03E1F0
03E1F0
01C0E0
000000
000000
000000
000000
000000
FFE1FF
1F8078
0F0030
0F0030
078020
078060
078060
03C040
03C040
03C0C0
01E080
01E080
00E180
00F180
00F100
007300
007B00
007A00
003E00
003E00
003C00
001C00
001C00
001800
001800
001800
183000
3C3000
3C3000
3C6000
386000
1FC000
0F0000
ENDCHAR
STARTCHAR 0100
ENCODING 256
SWIDTH 755 0
DWIDTH 37 0
BBX 34 42 2 0
BITMAP
001FFF0000
001FFF0000
0000000000
0000000000
0000000000
0000000000
0000000000
0000C00000
0000C00000
0000E00000
0001E00000
0001E00000
0001F00000
0003F00000
0003F00000
0002F80000
0006F80000
0006F80000
000E7C0000
000C7C0000
000C7C0000
001C3E0000
00183E0000
00181E0000
00381F0000
00381F0000
00300F0000
00700F8000
00700F8000
0060078000
00FFFFC000
00FFFFC000
00C003C000
01C003E000
01C001E000
038001E000
038001F000
038000F000
078000F000
078000F800
1FC001FC00
FFF81FFFC0
ENDCHAR
STARTCHAR 0101
ENCODING 257
SWIDTH 489 0
DWIDTH 24 0
BBX 21 30 2 0
BITMAP
3FFE00
3FFE00
000000
000000
000000
000000
000000
000000
07F800
181E00
100F00
300700
380780
3C0780
3E0780
1C0780
000780
001F80
03F780
1F0780
3C0780
780780
F80780
F00780
F00F88
F00F88
F01788
F81798
7827F0
3FC3F0
ENDCHAR
STARTCHAR 0102
ENCODING 258
SWIDTH 755 0
DWIDTH 37 0
BBX 34 45 2 0
BITMAP
0020018000
0030018000
0030038000
0018070000
000E0E0000
0007FC0000
0003F80000
0000000000
0000000000
0000000000
0000C00000
0000C00000
0001E00000
0001E00000
0001E00000
0003F00000
0003F00000
0003F00000
0006F80000
0006F80000
0006F80000
000C7C0000
000C7C0000
000C3C0000
00183E0000
00183E0000
00181E0000
00381F0000
00301F0000
00300F0000
00700F8000
00600F8000
0060078000
00FFFFC000
00FFFFC000
01C003C000
01C003E000
018001E000
038001E000
038001F000
038000F000
078000F000
078000F800
1FC000FC00
FFF81FFFC0
ENDCHAR
STARTCHAR 0103
ENCODING 259
SWIDTH 489 0
DWIDTH 24 0
BBX 21 33 2 0
BITMAP
200100
300300
100200
180600
0C0C00
07F800
03F000
000000
000000
000000
000000
07F800
181E00
100F00
300700
380780
3C0780
3E0780
1C0780
000780
001F80
03F780
1F0780
3C0780
780780
F80780
F00780
F00F88
F00F88
F01788
F81798
7827F0
3FC3F0
ENDCHAR
STARTCHAR 0104
ENCODING 260
SWIDTH 755 0
DWIDTH 37 0
BBX 34 47 2 -11
BITMAP
0000C00000
0000C00000
0000C00000
0001E00000
0001E00000
0001E00000
0003F00000
0003F00000
0003F00000
0006F80000
0006F80000
0004780000
000C7C0000
000C7C0000
00083C0000
00183E0000
00183E0000
00101E0000
00301F0000
00301F0000
00600F0000
00600F8000
0060078000
00FFFF8000
00FFFFC000
00C003C000
018003C000
018003E000
018003E000
030001E000
030001F000
030001F000
070000F000
070000F800
1F8001FC00
FFF81FFFC0
0000006000
0000018000
0000030000
0000070000
0000060000
00000E0000
00000E0000
00000E0000
00000F1800
000007F000
000003E000
ENDCHAR
STARTCHAR 0105
ENCODING 261
SWIDTH 489 0
DWIDTH 24 0
BBX 21 33 2 -10
BITMAP
07F800
181E00
100F00
300700
300780
3C0780
3E0780
1E0780
080780
000780
01FF80
0F0780
3C0780
780780
780780
F00780
F00F88
F00F88
F01F88
F81788
782790
3FC3F0
000060
000180
000300
000600
000C00
001C00
001C00
001C00
001E60
000FC0
000780
ENDCHAR
STARTCHAR 0106
ENCODING 262
SWIDTH 653 0
DWIDTH 32 0
BBX 26 46 3 1
BITMAP
00003800
00007800
0000F000
0000E000
0001C000
00038000
00030000
00040000
00000000
00000000
003F0080
00E1E080
03807180
07003F80
0E001F80
1E000F80
1C000780
3C000380
3C000380
7C000380
78000180
78000180
78000080
F8000080
F8000000
F8000000
F8000000
F8000000
F8000000
F8000000
F8000000
F8000000
F8000000
780000C0
780000C0
780000C0
3C0000C0
3C000080
3C000180
1C000180
0E000300
0E000300
07000600
03800C00
00E03800
007FE000
ENDCHAR
STARTCHAR 0107
ENCODING 263
SWIDTH 428 0
DWIDTH 21 0
BBX 17 34 2 0
BITMAP
000300
000700
000F00
000F00
001E00
001800
003000
006000
004000
000000
000000
000000
07F800
0E0600
1C0200
380300
780700
780F00
780F00
F00600
F00000
F00000
F00000
F00000
F00000
F00000
F00080
780180
780180
380100
380300
1C0200
0E0C00
07F800
ENDCHAR
STARTCHAR 0108
ENCODING 264
SWIDTH 653 0
DWIDTH 32 0
BBX 26 46 3 0
BITMAP
00060000
000E0000
000F0000
001F8000
0039C000
0070E000
00C03000
03801800
00000000
00000000
003F0080
00FFC080
03C07180
07003980
0E001F80
1E000F80
1C000780
3C000780
3C000380
7C000380
78000180
78000180
78000080
F8000080
F8000000
F8000000
F8000000
F8000000
F8000000
F8000000
F8000000
F8000000
F8000000
780000C0
780000C0
780000C0
3C0000C0
3C000080
3C000180
1C000180
0E000300
0E000300
07000600
03800C00
00C03800
007FE000
ENDCHAR
STARTCHAR 0109
ENCODING 265
SWIDTH 428 0
DWIDTH 21 0
BBX 17 33 2 0
BITMAP
006000
00E000
00F000
01F000
019800
030C00
060600
080300
000000
000000
000000
07FC00
0E0600
1C0300
380300
380380
780F80
780F80
F00F80
F00700
F00000
F00000
F00000
F00000
F00000
F00080
780080
780080
380100
380100
1C0200
0E0600
07F800
ENDCHAR
STARTCHAR 010A
ENCODING 266
SWIDTH 653 0
DWIDTH 32 0
BBX 26 45 3 0
BITMAP
00070000
000F8000
000F8000
000F8000
00070000
00000000
00000000
00000000
00000000
003F0080
00E1E080
03807180
07003F80
0E001F80
1E000F80
1C000780
3C000380
3C000380
7C000380
78000180
78000180
78000080
F8000080
F8000000
F8000000
F8000000
F8000000
F8000000
F8000000
F8000000
F8000000
F8000000
780000C0
780000C0
780000C0
3C0000C0
3C000080
3C000180
1C000180
0E000300
0E000300
07000600
03800C00
00E03800
007FE000
ENDCHAR
STARTCHAR 010B
ENCODING 267
SWIDTH 428 0
DWIDTH 21 0
BBX 17 32 2 0
BITMAP
00E000
01F000
01F000
01F000
00E000
000000
000000
000000
000000
000000
07FC00
0E0600
1C0300
380300
380380
780F80
780F80
F00F80
F00700
F00000
F00000
F00000
F00000
F00000
F00080
780080
780080
380100
380100
1C0200
0E0600
07F800
ENDCHAR
STARTCHAR 010C
ENCODING 268
SWIDTH 653 0
DWIDTH 32 0
BBX 26 46 3 0
BITMAP
02000000
01801800
00C03000
0070E000
0039C000
001F8000
001F0000
000E0000
00000000
00000000
003F0080
00E1E080
03807180
07003F80
0E001F80
1E000F80
1C000780
3C000380
3C000380
7C000380
78000180
78000180
78000080
F8000080
F8000000
F8000000
F8000000
F8000000
F8000000
F8000000
F8000000
F8000000
F8000000
780000C0
780000C0
780000C0
3C0000C0
3C000080
3C000180
1C000180
0E000300
0E000300
07000600
03800C00
00E03800
007FE000
ENDCHAR
STARTCHAR 010D
ENCODING 269
SWIDTH 428 0
DWIDTH 21 0
BBX 17 33 2 0
BITMAP
180100
0C0300
060600
031C00
03B800
01F800
00F000
00E000
000000
000000
000000
07FC00
0E0600
1C0300
380300
380380
780F80
780F80
F00F80
F00700
F00000
F00000
F00000
F00000
F00000
F00080
780080
780080
380100
380100
1C0200
0E0600
07F800
ENDCHAR
STARTCHAR 010E
ENCODING 270
SWIDTH 775 0
DWIDTH 38 0
BBX 33 45 3 0
BITMAP
0180060000
00E00C0000
0070380000
003C700000
001FE00000
000FC00000
0007800000
0003000000
0000000000
0000000000
FFFFFC0000
07C00F0000
078003C000
078000E000
0780007000
0780007800
0780003C00
0780003E00
0780001E00
0780001F00
0780001F00
0780000F00
0780000F00
0780000F80
0780000F80
0780000F80
0780000F80
0780000F80
0780000F80
0780000F80
0780000F80
0780000F80
0780000F00
0780001F00
0780001F00
0780001E00
0780001E00
0780003C00
0780003C00
0780007800
0780007000
078000E000
078003C000
07C00F0000
FFFFFC0000
ENDCHAR
STARTCHAR 010F
ENCODING 271
SWIDTH 571 0
DWIDTH 28 0
BBX 26 35 2 0
BITMAP
003FC700
0003CF80
0003CFC0
0003C7C0
0003C0C0
0003C0C0
0003C080
0003C180
0003C100
0003C200
0003C400
0003C000
0003C000
0FE3C000
1C13C000
3C0BC000
380FC000
7807C000
7807C000
7803C000
F003C000
F003C000
F003C000
F003C000
F003C000
F003C000
F003C000
F003C000
7803C000
7803C000
7807C000
3807C000
3C0FC000
1C1BC000
07F3FC00
ENDCHAR
STARTCHAR 0110
ENCODING 272
SWIDTH 775 0
DWIDTH 38 0
BBX 32 35 4 0
BITMAP
FFFFF800
0F800F00
07800380
078001C0
078000E0
078000F0
07800078
0780007C
0780003C
0780003E
0780003E
0780001E
0780001E
0780001F
0780001F
0780001F
FFFE001F
0780001F
0780001F
0780001F
0780001F
0780001F
0780001E
0780003E
0780003E
0780003C
0780003C
07800078
07800078
078000F0
078000E0
078001C0
07800380
0F801E00
FFFFF800
ENDCHAR
STARTCHAR 0111
ENCODING 273
SWIDTH 530 0
DWIDTH 26 0
BBX 22 35 2 0
BITMAP
003FC0
0003C0
0003C0
0003C0
0003C0
0003C0
03FFFC
0003C0
0003C0
0003C0
0003C0
0003C0
0003C0
0FE3C0
1C13C0
3C0BC0
380FC0
7807C0
7807C0
7803C0
F003C0
F003C0
F003C0
F003C0
F003C0
F003C0
F003C0
F003C0
7803C0
7803C0
7807C0
3807C0
3C0FC0
1C1BC0
07F3FC
ENDCHAR
STARTCHAR 0112
ENCODING 274
SWIDTH 693 0
DWIDTH 34 0
BBX 28 42 3 0
BITMAP
007FFC00
007FFC00
00000000
00000000
00000000
00000000
00000000
FFFFFFF0
07C007F0
078001F0
078000F0
07800070
07800070
07800030
07800030
07800030
07800010
07802010
07802010
07802000
07806000
07806000
07806000
0780E000
07FFE000
0781E000
07806000
07806000
07806000
07802010
07802010
07802010
07800010
07800030
07800030
07800030
07800070
07800070
078000F0
078001F0
FFFFFFF0
FFFFFFF0
ENDCHAR
STARTCHAR 0113
ENCODING 275
SWIDTH 448 0
DWIDTH 22 0
BBX 18 30 2 0
BITMAP
1FFF00
1FFF00
000000
000000
000000
000000
000000
000000
07F800
0E1C00
1C0E00
380700
380780
780780
780380
F003C0
F003C0
F003C0
FFFFC0
F00000
F00000
F00000
F000C0
780080
780080
780080
380100
1C0300
0E0600
07FC00
ENDCHAR
STARTCHAR 0114
ENCODING 276
SWIDTH 693 0
DWIDTH 34 0
BBX 28 45 3 0
BITMAP
00800600
00C00600
00C00E00
00601C00
00383800
001FF000
000FE000
00000000
00000000
00000000
FFFFFFF0
FFFFFFF0
078001F0
078000F0
07800070
07800070
07800030
07800030
07800030
07800010
07802010
07802010
07802000
07806000
07806000
07806000
0780E000
07FFE000
0781E000
07806000
07806000
07806000
07802010
07802010
07802010
07800010
07800030
07800030
07800030
07800070
07800070
078000F0
078001F0
FFFFFFF0
FFFFFFF0
ENDCHAR
STARTCHAR 0115
ENCODING 277
SWIDTH 448 0
DWIDTH 22 0
BBX 18 33 2 0
BITMAP
300100
300100
100200
180600
0E0C00
07F800
03F000
000000
000000
000000
000000
07F800
0E1C00
1C0E00
380F00
380780
780780
780780
F007C0
F007C0
F007C0
FFFFC0
F00000
F00000
F00000
F00080
780080
780080
780180
380100
1C0300
0E0600
07FC00
ENDCHAR
STARTCHAR 0116
ENCODING 278
SWIDTH 693 0
DWIDTH 34 0
BBX 28 44 3 0
BITMAP
00038000
0007C000
0007C000
0007C000
00038000
00000000
00000000
00000000
00000000
FFFFFFF0
07C007F0
078001F0
078000F0
07800070
07800070
07800030
07800030
07800030
07800010
07802010
07802010
07802000
07802000
07806000
07806000
0780E000
07FFE000
0781E000
07806000
07806000
07802000
07802010
07802010
07802010
07800010
07800030
07800030
07800030
07800070
07800070
078000F0
078001F0
FFFFFFF0
FFFFFFF0
ENDCHAR
STARTCHAR 0117
ENCODING 279
SWIDTH 448 0
DWIDTH 22 0
BBX 18 32 2 0
BITMAP
00E000
01F000
01F000
01F000
00E000
000000
000000
000000
000000
000000
07F800
0E1C00
1C0E00
3C0700
380780
780780
780380
F003C0
F003C0
F003C0
FFFFC0
F00000
F00000
F00000
F000C0
780080
780080
780080
380100
1C0300
0E0600
07FC00
ENDCHAR
STARTCHAR 0118
ENCODING 280
SWIDTH 693 0
DWIDTH 34 0
BBX 28 46 3 -11
BITMAP
FFFFFFF0
07C007F0
078001F0
078000F0
07800070
07800030
07800030
07800030
07800010
07802010
07802010
07802000
07806000
07806000
07806000
0780E000
07FFE000
0781E000
07806000
07806000
07806000
07802000
07802010
07802010
07800010
07800010
07800030
07800030
07800030
07800070
07800070
078000F0
078001F0
07C007F0
FFFFFFF0
00000C00
00003800
00006000
0000E000
0000C000
0001C000
0001C000
0001C000
0001E100
0000FF00
00007C00
ENDCHAR
STARTCHAR 0119
ENCODING 281
SWIDTH 448 0
DWIDTH 22 0
BBX 18 33 2 -10
BITMAP
07F800
0E1C00
1C0E00
380F00
380780
780780
780780
F007C0
F007C0
F007C0
FFFFC0
F00000
F00000
F00000
F00080
780080
780080
780180
380100
1C0300
0E0600
07FC00
003800
006000
00E000
01C000
018000
038000
038000
038000
03CC00
01F800
00F000
ENDCHAR
STARTCHAR 011A
ENCODING 282
SWIDTH 693 0
DWIDTH 34 0
BBX 28 45 3 0
BITMAP
01800600
00E00C00
00703800
003C7000
001FE000
000FC000
00078000
00030000
00000000
00000000
FFFFFFF0
07C007F0
078001F0
078000F0
07800070
07800070
07800030
07800030
07800030
07800010
07802010
07802010
07802000
07806000
07806000
07806000
0780E000
07FFE000
0781E000
07806000
07806000
07806000
07802010
07802010
07802010
07800010
07800030
07800030
07800030
07800070
07800070
078000F0
078001F0
FFFFFFF0
FFFFFFF0
ENDCHAR
STARTCHAR 011B
ENCODING 283
SWIDTH 448 0
DWIDTH 22 0
BBX 18 33 2 0
BITMAP
100100
080600
0E0C00
071C00
03B800
01F000
01E000
00E000
000000
000000
000000
07F800
0E1C00
1C0E00
380F00
380780
780780
780780
F007C0
F007C0
F007C0
FFFFC0
F00000
F00000
F00000
F00080
780080
780080
780180
380100
1C0300
0E0600
07FC00
ENDCHAR
STARTCHAR 011C
ENCODING 284
SWIDTH 693 0
DWIDTH 34 0
BBX 30 46 3 0
BITMAP
00060000
000F0000
000F0000
001F8000
0039C000
0070E000
00C03000
03801C00
00000000
00000000
003F80C0
00FFE0C0
03C070C0
07003DC0
0F001FC0
0E000FC0
1E0007C0
3C0003C0
3C0003C0
7C0001C0
780001C0
780000C0
780000C0
F80000C0
F8000000
F8000000
F8000000
F8000000
F800FFFC
F800FFFC
F80007C0
F80007C0
F80007C0
F80007C0
780007C0
780007C0
780007C0
3C0007C0
3C0007C0
1C000FC0
1E000FC0
0E001CC0
070018C0
030030C0
01C0E0C0
007F80C0
ENDCHAR
STARTCHAR 011D
ENCODING 285
SWIDTH 551 0
DWIDTH 27 0
BBX 23 45 3 -11
BITMAP
006000
006000
00F000
00F000
01F800
019800
030C00
060600
0C0100
000000
000000
000000
07FC7C
1E0ECE
3C078E
7C079E
7803DE
7803C0
7803C0
7803C0
7803C0
7803C0
3C0780
1C0780
0E0E00
03F800
1C0000
600000
C00000
C00000
E00000
FFFF80
7FFFE0
0FFFF0
1C0070
300038
600018
C00018
C00018
C00018
C00030
600030
780060
1E07C0
03FE00
ENDCHAR
STARTCHAR 011E
ENCODING 286
SWIDTH 693 0
DWIDTH 34 0
BBX 30 46 3 0
BITMAP
01000C00
01800C00
01800C00
00C01800
00C03800
00707000
003FE000
001FC000
00000000
00000000
003F80C0
00E0E0C0
038038C0
07001DC0
0E000FC0
0E0007C0
1C0007C0
3C0003C0
3C0003C0
7C0001C0
780001C0
780000C0
780000C0
F80000C0
F8000000
F8000000
F8000000
F8000000
F800FFFC
F800FFFC
F80007C0
F80007C0
F80007C0
F80007C0
780007C0
780007C0
7C0007C0
3C0007C0
3C0007C0
1C0007C0
1E000FC0
0E000CC0
070018C0
038030C0
01C060C0
007F80C0
ENDCHAR
STARTCHAR 011F
ENCODING 287
SWIDTH 551 0
DWIDTH 27 0
BBX 23 45 3 -11
BITMAP
180080
180080
180180
0C0300
070600
03FC00
01F800
000000
000000
000000
000000
000000
07FC7C
1E0ECE
3C078E
7C079E
7803DE
7803C0
7803C0
7803C0
7803C0
7803C0
3C0780
1C0780
0E0E00
03F800
1C0000
600000
C00000
C00000
E00000
FFFF80
7FFFE0
0FFFF0
1C0070
300038
600018
C00018
C00018
C00018
C00030
600030
780060
1E07C0
03FE00
ENDCHAR
STARTCHAR 0120
ENCODING 288
SWIDTH 693 0
DWIDTH 34 0
BBX 30 45 3 0
BITMAP
00070000
000F8000
000F8000
000F8000
00070000
00000000
00000000
00000000
00000000
003F80C0
00E0E0C0
038038C0
07001DC0
0E000FC0
0E0007C0
1C0007C0
3C0003C0
3C0003C0
7C0001C0
780001C0
780000C0
780000C0
F80000C0
F8000000
F8000000
F8000000
F8000000
F800FFFC
F800FFFC
F80007C0
F80007C0
F80007C0
F80007C0
780007C0
780007C0
7C0007C0
3C0007C0
3C0007C0
1C0007C0
1E000FC0
0E000CC0
070018C0
038030C0
01C060C0
007F80C0
ENDCHAR
STARTCHAR 0121
ENCODING 289
SWIDTH 551 0
DWIDTH 27 0
BBX 23 43 3 -11
BITMAP
007000
00F800
00F800
00F800
007000
000000
000000
000000
000000
000000
07FC7C
1E0ECE
3C078E
7C079E
7803DE
7803C0
7803C0
7803C0
7803C0
7803C0
3C0780
1C0780
0E0E00
03F800
1C0000
600000
C00000
C00000
E00000
FFFF80
7FFFE0
0FFFF0
1C0070
300038
600018
C00018
C00018
C00018
C00030
600030
780060
1E07C0
03FE00
ENDCHAR
STARTCHAR 0122
ENCODING 290
SWIDTH 693 0
DWIDTH 34 0
BBX 30 47 3 -11
BITMAP
003F80C0
00E0E0C0
038038C0
07001DC0
0E000FC0
0E0007C0
1C0007C0
3C0003C0
3C0003C0
7C0001C0
780001C0
780000C0
780000C0
F80000C0
F8000000
F8000000
F8000000
F8000000
F800FFFC
F800FFFC
F80007C0
F80007C0
F80007C0
F80007C0
780007C0
780007C0
7C0007C0
3C0007C0
3C0007C0
1C0007C0
1E000FC0
0E000CC0
070018C0
038030C0
01C060C0
007F80C0
00000000
00000000
00070000
000F8000
000F8000
00078000
00018000
00018000
00010000
00020000
00040000
ENDCHAR
STARTCHAR 0123
ENCODING 291
SWIDTH 551 0
DWIDTH 27 0
BBX 23 47 3 -11
BITMAP
002000
004000
008000
010000
010000
030000
03E000
03F000
03F000
01F000
00E000
000000
000000
000000
07FC7C
1E0ECE
3C078E
7C079E
7803DE
7803C0
7803C0
7803C0
7803C0
7803C0
3C0780
3C0780
0E0E00
07F800
1C0000
600000
C00000
C00000
E00000
FFFF80
7FFFE0
0FFFF0
1C0070
300038
600018
C00018
C00018
C00018
C00030
600030
780060
1E07C0
03FE00
ENDCHAR
STARTCHAR 0124
ENCODING 292
SWIDTH 775 0
DWIDTH 38 0
BBX 33 45 3 0
BITMAP
0001C00000
0001C00000
0003E00000
0007700000
000E380000
00180C0000
0030070000
0040000000
0000000000
0000000000
FFFC1FFF80
07C000F800
078000F000
078000F000
078000F000
078000F000
078000F000
078000F000
078000F000
078000F000
078000F000
078000F000
078000F000
078000F000
078000F000
078000F000
07FFFFF000
07FFFFF000
078000F000
078000F000
078000F000
078000F000
078000F000
078000F000
078000F000
078000F000
078000F000
078000F000
078000F000
078000F000
078000F000
078000F000
078000F000
07C000F800
FFFC1FFF80
ENDCHAR
STARTCHAR 0125
ENCODING 293
SWIDTH 551 0
DWIDTH 27 0
BBX 24 46 1 0
BITMAP
003000
003800
007800
007C00
00EC00
00C600
018300
0300C0
000000
000000
000000
FF0000
0F0000
0F0000
0F0000
0F0000
0F0000
0F0000
0F0000
0F0000
0F0000
0F0000
0F0000
0F0000
0F0FC0
0F30F0
0F6070
0F4078
0F8078
0F8078
0F0078
0F0078
0F0078
0F0078
0F0078
0F0078
0F0078
0F0078
0F0078
0F0078
0F0078
0F0078
0F0078
0F0078
0F0078
FFC3FF
ENDCHAR
STARTCHAR 0126
ENCODING 294
SWIDTH 816 0
DWIDTH 40 0
BBX 35 35 3 0
BITMAP
7FFE0FFFC0
07E000FC00
03C0007800
03C0007800
03C0007800
03C0007800
03C0007800
03C0007800
03C0007800
FFFFFFFFE0
03C0007800
03C0007800
03C0007800
03C0007800
03C0007800
03C0007800
03FFFFF800
03C0007800
03C0007800
03C0007800
03C0007800
03C0007800
03C0007800
03C0007800
03C0007800
03C0007800
03C0007800
03C0007800
03C0007800
03C0007800
03C0007800
03C0007800
03C0007800
07C0007C00
7FFE0FFFC0
ENDCHAR
STARTCHAR 0127
ENCODING 295
SWIDTH 551 0
DWIDTH 27 0
BBX 24 35 1 0
BITMAP
FF0000
0F0000
0F0000
0F0000
0F0000
0F0000
FFFF80
0F0000
0F0000
0F0000
0F0000
0F0000
0F0000
0F0FC0
0F30F0
0F6070
0F4078
0F8078
0F8078
0F0078
0F0078
0F0078
0F0078
0F0078
0F0078
0F0078
0F0078
0F0078
0F0078
0F0078
0F0078
0F0078
0F0078
0F0078
FFC3FF
ENDCHAR
STARTCHAR 0128
ENCODING 296
SWIDTH 387 0
DWIDTH 19 0
BBX 14 45 3 0
BITMAP
3C04
7F84
FFFC
C7FC
80F8
0000
0000
0000
0000
0000
FFFC
FFFC
0780
0780
0780
0780
0780
0780
0780
0780
0780
0780
0780
0780
0780
0780
0780
0780
0780
0780
0780
0780
0780
0780
0780
0780
0780
0780
0780
0780
0780
0780
0780
07C0
FFFC
ENDCHAR
STARTCHAR 0129
ENCODING 297
SWIDTH 265 0
DWIDTH 13 0
BBX 13 32 0 0
BITMAP
3C08
7F88
FFF8
C7F0
80E0
0000
0000
0000
0000
0000
3F80
0780
0780
0780
0780
0780
0780
0780
0780
0780
0780
0780
0780
0780
0780
0780
0780
0780
0780
0780
0780
3FF0
ENDCHAR
STARTCHAR 012A
ENCODING 298
SWIDTH 387 0
DWIDTH 19 0
BBX 14 42 3 0
BITMAP
7FFC
7FFC
0000
0000
0000
0000
0000
FFFC
07C0
0780
0780
0780
0780
0780
0780
0780
0780
0780
0780
0780
0780
0780
0780
0780
0780
0780
0780
0780
0780
0780
0780
0780
0780
0780
0780
0780
0780
0780
0780
0780
07C0
FFFC
ENDCHAR
STARTCHAR 012B
ENCODING 299
SWIDTH 306 0
DWIDTH 15 0
BBX 13 30 1 0
BITMAP
FFF8
FFF8
0000
0000
0000
0000
0000
0000
3F80
0780
0780
0780
0780
0780
0780
0780
0780
0780
0780
0780
0780
0780
0780
0780
0780
0780
0780
0780
0780
3FF0
ENDCHAR
STARTCHAR 012C
ENCODING 300
SWIDTH 408 0
DWIDTH 20 0
BBX 15 45 3 0
BITMAP
8006
C00E
C00E
601C
3838
1FF0
0FE0
0000
0000
0000
FFFC
FFFC
0780
0780
0780
0780
0780
0780
0780
0780
0780
0780
0780
0780
0780
0780
0780
0780
0780
0780
0780
0780
0780
0780
0780
0780
0780
0780
0780
0780
0780
0780
0780
07C0
FFFC
ENDCHAR
STARTCHAR 012D
ENCODING 301
SWIDTH 285 0
DWIDTH 14 0
BBX 14 33 0 0
BITMAP
8004
800C
C00C
6018
3030
1FE0
0FC0
0000
0000
0000
0000
3F80
0780
0780
0780
0780
0780
0780
0780
0780
0780
0780
0780
0780
0780
0780
0780
0780
0780
0780
0780
0780
3FF0
ENDCHAR
STARTCHAR 012E
ENCODING 302
SWIDTH 387 0
DWIDTH 19 0
BBX 14 46 3 -11
BITMAP
FFFC
07C0
0780
0780
0780
0780
0780
0780
0780
0780
0780
0780
0780
0780
0780
0780
0780
0780
0780
0780
0780
0780
0780
0780
0780
0780
0780
0780
0780
0780
0780
0780
0780
07C0
FFFC
0030
00E0
0180
0380
0300
0700
0700
0700
0784
03F8
01F0
ENDCHAR
STARTCHAR 012F
ENCODING 303
SWIDTH 285 0
DWIDTH 14 0
BBX 10 44 2 -11
BITMAP
1C00
3E00
3E00
3E00
1C00
0000
0000
0000
0000
0000
0000
FE00
1E00
1E00
1E00
1E00
1E00
1E00
1E00
1E00
1E00
1E00
1E00
1E00
1E00
1E00
1E00
1E00
1E00
1E00
1E00
1E00
FFC0
0300
0600
0C00
1800
3000
7000
7000
7040
7980
3F80
1E00
ENDCHAR
STARTCHAR 0130
ENCODING 304
SWIDTH 387 0
DWIDTH 19 0
BBX 14 44 3 0
BITMAP
0380
07C0
07C0
07C0
0380
0000
0000
0000
0000
FFFC
07C0
0780
0780
0780
0780
0780
0780
0780
0780
0780
0780
0780
0780
0780
0780
0780
0780
0780
0780
0780
0780
0780
0780
0780
0780
0780
0780
0780
0780
0780
0780
0780
07C0
FFFC
ENDCHAR
STARTCHAR 0131
ENCODING 305
SWIDTH 285 0
DWIDTH 14 0
BBX 10 22 2 0
BITMAP
FE00
1E00
1E00
1E00
1E00
1E00
1E00
1E00
1E00
1E00
1E00
1E00
1E00
1E00
1E00
1E00
1E00
1E00
1E00
1E00
1E00
FFC0
ENDCHAR
STARTCHAR 0132
ENCODING 306
SWIDTH 877 0
DWIDTH 43 0
BBX 38 35 3 0
BITMAP
FFFC00FFFC
07C00007C0
0780000780
0780000780
0780000780
0780000780
0780000780
0780000780
0780000780
0780000780
0780000780
0780000780
0780000780
0780000780
0780000780
0780000780
0780000780
0780000780
0780000780
0780000780
0780000780
0780000780
0780000780
0780000780
0780380780
07807C0780
0780FC0780
0780FC0780
0780FC0780
0780E00780
0780E00700
0780600F00
0780700E00
07C0381C00
FFFC0FF000
ENDCHAR
STARTCHAR 0133
ENCODING 307
SWIDTH 551 0
DWIDTH 27 0
BBX 20 45 2 -11
BITMAP
1C00E0
3E01F0
3E01F0
3E01F0
1C00E0
000000
000000
000000
000000
000000
000000
000000
FE1FF0
1E00F0
1E00F0
1E00F0
1E00F0
1E00F0
1E00F0
1E00F0
1E00F0
1E00F0
1E00F0
1E00F0
1E00F0
1E00F0
1E00F0
1E00F0
1E00F0
1E00F0
1E00F0
1E00F0
1E00F0
FFC0F0
0000F0
0000F0
0000F0
0000F0
00E0F0
01E0F0
01E0E0
01C1E0
01C1C0
00C780
003E00
ENDCHAR
STARTCHAR 0134
ENCODING 308
SWIDTH 551 0
DWIDTH 27 0
BBX 23 46 2 0
BITMAP
000180
000380
0003C0
0007E0
000E70
001C38
00301C
006006
000000
000000
000000
007FFE
0007C0
0003C0
0003C0
0003C0
0003C0
0003C0
0003C0
0003C0
0003C0
0003C0
0003C0
0003C0
0003C0
0003C0
0003C0
0003C0
0003C0
0003C0
0003C0
0003C0
0003C0
0003C0
0003C0
3C03C0
7E03C0
FE03C0
FE03C0
FC03C0
E00380
E00780
600700
700E00
381C00
0FF800
ENDCHAR
STARTCHAR 0135
ENCODING 309
SWIDTH 326 0
DWIDTH 16 0
BBX 17 45 -2 -11
BITMAP
003000
007000
007800
00F800
00FC00
01CC00
030600
060300
0C0080
000000
000000
000000
0FF800
007800
007800
007800
007800
007800
007800
007800
007800
007800
007800
007800
007800
007800
007800
007800
007800
007800
007800
007800
007800
007800
007800
007800
007800
007800
F07800
F07800
F07000
E0F000
60E000
73C000
1F0000
ENDCHAR
STARTCHAR 0136
ENCODING 310
SWIDTH 755 0
DWIDTH 37 0
BBX 32 46 3 -11
BITMAP
FFFC3FFE
07C00FF0
078007C0
07800380
07800700
07800600
07800C00
07801C00
07803800
07807000
0780E000
0781C000
07818000
07838000
07878000
078FC000
079FE000
07B3E000
07E3F000
07C1F000
0780F800
0780F800
07807C00
07807C00
07803E00
07803E00
07801F00
07801F00
07800F80
07800FC0
078007C0
078007E0
078003E0
07C007F8
FFFC7FFF
00000000
00000000
00038000
0007C000
0007C000
0003C000
0000C000
0000C000
00008000
00010000
00020000
ENDCHAR
STARTCHAR 0137
ENCODING 311
SWIDTH 489 0
DWIDTH 24 0
BBX 22 46 1 -11
BITMAP
FE0000
1E0000
1E0000
1E0000
1E0000
1E0000
1E0000
1E0000
1E0000
1E0000
1E0000
1E0000
1E0000
1E0FFC
1E03E0
1E0180
1E0300
1E0200
1E0600
1E0C00
1E1800
1E3000
1E7800
1EF800
1EBC00
1FBE00
1F1E00
1E0F00
1E0F80
1E0780
1E03C0
1E03E0
1E01E0
1E03F0
FFCFFC
000000
000000
003800
007C00
007C00
003C00
000C00
000C00
000800
001000
002000
ENDCHAR
STARTCHAR 0138
ENCODING 312
SWIDTH 510 0
DWIDTH 25 0
BBX 22 22 2 0
BITMAP
FE1FF8
1E03C0
1E0300
1E0200
1E0400
1E0C00
1E0800
1E1000
1E2000
1E7000
1EF000
1EF800
1F3C00
1E3E00
1E1E00
1E0F00
1E0F80
1E0780
1E03C0
1E03E0
1E03F0
FF8FFC
ENDCHAR
STARTCHAR 0139
ENCODING 313
SWIDTH 673 0
DWIDTH 33 0
BBX 27 46 3 0
BITMAP
000E0000
001E0000
003E0000
003C0000
00700000
00E00000
00C00000
01800000
00000000
00000000
00000000
FFFE0000
FFFE0000
07800000
07800000
07800000
07800000
07800000
07800000
07800000
07800000
07800000
07800000
07800000
07800000
07800000
07800000
07800000
07800000
07800000
07800000
07800000
07800000
07800020
07800060
07800060
07800060
07800060
078000E0
078000E0
078000E0
078001E0
078003E0
078007E0
FFFFFFE0
FFFFFFE0
ENDCHAR
STARTCHAR 013A
ENCODING 314
SWIDTH 265 0
DWIDTH 13 0
BBX 12 46 1 0
BITMAP
0070
00F0
01F0
01E0
0380
0700
0E00
0800
0000
0000
0000
FE00
1E00
1E00
1E00
1E00
1E00
1E00
1E00
1E00
1E00
1E00
1E00
1E00
1E00
1E00
1E00
1E00
1E00
1E00
1E00
1E00
1E00
1E00
1E00
1E00
1E00
1E00
1E00
1E00
1E00
1E00
1E00
1E00
1E00
FFE0
ENDCHAR
STARTCHAR 013B
ENCODING 315
SWIDTH 673 0
DWIDTH 33 0
BBX 27 46 3 -11
BITMAP
FFFE0000
07C00000
07800000
07800000
07800000
07800000
07800000
07800000
07800000
07800000
07800000
07800000
07800000
07800000
07800000
07800000
07800000
07800000
07800000
07800000
07800000
07800000
07800040
07800060
07800060
07800060
07800060
078000E0
078000E0
078000E0
078001E0
078003E0
078007E0
FFFFFFE0
FFFFFFE0
00000000
00000000
000E0000
001F0000
001F0000
000F0000
00030000
00030000
00020000
00040000
00080000
ENDCHAR
STARTCHAR 013C
ENCODING 316
SWIDTH 265 0
DWIDTH 13 0
BBX 11 46 1 -11
BITMAP
FE00
1E00
1E00
1E00
1E00
1E00
1E00
1E00
1E00
1E00
1E00
1E00
1E00
1E00
1E00
1E00
1E00
1E00
1E00
1E00
1E00
1E00
1E00
1E00
1E00
1E00
1E00
1E00
1E00
1E00
1E00
1E00
1E00
1E00
FFE0
0000
0000
0E00
1F00
1F00
1F00
0700
0600
0600
0400
1800
ENDCHAR
STARTCHAR 013D
ENCODING 317
SWIDTH 693 0
DWIDTH 34 0
BBX 30 35 3 0
BITMAP
FFFE0070
07C000F8
078000FC
078000FC
0780007C
0780000C
07800008
07800008
07800010
07800020
07800040
07800000
07800000
07800000
07800000
07800000
07800000
07800000
07800000
07800000
07800000
07800000
07800020
07800020
07800020
07800020
07800060
07800060
07800060
078000E0
078000E0
078001E0
078007E0
FFFFFFE0
FFFFFFE0
ENDCHAR
STARTCHAR 013E
ENCODING 318
SWIDTH 326 0
DWIDTH 16 0
BBX 15 35 1 0
BITMAP
FE38
1E3C
1E3E
1E3E
1E06
1E06
1E04
1E0C
1E08
1E10
1E60
1E00
1E00
1E00
1E00
1E00
1E00
1E00
1E00
1E00
1E00
1E00
1E00
1E00
1E00
1E00
1E00
1E00
1E00
1E00
1E00
1E00
1E00
1E00
FFE0
ENDCHAR
STARTCHAR 013F
ENCODING 319
SWIDTH 673 0
DWIDTH 33 0
BBX 27 35 3 0
BITMAP
FFFE0000
07C00000
07800000
07800000
07800000
07800000
07800000
07800000
07800000
07800000
07800000
07800000
07800000
07800380
078007C0
078007C0
078007C0
07800380
07800000
07800000
07800000
07800000
07800020
07800020
07800020
07800060
07800060
07800060
078000E0
078000E0
078001E0
078001E0
078007E0
FFFFFFE0
FFFFFFE0
ENDCHAR
STARTCHAR 0140
ENCODING 320
SWIDTH 367 0
DWIDTH 18 0
BBX 17 35 1 0
BITMAP
FE0000
1E0000
1E0000
1E0000
1E0000
1E0000
1E0000
1E0000
1E0000
1E0000
1E0000
1E0000
1E0000
1E0000
1E0700
1E0F80
1E0F80
1E0F80
1E0700
1E0000
1E0000
1E0000
1E0000
1E0000
1E0000
1E0000
1E0000
1E0000
1E0000
1E0000
1E0000
1E0000
1E0000
1E0000
FFE000
ENDCHAR
STARTCHAR 0141
ENCODING 321
SWIDTH 693 0
DWIDTH 34 0
BBX 27 35 3 0
BITMAP
FFFE0000
07C00000
07800000
07800000
07800000
07800000
07800000
07800000
07800000
07800000
07800000
07810000
07878000
079E0000
07B80000
07F00000
07C00000
07800000
1F800000
7F800000
67800000
47800000
07800020
07800060
07800060
07800060
07800060
078000E0
078000E0
078000E0
078001E0
078003E0
078007E0
FFFFFFE0
FFFFFFE0
ENDCHAR
STARTCHAR 0142
ENCODING 322
SWIDTH 265 0
DWIDTH 13 0
BBX 11 34 1 0
BITMAP
FE00
1E00
1E00
1E00
1E00
1E00
1E00
1E00
1E00
1E00
1E00
1E00
1E20
1EE0
1F80
1E00
3E00
7E00
DE00
1E00
1E00
1E00
1E00
1E00
1E00
1E00
1E00
1E00
1E00
1E00
1E00
1E00
1E00
FFE0
ENDCHAR
STARTCHAR 0143
ENCODING 323
SWIDTH 775 0
DWIDTH 38 0
BBX 33 47 3 -1
BITMAP
0000070000
00000F0000
00000F0000
00001E0000
00003C0000
0000300000
0000600000
0000C00000
0000000000
0000000000
0000000000
FFC007FF80
FFC007FF80
07E0007800
07F0003000
07F0003000
07F8003000
06F8003000
06FC003000
067E003000
063E003000
063F003000
061F003000
060F803000
060FC03000
0607C03000
0607E03000
0603E03000
0601F03000
0601F83000
0600F83000
0600FC3000
06007C3000
06003E3000
06003F3000
06001F3000
06000FB000
06000FB000
060007F000
060007F000
060003F000
060001F000
060001F000
0F0000F000
1F8000F000
FFF0007000
0000003000
ENDCHAR
STARTCHAR 0144
ENCODING 324
SWIDTH 551 0
DWIDTH 27 0
BBX 23 33 2 1
BITMAP
0001E0
0001E0
0003C0
000780
000700
000E00
001C00
001000
000000
000000
000000
FE1F80
1E61E0
1EC0E0
1E80F0
1F00F0
1F00F0
1E00F0
1E00F0
1E00F0
1E00F0
1E00F0
1E00F0
1E00F0
1E00F0
1E00F0
1E00F0
1E00F0
1E00F0
1E00F0
1E00F0
1E00F0
FFC7FE
ENDCHAR
STARTCHAR 0145
ENCODING 325
SWIDTH 775 0
DWIDTH 38 0
BBX 33 46 3 -11
BITMAP
FFC007FF80
07C000FC00
07E0007800
07F0003000
07F0003000
07F8003000
06F8003000
067C003000
067E003000
063E003000
061F003000
061F003000
060F803000
060FC03000
0607C03000
0603E03000
0603E03000
0601F03000
0601F83000
0600F83000
06007C3000
06007C3000
06003E3000
06003F3000
06001F3000
06000FB000
06000FB000
060007F000
060003F000
060003F000
060001F000
060001F000
0F0000F000
1F80007000
FFF0007000
0000003000
0000000000
0000E00000
0001F00000
0001F00000
0000F00000
0000300000
0000300000
0000200000
0000400000
0000800000
ENDCHAR
STARTCHAR 0146
ENCODING 326
SWIDTH 551 0
DWIDTH 27 0
BBX 23 33 2 -10
BITMAP
FE1F80
1E61E0
1EC0E0
1E80F0
1F00F0
1F00F0
1E00F0
1E00F0
1E00F0
1E00F0
1E00F0
1E00F0
1E00F0
1E00F0
1E00F0
1E00F0
1E00F0
1E00F0
1E00F0
1E00F0
1E00F0
FFC7FE
000000
000000
003800
007C00
007C00
003C00
000C00
000C00
000800
001000
002000
ENDCHAR
STARTCHAR 0147
ENCODING 327
SWIDTH 775 0
DWIDTH 38 0
BBX 33 46 3 -1
BITMAP
0030018000
0018030000
000C0E0000
00071C0000
0003F80000
0003F00000
0001E00000
0000C00000
0000000000
0000000000
FFC007FF80
07C000FC00
07E0007800
07F0003000
07F0003000
07F8003000
06F8003000
067C003000
067E003000
063E003000
061F003000
061F003000
060F803000
060FC03000
0607C03000
0603E03000
0603E03000
0601F03000
0601F83000
0600F83000
06007C3000
06007C3000
06003E3000
06003F3000
06001F3000
06000FB000
06000FB000
060007F000
060007F000
060003F000
060001F000
060001F000
0F0000F000
1F80007000
FFF0007000
0000003000
ENDCHAR
STARTCHAR 0148
ENCODING 328
SWIDTH 551 0
DWIDTH 27 0
BBX 23 33 2 0
BITMAP
060040
030180
018380
00C700
00EE00
007C00
003C00
003800
000000
000000
000000
FE1F80
1E61E0
1EC0E0
1E80F0
1F00F0
1F00F0
1E00F0
1E00F0
1E00F0
1E00F0
1E00F0
1E00F0
1E00F0
1E00F0
1E00F0
1E00F0
1E00F0
1E00F0
1E00F0
1E00F0
1E00F0
FFC7FE
ENDCHAR
STARTCHAR 0149
ENCODING 329
SWIDTH 693 0
DWIDTH 34 0
BBX 30 35 2 0
BITMAP
70000000
F8000000
FC000000
FC000000
7C000000
0C000000
08000000
08000000
10000000
20000000
40000000
00000000
00000000
01FC3F00
003CC3C0
003D81C0
003D01E0
003E01E0
003E01E0
003C01E0
003C01E0
003C01E0
003C01E0
003C01E0
003C01E0
003C01E0
003C01E0
003C01E0
003C01E0
003C01E0
003C01E0
003C01E0
003C01E0
003C01E0
01FF8FFC
ENDCHAR
STARTCHAR 014A
ENCODING 330
SWIDTH 775 0
DWIDTH 38 0
BBX 33 46 3 -11
BITMAP
FFC007FF80
07C000FC00
07E0007800
07F0003000
07F0003000
07F8003000
06F8003000
067C003000
067E003000
063E003000
061F003000
061F003000
060F803000
060FC03000
0607C03000
0603E03000
0603E03000
0601F03000
0601F83000
0600F83000
06007C3000
06007C3000
06003E3000
06003F3000
06001F3000
06000FB000
06000FB000
060007F000
060003F000
060003F000
060001F000
060001F000
0F0000F000
1F80007000
FFF0007000
0000003000
0000003000
0000003000
0000003000
0000003000
0000603000
0000E03000
0000F06000
0000F06000
00007FC000
00001F0000
ENDCHAR
STARTCHAR 014B
ENCODING 331
SWIDTH 530 0
DWIDTH 26 0
BBX 20 33 2 -10
BITMAP
FE1F80
1E61E0
1EC0E0
1E80F0
1F00F0
1F00F0
1E00F0
1E00F0
1E00F0
1E00F0
1E00F0
1E00F0
1E00F0
1E00F0
1E00F0
1E00F0
1E00F0
1E00F0
1E00F0
1E00F0
1E00F0
FFC0F0
0000F0
0000F0
0000F0
0000F0
0000F0
0100E0
0380E0
03C1C0
03C180
01E700
007C00
ENDCHAR
STARTCHAR 014C
ENCODING 332
SWIDTH 673 0
DWIDTH 33 0
BBX 28 43 3 0
BITMAP
00FFF800
00FFF800
00000000
00000000
00000000
00000000
00000000
001F8000
00F0F000
01C03800
03801C00
07000E00
0E000700
1E000780
1C000380
3C0003C0
3C0003C0
7C0003E0
780001E0
780001E0
F80001E0
F80001F0
F80001F0
F80001F0
F80001F0
F80001F0
F80001F0
F80001F0
F80001F0
F80001F0
780001E0
780001E0
7C0003E0
7C0003E0
3C0003C0
3C0003C0
1E000780
0E000700
0E000F00
07000E00
03801C00
00E07000
007FE000
ENDCHAR
STARTCHAR 014D
ENCODING 333
SWIDTH 489 0
DWIDTH 24 0
BBX 19 30 2 0
BITMAP
1FFF00
1FFF00
000000
000000
000000
000000
000000
000000
03FC00
0E0E00
1C0700
3C0380
3803C0
7803C0
7801E0
F801E0
F001E0
F001E0
F001E0
F001E0
F001E0
F001E0
F001E0
7801E0
7803C0
3803C0
3C0380
1C0700
0E0E00
03FC00
ENDCHAR
STARTCHAR 014E
ENCODING 334
SWIDTH 673 0
DWIDTH 33 0
BBX 28 46 3 0
BITMAP
01000400
01800C00
01800C00
00C01800
00E03800
00707000
003FE000
001FC000
00000000
00000000
001F8000
00FFF000
01C03800
03801C00
07000E00
0E000700
1E000780
1E000780
3C0003C0
3C0003C0
7C0003E0
7C0003E0
780001E0
F80001F0
F80001F0
F80001F0
F80001F0
F80001F0
F80001F0
F80001F0
F80001F0
F80001F0
F80001F0
780001E0
780001E0
780003E0
7C0003C0
3C0003C0
3C0003C0
1E000780
0E000700
0E000700
07000E00
03801C00
00C03000
007FE000
ENDCHAR
STARTCHAR 014F
ENCODING 335
SWIDTH 489 0
DWIDTH 24 0
BBX 19 33 2 0
BITMAP
100180
100180
080300
0C0300
060E00
03FC00
01F800
000000
000000
000000
000000
03FC00
0E0E00
1C0700
3C0380
3803C0
7803C0
7801E0
F801E0
F001E0
F001E0
F001E0
F001E0
F001E0
F001E0
F001E0
7801E0
7803C0
3803C0
3C0380
1C0700
0E0E00
03FC00
ENDCHAR
STARTCHAR 0150
ENCODING 336
SWIDTH 673 0
DWIDTH 33 0
BBX 28 46 3 1
BITMAP
0003C700
0003CF00
00078F00
000F1E00
000E3800
001C3000
00306000
0020C000
00000000
00000000
001F8000
00FFF000
01C03800
03801C00
07000E00
0E000700
1E000780
1E000780
3C0003C0
3C0003C0
7C0003E0
7C0003E0
780001E0
F80001F0
F80001F0
F80001F0
F80001F0
F80001F0
F80001F0
F80001F0
F80001F0
F80001F0
F80001F0
780001E0
780001E0
780003E0
7C0003C0
3C0003C0
3C0003C0
1E000780
0E000700
0E000700
07000E00
03801C00
00C03000
007FE000
ENDCHAR
STARTCHAR 0151
ENCODING 337
SWIDTH 489 0
DWIDTH 24 0
BBX 20 33 2 1
BITMAP
003870
0078F0
0079E0
00F1C0
01C380
018700
030600
060800
000000
000000
000000
03FC00
0E0E00
1C0700
3C0380
3803C0
7803C0
7801E0
F801E0
F001E0
F001E0
F001E0
F001E0
F001E0
F001E0
F001E0
7801E0
7803C0
3803C0
3C0380
1C0700
0E0E00
03FC00
ENDCHAR
STARTCHAR 0152
ENCODING 338
SWIDTH 1040 0
DWIDTH 51 0
BBX 45 36 3 0
BITMAP
001F80000000
00F07FFFFFF8
01C01FE003F8
03800FC000F8
070007C00078
0E0007C00038
1E0003C00018
1C0003C00018
3C0003C00018
3C0003C00008
7C0003C01008
780003C01008
780003C01000
F80003C03000
F80003C03000
F80003C03000
F80003C07000
F80003FFF000
F80003C0F000
F80003C03000
F80003C03000
F80003C01000
F80003C01008
780003C01008
780003C01008
7C0003C00008
3C0003C00018
3C0003C00018
3C0003C00018
1E0003C00018
0E0007C00038
0E0007C00038
07000FC00078
03801FC001F8
00E03FFFFFF8
007FFFFFFFF8
ENDCHAR
STARTCHAR 0153
ENCODING 339
SWIDTH 755 0
DWIDTH 37 0
BBX 32 22 2 1
BITMAP
07F80FE0
0E0E1838
1C07383C
3C07F01C
3803F01E
7803E00E
7803E00F
F803E00F
F001E00F
F001E00F
F001FFFF
F001E000
F001E000
F001E000
F803E001
7803E003
7803E002
3803F002
3C07F006
1C073804
0E0E1C18
07F80FF0
ENDCHAR
STARTCHAR 0154
ENCODING 340
SWIDTH 714 0
DWIDTH 35 0
BBX 30 46 3 0
BITMAP
00003000
00007000
0000F000
0001E000
0003C000
00038000
00060000
000C0000
00000000
00000000
00000000
FFFFF800
FFFFFE00
07801F80
078007C0
078007C0
078003E0
078003E0
078003E0
078003E0
078003E0
078003C0
078007C0
07800780
07800F00
07803C00
07FFE000
0780F000
07803800
07801C00
07801E00
07801E00
07801F00
07800F00
07800F00
07800F00
07800F00
07800F80
07800F84
07800F84
07800F84
07800F84
07800F8C
078007F8
07C007F8
FFFE03F0
ENDCHAR
STARTCHAR 0155
ENCODING 341
SWIDTH 408 0
DWIDTH 20 0
BBX 17 33 2 1
BITMAP
000700
000700
000F00
001E00
001C00
003800
003000
004000
000000
000000
000000
FE1F00
1E2380
1E4380
1ECF80
1E8F80
1F8F00
1F0200
1F0000
1F0000
1E0000
1E0000
1E0000
1E0000
1E0000
1E0000
1E0000
1E0000
1E0000
1E0000
1E0000
1E0000
FFC000
ENDCHAR
STARTCHAR 0156
ENCODING 342
SWIDTH 714 0
DWIDTH 35 0
BBX 30 46 3 -11
BITMAP
FFFFF800
07C03E00
07800F80
078007C0
078007C0
078003E0
078003E0
078003E0
078003E0
078003E0
078003C0
078007C0
07800780
07800F00
07803C00
07FFE000
0780E000
07803800
07803C00
07801E00
07801E00
07801E00
07801F00
07801F00
07801F00
07801F00
07801F00
07801F84
07800F84
07800F84
07800F84
07800F8C
07800FF8
07C007F8
FFFE03F0
00000000
00000000
00038000
0007C000
0007C000
0003C000
0000C000
0000C000
00008000
00010000
00020000
ENDCHAR
STARTCHAR 0157
ENCODING 343
SWIDTH 408 0
DWIDTH 20 0
BBX 17 33 2 -10
BITMAP
FE1F00
1E2380
1E4380
1ECF80
1E8F80
1F8F00
1F0200
1F0000
1F0000
1E0000
1E0000
1E0000
1E0000
1E0000
1E0000
1E0000
1E0000
1E0000
1E0000
1E0000
1E0000
FFC000
000000
000000
1C0000
3E0000
3E0000
1E0000
060000
060000
040000
080000
100000
ENDCHAR
STARTCHAR 0158
ENCODING 344
SWIDTH 714 0
DWIDTH 35 0
BBX 30 45 3 0
BITMAP
02001800
01803000
01C0E000
00F1C000
007F8000
003F0000
001E0000
000C0000
00000000
00000000
FFFFF800
07C03E00
07800F80
078007C0
078007C0
078003E0
078003E0
078003E0
078003E0
078003E0
078003C0
078007C0
07800780
07800F00
07803C00
07FFE000
0780F000
07803800
07801C00
07801E00
07801E00
07801F00
07800F00
07800F00
07800F00
07800F00
07800F80
07800F84
07800F84
07800F84
07800F84
07800F8C
078007F8
07C007F8
FFFE03F0
ENDCHAR
STARTCHAR 0159
ENCODING 345
SWIDTH 408 0
DWIDTH 20 0
BBX 17 33 2 0
BITMAP
180100
0C0200
060E00
071C00
03B800
01F000
00F000
006000
000000
000000
000000
FE1F00
1E2380
1E4380
1ECF80
1E8F80
1F8F00
1F0200
1F0000
1F0000
1E0000
1E0000
1E0000
1E0000
1E0000
1E0000
1E0000
1E0000
1E0000
1E0000
1E0000
1E0000
FFC000
ENDCHAR
STARTCHAR 015A
ENCODING 346
SWIDTH 612 0
DWIDTH 30 0
BBX 23 46 4 1
BITMAP
000780
000780
000F00
001E00
001C00
003800
006000
004000
000000
000000
03F000
0E1C18
380718
3003F8
7001F8
6000F8
E00078
E00038
E00038
E00038
E00018
F00018
F80008
7E0008
7FC000
3FF000
1FFC00
0FFF80
03FFE0
00FFF0
801FF8
8007FC
8000FC
C0007E
C0001E
C0001E
E0000E
E0000E
F0000E
F0000E
F8000C
FC001C
CE0018
C70030
C1C1E0
807FC0
ENDCHAR
STARTCHAR 015B
ENCODING 347
SWIDTH 448 0
DWIDTH 22 0
BBX 17 33 3 1
BITMAP
000E00
001E00
003C00
007800
007000
00E000
01C000
010000
000000
000000
000000
1FE200
703200
601E00
C00E00
C00600
E00200
F00200
FC0000
7F0000
3FC000
1FF800
07FE00
80FF00
C01F00
C00780
E00380
E00180
F00180
F00180
F80300
C60700
83FC00
ENDCHAR
STARTCHAR 015C
ENCODING 348
SWIDTH 612 0
DWIDTH 30 0
BBX 23 46 4 0
BITMAP
006000
00E000
00F000
01F800
039800
060C00
0C0700
300180
000000
000000
03F000
0FFC18
3C0718
380398
7001F8
6000F8
E00078
E00078
E00038
E00038
E00018
F00018
F80018
7E0008
7F8000
3FE000
1FFC00
0FFF00
03FFC0
00FFF0
803FF8
8007F8
8001FC
C0007C
C0003E
C0001E
E0000E
E0000E
F0000E
F0000E
F8000C
FC001C
DE0018
C70030
C38060
80FFC0
ENDCHAR
STARTCHAR 015D
ENCODING 349
SWIDTH 448 0
DWIDTH 22 0
BBX 17 33 3 0
BITMAP
038000
038000
03C000
07C000
0EE000
0C7000
181800
600C00
000000
000000
000000
1FE200
703200
601E00
C00E00
C00600
E00200
F00200
FC0000
7F0000
3FC000
1FF800
07FE00
80FF00
C01F00
C00780
E00380
E00180
F00180
F00180
F80300
C60700
83FC00
ENDCHAR
STARTCHAR 015E
ENCODING 350
SWIDTH 612 0
DWIDTH 30 0
BBX 23 47 4 -11
BITMAP
03F018
0E1E18
380718
3001F8
7000F8
600078
E00078
E00038
E00038
E00018
E00018
F00008
F80008
7E0000
7FC000
3FF000
1FFC00
0FFF80
03FFE0
00FFF0
803FF8
8007FC
8001FC
C0007E
C0003E
C0001E
E0000E
E0000E
F0000E
F0000E
F8000C
FC001C
CE0018
C70030
C38060
80FFC0
001000
001000
003800
003F00
000780
0003C0
0003C0
0003C0
0103C0
018F80
007E00
ENDCHAR
STARTCHAR 015F
ENCODING 351
SWIDTH 448 0
DWIDTH 22 0
BBX 17 32 3 -9
BITMAP
1FE200
703200
601E00
C00E00
C00600
E00200
F00200
FC0000
7F0000
3FC000
1FF800
07FE00
80FF00
C01F00
C00780
E00380
E00180
F00180
F00180
F80300
C60700
83FC00
808000
008000
018000
00F000
003800
001C00
001C00
001C00
0C3800
07F000
ENDCHAR
STARTCHAR 0160
ENCODING 352
SWIDTH 612 0
DWIDTH 30 0
BBX 23 46 4 0
BITMAP
200080
180180
0C0700
070E00
07BC00
03F800
01F000
00E000
000000
000000
03F000
0E1C18
380718
3003F8
7001F8
6000F8
E00078
E00038
E00038
E00038
E00018
F00018
F80008
7E0008
7FC000
3FF000
1FFC00
0FFF80
03FFE0
00FFF0
803FF8
8007FC
8001FC
C0007E
C0003E
C0001E
E0000E
E0000E
F0000E
F0000E
F8000C
FC001C
DE0018
C70030
C38060
80FFC0
ENDCHAR
STARTCHAR 0161
ENCODING 353
SWIDTH 448 0
DWIDTH 22 0
BBX 17 33 3 0
BITMAP
400400
200C00
381800
1C7000
0EE000
07E000
07C000
038000
000000
000000
000000
1FE200
703200
601E00
C00E00
C00600
E00200
F00200
FC0000
7F0000
3FC000
1FF800
07FE00
80FF00
C01F00
C00780
E00380
E00180
F00180
F00180
F80300
C60700
83FC00
ENDCHAR
STARTCHAR 0162
ENCODING 354
SWIDTH 714 0
DWIDTH 35 0
BBX 28 46 4 -11
BITMAP
FFFFFFF0
FE0F83F0
F80F01F0
F00F00F0
E00F0070
C00F0070
C00F0030
C00F0030
C00F0030
800F0010
800F0010
800F0010
800F0010
000F0000
000F0000
000F0000
000F0000
000F0000
000F0000
000F0000
000F0000
000F0000
000F0000
000F0000
000F0000
000F0000
000F0000
000F0000
000F0000
000F0000
000F0000
000F0000
000F0000
000F8000
03FFFE00
00060000
00040000
00040000
000F8000
0001E000
0000F000
0000F000
0000F000
0040F000
0071E000
001F8000
ENDCHAR
STARTCHAR 0163
ENCODING 355
SWIDTH 346 0
DWIDTH 17 0
BBX 14 42 1 -10
BITMAP
0200
0200
0200
0200
0200
0600
0600
0600
0E00
1E00
FFF8
1E00
1E00
1E00
1E00
1E00
1E00
1E00
1E00
1E00
1E00
1E00
1E00
1E00
1E00
1E04
1E04
1E04
1E0C
0F08
0FF8
07F0
0100
0100
0100
01E0
0030
0038
0038
0038
1870
0FE0
ENDCHAR
STARTCHAR 0164
ENCODING 356
SWIDTH 714 0
DWIDTH 35 0
BBX 28 45 4 0
BITMAP
01000400
00C01800
00E07000
0078E000
003FC000
001F8000
000F0000
00060000
00000000
00000000
FFFFFFF0
FE0F83F0
F80F01F0
F00F00F0
E00F0070
C00F0070
C00F0030
C00F0030
C00F0030
800F0010
800F0010
800F0010
800F0010
000F0000
000F0000
000F0000
000F0000
000F0000
000F0000
000F0000
000F0000
000F0000
000F0000
000F0000
000F0000
000F0000
000F0000
000F0000
000F0000
000F0000
000F0000
000F0000
000F0000
000F8000
03FFFE00
ENDCHAR
STARTCHAR 0165
ENCODING 357
SWIDTH 367 0
DWIDTH 18 0
BBX 16 35 1 0
BITMAP
001C
001E
001F
021F
0203
0203
0202
0206
0604
0608
0610
0E00
1E00
FFF8
1E00
1E00
1E00
1E00
1E00
1E00
1E00
1E00
1E00
1E00
1E00
1E00
1E00
1E00
1E04
1E04
1E04
1E0C
0F08
0FF8
07F0
ENDCHAR
STARTCHAR 0166
ENCODING 358
SWIDTH 714 0
DWIDTH 35 0
BBX 28 35 4 0
BITMAP
FFFFFFF0
FC0F83F0
F80F01F0
F00F00F0
E00F0070
E00F0070
C00F0030
C00F0030
C00F0030
800F0010
800F0010
800F0010
800F0010
000F0000
000F0000
000F0000
0FFFFF00
000F0000
000F0000
000F0000
000F0000
000F0000
000F0000
000F0000
000F0000
000F0000
000F0000
000F0000
000F0000
000F0000
000F0000
000F0000
000F0000
000F8000
03FFFE00
ENDCHAR
STARTCHAR 0167
ENCODING 359
SWIDTH 346 0
DWIDTH 17 0
BBX 14 32 1 0
BITMAP
0200
0200
0200
0200
0200
0600
0600
0600
0E00
1E00
FFF8
1E00
1E00
1E00
1E00
FFF8
1E00
1E00
1E00
1E00
1E00
1E00
1E00
1E00
1E04
1E04
1E04
1E04
1E0C
0F08
0FF8
07F0
ENDCHAR
STARTCHAR 0168
ENCODING 360
SWIDTH 795 0
DWIDTH 39 0
BBX 34 45 3 0
BITMAP
0007018000
001FE18000
001FFF0000
0010FF0000
00301C0000
0000000000
0000000000
0000000000
0000000000
FFFC03FFC0
FFFC03FFC0
07C0007E00
0780003C00
0780001800
0780001800
0780001800
0780001800
0780001800
0780001800
0780001800
0780001800
0780001800
0780001800
0780001800
0780001800
0780001800
0780001800
0780001800
0780001800
0780001800
0780001800
0780001800
0780001800
0780001800
0780001800
0780001800
0780001800
03C0001800
03C0003000
01C0003000
01E0006000
00E0006000
007000C000
003C038000
000FFE0000
ENDCHAR
STARTCHAR 0169
ENCODING 361
SWIDTH 551 0
DWIDTH 27 0
BBX 23 32 2 0
BITMAP
01E040
07F8C0
07FF80
043F80
040F00
000000
000000
000000
000000
000000
FE07F0
1E00F0
1E00F0
1E00F0
1E00F0
1E00F0
1E00F0
1E00F0
1E00F0
1E00F0
1E00F0
1E00F0
1E00F0
1E00F0
1E00F0
1E01F0
1E01F0
1E01F0
1E02F0
0E06F0
0F0CF0
03F0FE
ENDCHAR
STARTCHAR 016A
ENCODING 362
SWIDTH 795 0
DWIDTH 39 0
BBX 34 43 3 0
BITMAP
001FFF0000
001FFF0000
0000000000
0000000000
0000000000
0000000000
0000000000
0000000000
FFFC03FFC0
07C0007E00
0780003C00
0780001800
0780001800
0780001800
0780001800
0780001800
0780001800
0780001800
0780001800
0780001800
0780001800
0780001800
0780001800
0780001800
0780001800
0780001800
0780001800
0780001800
0780001800
0780001800
0780001800
0780001800
0780001800
0780001800
0780001800
03C0001800
03C0003000
03C0003000
01E0006000
00E0006000
007000C000
003C038000
000FFE0000
ENDCHAR
STARTCHAR 016B
ENCODING 363
SWIDTH 551 0
DWIDTH 27 0
BBX 23 30 2 0
BITMAP
07FFC0
07FFC0
000000
000000
000000
000000
000000
000000
FE07F0
1E00F0
1E00F0
1E00F0
1E00F0
1E00F0
1E00F0
1E00F0
1E00F0
1E00F0
1E00F0
1E00F0
1E00F0
1E00F0
1E00F0
1E01F0
1E01F0
1E01F0
1E02F0
0E06F0
0F0CF0
03F0FE
ENDCHAR
STARTCHAR 016C
ENCODING 364
SWIDTH 795 0
DWIDTH 39 0
BBX 34 46 3 0
BITMAP
0020018000
0030018000
0030018000
0018030000
0018070000
000E0E0000
0007FC0000
0003F80000
0000000000
0000000000
FFFC03FFC0
FFFC03FFC0
07C0007E00
0780003C00
0780001800
0780001800
0780001800
0780001800
0780001800
0780001800
0780001800
0780001800
0780001800
0780001800
0780001800
0780001800
0780001800
0780001800
0780001800
0780001800
0780001800
0780001800
0780001800
0780001800
0780001800
0780001800
0780001800
0780001800
03C0001800
03C0003000
01C0003000
01E0006000
00E0006000
007000C000
003C038000
000FFE0000
ENDCHAR
STARTCHAR 016D
ENCODING 365
SWIDTH 551 0
DWIDTH 27 0
BBX 23 33 2 0
BITMAP
0C0040
0C00C0
040080
060180
030300
01FE00
00FC00
000000
000000
000000
000000
FE07F0
1E00F0
1E00F0
1E00F0
1E00F0
1E00F0
1E00F0
1E00F0
1E00F0
1E00F0
1E00F0
1E00F0
1E00F0
1E00F0
1E00F0
1E01F0
1E01F0
1E01F0
1E02F0
0E06F0
0F0CF0
03F0FE
ENDCHAR
STARTCHAR 016E
ENCODING 366
SWIDTH 795 0
DWIDTH 39 0
BBX 34 47 3 0
BITMAP
0001F00000
0003180000
00060C0000
0004040000
0004040000
0004040000
00060C0000
0003180000
0001F00000
0000000000
0000000000
0000000000
FFFC03FFC0
07C0007E00
0780003C00
0780001800
0780001800
0780001800
0780001800
0780001800
0780001800
0780001800
0780001800
0780001800
0780001800
0780001800
0780001800
0780001800
0780001800
0780001800
0780001800
0780001800
0780001800
0780001800
0780001800
0780001800
0780001800
0780001800
0780001800
03C0001800
03C0003000
03C0003000
01E0006000
00E0006000
007000C000
003C038000
000FFE0000
ENDCHAR
STARTCHAR 016F
ENCODING 367
SWIDTH 551 0
DWIDTH 27 0
BBX 23 34 2 0
BITMAP
007800
018600
030200
020100
020100
020100
030300
018600
00FC00
000000
000000
000000
FE07F0
1E00F0
1E00F0
1E00F0
1E00F0
1E00F0
1E00F0
1E00F0
1E00F0
1E00F0
1E00F0
1E00F0
1E00F0
1E00F0
1E00F0
1E01F0
1E01F0
1E01F0
1E02F0
0E06F0
0F0CF0
03F0FE
ENDCHAR
STARTCHAR 0170
ENCODING 368
SWIDTH 795 0
DWIDTH 39 0
BBX 34 46 3 1
BITMAP
000038F000
000079F000
0000F1E000
0000E3C000
0001C70000
0003860000
00020C0000
0004180000
0000000000
0000000000
FFFC03FFC0
FFFC03FFC0
07C0007E00
0780003C00
0780001800
0780001800
0780001800
0780001800
0780001800
0780001800
0780001800
0780001800
0780001800
0780001800
0780001800
0780001800
0780001800
0780001800
0780001800
0780001800
0780001800
0780001800
0780001800
0780001800
0780001800
0780001800
0780001800
0780001800
03C0001800
03C0003000
01C0003000
01E0006000
00E0006000
007000C000
003C038000
000FFE0000
ENDCHAR
STARTCHAR 0171
ENCODING 369
SWIDTH 530 0
DWIDTH 26 0
BBX 23 33 2 1
BITMAP
000E38
001E78
003C78
0038F0
0071E0
00E180
00C300
018600
000000
000000
000000
FE07F0
1E00F0
1E00F0
1E00F0
1E00F0
1E00F0
1E00F0
1E00F0
1E00F0
1E00F0
1E00F0
1E00F0
1E00F0
1E00F0
1E00F0
1E01F0
1E01F0
1E01F0
1E02F0
0E06F0
0F0CF0
03F0FE
ENDCHAR
STARTCHAR 0172
ENCODING 370
SWIDTH 795 0
DWIDTH 39 0
BBX 34 46 3 -11
BITMAP
FFFC03FFC0
07C0007E00
0780003C00
0780001800
0780001800
0780001800
0780001800
0780001800
0780001800
0780001800
0780001800
0780001800
0780001800
0780001800
0780001800
0780001800
0780001800
0780001800
0780001800
0780001800
0780001800
0780001800
0780001800
0780001800
0780001800
0780001800
0780001800
03C0001800
03C0003000
03C0003000
01E0006000
00E0004000
0070008000
003C030000
000FFC0000
0000180000
0000300000
0000600000
0000C00000
0001C00000
0001C00000
0001C00000
0001C00000
0001E20000
0000FE0000
0000780000
ENDCHAR
STARTCHAR 0173
ENCODING 371
SWIDTH 551 0
DWIDTH 27 0
BBX 23 33 2 -11
BITMAP
FE07F0
1E00F0
1E00F0
1E00F0
1E00F0
1E00F0
1E00F0
1E00F0
1E00F0
1E00F0
1E00F0
1E00F0
1E00F0
1E00F0
1E00F0
1E01F0
1E01F0
1E01F0
1E02F0
0E06F0
0F0CF0
03F0FE
000018
000030
000060
0000C0
000180
000380
000380
000382
0003C6
0001FC
0000F0
ENDCHAR
STARTCHAR 0174
ENCODING 372
SWIDTH 1061 0
DWIDTH 52 0
BBX 49 47 2 -1
BITMAP
000001C0000000
000001C0000000
000003E0000000
000007F0000000
00000E30000000
00001C1C000000
0000300E000000
00006003000000
00000000000000
00000000000000
00000000000000
FFFE7FFF0FFF80
0FF00FF801F800
03E003F000F000
03E003E0006000
03E003F0006000
01F003F0006000
01F003F000C000
01F003F000C000
00F007F800C000
00F806F8008000
00F806F8018000
00F8067C018000
00780E7C018000
007C0C7C030000
007C0C3E030000
003C1C3E030000
003C183E060000
003C181E060000
003E181F060000
001E381F0C0000
001E301F0C0000
001E300F8C0000
000F300F980000
000F700F980000
000F6007D80000
000F6007D00000
0007E007F00000
0007C003F00000
0007C003F00000
0003C003E00000
0003C003E00000
00038001E00000
00018001C00000
00018001C00000
00018000C00000
00010000800000
ENDCHAR
STARTCHAR 0175
ENCODING 373
SWIDTH 775 0
DWIDTH 38 0
BBX 36 34 1 -1
BITMAP
0000600000
0000F00000
0000F00000
0000F80000
0001980000
00030C0000
0006060000
000C010000
0000000000
0000000000
0000000000
FFE7FF1FF0
1F01F80780
1F00F00300
0F00780300
0F00780200
0780780600
0780FC0600
0380FC0400
03C0BC0C00
03C09E0C00
01E19E0800
01E10E1800
00E10F1800
00F30F1000
00F2073000
007207B000
007E07A000
003E03E000
003C03C000
001C01C000
001C01C000
0018018000
0008008000
ENDCHAR
STARTCHAR 0176
ENCODING 374
SWIDTH 714 0
DWIDTH 35 0
BBX 32 45 2 0
BITMAP
0000C000
0001E000
0003F000
00033800
00061C00
001C0600
00300380
00000080
00000000
00000000
FFFE0FFF
0FE001F8
07E000F0
03E00060
03F00040
01F000C0
01F80080
00F80080
007C0100
007C0300
003E0200
003E0600
001F0400
000F8C00
000F8800
0007D800
0007D000
0003F000
0001E000
0001E000
0001E000
0001E000
0001E000
0001E000
0001E000
0001E000
0001E000
0001E000
0001E000
0001E000
0001E000
0001E000
0001E000
007FFFC0
007FFFC0
ENDCHAR
STARTCHAR 0177
ENCODING 375
SWIDTH 530 0
DWIDTH 26 0
BBX 24 45 1 -11
BITMAP
000C00
001C00
001C00
003E00
003600
007300
00E180
0080C0
030060
000000
000000
000000
FFE1FF
1F0078
0F0030
0F0030
070020
078060
078060
03C040
03C0C0
03C0C0
01E080
01E180
00E180
00F180
00F100
007300
007B00
007A00
003E00
003E00
003C00
001C00
001C00
001800
001800
001800
183000
3C3000
3C3000
3C6000
386000
1FC000
0F0000
ENDCHAR
STARTCHAR 0178
ENCODING 376
SWIDTH 714 0
DWIDTH 35 0
BBX 32 44 2 0
BITMAP
001C0700
003E0F80
003E0F80
003E0F80
001C0700
00000000
00000000
00000000
00000000
FFFE0FFF
0FF001F8
07E000F0
03E00060
03F00040
01F000C0
01F80080
00F80080
00FC0100
007C0300
003E0200
003E0600
001F0400
001F8C00
000F8800
0007D800
0007D000
0003F000
0003E000
0001E000
0001E000
0001E000
0001E000
0001E000
0001E000
0001E000
0001E000
0001E000
0001E000
0001E000
0001E000
0001E000
0001E000
0001F000
007FFFC0
ENDCHAR
STARTCHAR 0179
ENCODING 377
SWIDTH 653 0
DWIDTH 32 0
BBX 26 46 3 0
BITMAP
00001800
00003800
00007800
0000F000
0000E000
0001C000
00030000
00060000
00000000
00000000
00000000
3FFFFFC0
3FFFFFC0
3F000F80
3E001F00
3C001F00
38003E00
30007C00
30007C00
6000F800
6001F800
6001F000
4003E000
4007E000
0007C000
000F8000
000F8000
001F0000
003F0000
003E0000
007C0000
00FC0000
00F80040
01F00040
01F00040
03E000C0
07C000C0
07C000C0
0F8001C0
1F8001C0
1F0003C0
3E0003C0
7E0007C0
7C000F80
F8003F80
FFFFFF80
ENDCHAR
STARTCHAR 017A
ENCODING 378
SWIDTH 448 0
DWIDTH 22 0
BBX 17 33 2 1
BITMAP
000700
000F00
001F00
001C00
003800
007000
006000
008000
000000
000000
000000
FFFF80
F80780
E00F00
E01F00
C01E00
C03C00
807C00
807800
00F000
01F000
01E000
03C000
07C000
078080
0F0080
1F0080
1E0080
3C0180
7C0180
780380
F00F80
FFFF80
ENDCHAR
STARTCHAR 017B
ENCODING 379
SWIDTH 653 0
DWIDTH 32 0
BBX 26 44 3 0
BITMAP
00070000
000F8000
000F8000
000F8000
00070000
00000000
00000000
00000000
00000000
1FFFFFC0
1F800F80
3E000F80
3C001F00
38003E00
38003E00
30007C00
3000FC00
2000F800
6001F000
6001F000
4003E000
0007E000
0007C000
000F8000
001F8000
001F0000
003F0000
003E0000
007C0000
00FC0000
00F80040
01F00040
03F00040
03E000C0
07E000C0
07C000C0
0F8001C0
1F8001C0
1F0003C0
3F0003C0
7E0007C0
7C000F80
FC003F80
FFFFFF80
ENDCHAR
STARTCHAR 017C
ENCODING 380
SWIDTH 448 0
DWIDTH 22 0
BBX 17 32 2 0
BITMAP
01C000
03E000
03E000
03E000
01C000
000000
000000
000000
000000
000000
FFFF80
F80F80
E00F00
C01F00
C03E00
C03C00
807C00
80F800
00F000
01F000
01E000
03C000
07C000
078080
0F0080
1F0080
1E0180
3C0180
780180
780380
F00F80
FFFF80
ENDCHAR
STARTCHAR 017D
ENCODING 381
SWIDTH 653 0
DWIDTH 32 0
BBX 26 45 3 0
BITMAP
03000C00
01C01800
00E07000
0078E000
003FC000
001F8000
000F0000
00060000
00000000
00000000
3FFFFFC0
3F800F80
3E001F80
3C001F00
38003E00
38003E00
30007C00
3000FC00
6000F800
6001F000
4003F000
4003E000
0007C000
0007C000
000F8000
001F8000
001F0000
003E0000
007E0000
007C0000
00FC0000
00F80040
01F00040
03F00040
03E000C0
07C000C0
07C000C0
0F8001C0
1F8001C0
1F0003C0
3E0003C0
7E0007C0
7C000F80
F8003F80
FFFFFF80
ENDCHAR
STARTCHAR 017E
ENCODING 382
SWIDTH 448 0
DWIDTH 22 0
BBX 17 33 2 0
BITMAP
300300
180600
0C0C00
061800
07F800
03F000
01E000
00C000
000000
000000
000000
FFFF80
F80780
E00F00
E01F00
C01E00
C03C00
807C00
807800
00F000
01F000
01E000
03C000
07C000
078080
0F0080
1F0080
1E0080
3C0180
7C0180
780380
F00F80
FFFF80
ENDCHAR
STARTCHAR 017F
ENCODING 383
SWIDTH 326 0
DWIDTH 16 0
BBX 16 35 1 0
BITMAP
00F8
03C6
0703
0F07
0E0F
0E0F
1E0F
1E06
1E00
1E00
1E00
1E00
1E00
1E00
1E00
1E00
1E00
1E00
1E00
1E00
1E00
1E00
1E00
1E00
1E00
1E00
1E00
1E00
1E00
1E00
1E00
1E00
1E00
1E00
FFF0
ENDCHAR
STARTCHAR 0180
ENCODING 384
SWIDTH 510 0
DWIDTH 25 0
BBX 22 35 1 0
BITMAP
FE0000
1E0000
1E0000
1E0000
1E0000
1E0000
FFFF00
1E0000
1E0000
1E0000
1E0000
1E0000
1E0000
1E3F80
1E61C0
1EC0E0
1F8070
1F0078
1F0078
1E0078
1E003C
1E003C
1E003C
1E003C
1E003C
1E003C
1E003C
1E003C
1E0078
1E0078
1F0078
1B0070
1980E0
18C0C0
107F80
ENDCHAR
STARTCHAR 0186
ENCODING 390
SWIDTH 653 0
DWIDTH 32 0
BBX 26 36 4 0
BITMAP
007F0000
01C1C000
07007000
0C003800
18001C00
18000E00
30000E00
30000F00
60000700
60000780
40000780
C0000780
C00007C0
000007C0
000007C0
000007C0
000007C0
000007C0
000007C0
000007C0
000007C0
000007C0
400007C0
60000780
60000780
60000780
70000F80
70000F00
70000F00
78000E00
7C001E00
7C001C00
7E003800
67007000
61C0E000
40FF8000
ENDCHAR
STARTCHAR 018E
ENCODING 398
SWIDTH 673 0
DWIDTH 33 0
BBX 27 35 4 0
BITMAP
FFFFFFE0
FE003E00
F8003C00
F0003C00
E0003C00
C0003C00
C0003C00
C0003C00
80003C00
80003C00
80403C00
80403C00
00403C00
00403C00
00603C00
00603C00
00703C00
007FFC00
00703C00
00603C00
00603C00
00403C00
80403C00
80403C00
80403C00
80003C00
80003C00
C0003C00
C0003C00
E0003C00
E0003C00
F0003C00
F8003C00
FFFFFFE0
FFFFFFE0
ENDCHAR
STARTCHAR 018F
ENCODING 399
SWIDTH 653 0
DWIDTH 32 0
BBX 27 36 3 0
BITMAP
007F0000
01C1E000
03003000
06001C00
0C001C00
18000E00
10000F00
30000780
20000780
60000780
600007C0
600003C0
400003C0
000003E0
000003E0
000003E0
000003E0
000003E0
FFFFFFE0
F80003E0
F80003E0
F80003E0
F80003E0
F80003C0
780003C0
780003C0
7C0007C0
7C000780
3C000780
3C000700
1E000F00
1E000E00
0F001C00
07803800
03C07000
00FFC000
ENDCHAR
STARTCHAR 0190
ENCODING 400
SWIDTH 612 0
DWIDTH 30 0
BBX 25 36 3 0
BITMAP
00FF0300
03C3C300
0F007300
1E003F00
1C001F00
3C000F00
7C000F00
78000700
78000700
78000300
78000300
7C000300
3C000300
3C000000
1E000000
0F000000
07800000
00FF8000
07C00000
0F000000
3E000000
3C000000
7C000000
F8000F00
F8001F00
F8001F80
F8000F80
F8000F80
F8000780
F8000380
7C000300
7C000300
3E000600
1F000C00
07803800
01FFE000
ENDCHAR
STARTCHAR 0192
ENCODING 402
SWIDTH 591 0
DWIDTH 29 0
BBX 31 45 -3 -11
BITMAP
00000078
000001CE
00000306
0000060E
00000E1E
00001C1E
00001C00
00001C00
00003800
00003800
00007800
00007000
000FFFC0
0000F000
0000F000
0000E000
0000E000
0001E000
0001C000
0001C000
0001C000
0003C000
00038000
00038000
00078000
00070000
00070000
00070000
000F0000
000E0000
000E0000
001E0000
001C0000
001C0000
001C0000
003C0000
00380000
00380000
00700000
70700000
F0E00000
F0E00000
E1C00000
63000000
3C000000
ENDCHAR
STARTCHAR 0195
ENCODING 405
SWIDTH 714 0
DWIDTH 35 0
BBX 31 35 1 0
BITMAP
FF000000
0F000000
0F000000
0F000000
0F000000
0F000000
0F000000
0F000000
0F000000
0F000000
0F000000
0F000000
0F000000
0F0FC078
0F30F07C
0F60707C
0F40783C
0F80783E
0F80781E
0F00780E
0F00780E
0F007806
0F007806
0F007806
0F007806
0F007806
0F007806
0F007806
0F007806
0F007804
0F00780C
0F007808
0F003C18
0F001C30
FFC00FE0
ENDCHAR
STARTCHAR 01A6
ENCODING 422
SWIDTH 714 0
DWIDTH 35 0
BBX 31 43 3 -8
BITMAP
FFFE0000
07C00000
07800000
07800000
07800000
07800000
07FFF800
07C03E00
07800F80
078007C0
078007C0
078003E0
078003E0
078003E0
078003E0
078003E0
078003E0
078007C0
078007C0
07800F80
07801F00
07803C00
07FFE000
0780F000
07803800
07801C00
07801E00
07801E00
07801F00
07801F00
07800F00
07800F00
07800F00
07C00F80
FFFE0F80
00000F82
00000F82
00000F82
00000F86
00000FC4
000007FC
000003F8
000001F0
ENDCHAR
STARTCHAR 01B7
ENCODING 439
SWIDTH 612 0
DWIDTH 30 0
BBX 25 36 3 0
BITMAP
3FFFFF00
3FFFFF00
3FFFFE00
3FFFFE00
3FFFFC00
3C001800
38003000
30006000
2000C000
20018000
20030000
40070000
000E0000
001C0000
00380000
00700000
00FFC000
01E1F000
03807C00
00003E00
00001F00
00001F00
00000F80
00000F80
3E000F80
7E000F80
FE000F80
FE000F80
FC000F80
F0001F00
E0001F00
60003E00
60007C00
3800F800
1E03E000
07FF8000
ENDCHAR
STARTCHAR 01BF
ENCODING 447
SWIDTH 510 0
DWIDTH 25 0
BBX 20 35 2 -12
BITMAP
0E0FC0
7E3FE0
FE61F0
1EC0F0
1E80F0
1F80F0
1F00F0
1F00F0
1E00F0
1E00F0
1E01E0
1E01E0
1E01C0
1E0380
1E0380
1E0700
1E0600
1E0C00
1E1800
1E3000
1EE000
1F8000
1E0000
1E0000
1E0000
1E0000
1E0000
1E0000
1E0000
1E0000
1E0000
1E0000
3C0000
F00000
800000
ENDCHAR
STARTCHAR 01C4
ENCODING 452
SWIDTH 653 0
DWIDTH 32 0
BBX 65 45 3 0
BITMAP
000000000006001800
000000000003007000
000000000001C0E000
000000000000E3C000
0000000000007F8000
0000000000003F0000
0000000000001E0000
0000000000000C0000
000000000000000000
000000000000000000
FFFFFC00007FFFFF00
07C00F00007F001F00
078003C0007C003E00
078000E00078007E00
078000700070007C00
07800078006000F800
0780003C006000F800
0780003E00C001F000
0780001E00C003F000
0780001F00C003E000
0780001F008007C000
0780000F00800FC000
0780000F00000F8000
0780000F80001F0000
0780000F80001F0000
0780000F80003E0000
0780000F80007E0000
0780000F80007C0000
0780000F8000F80000
0780000F8000F80000
0780000F8001F00000
0780000F8003F00080
0780000F0003E00180
0780001F0007C00180
0780001F000FC00180
0780001E000F800180
0780001E001F800300
0780003C001F000300
0780003C003E000700
07800078007E000700
07800070007C000F00
078000E000FC001F00
078003C000F8003F00
07C00F0001F0007F00
FFFFFC0001FFFFFF00
ENDCHAR
STARTCHAR 01C5
ENCODING 453
SWIDTH 1224 0
DWIDTH 60 0
BBX 54 35 3 0
BITMAP
FFFFFC00000000
07C00F00000000
078003C0008010
078000E000C030
07800070006060
078000780031C0
0780003C003FC0
0780003E001F80
0780001E000F00
0780001F000E00
0780001F000000
0780000F000000
0780000F000000
0780000F87FFFC
0780000F87C03C
0780000F870078
0780000F8700F8
0780000F8600F0
0780000F8601E0
0780000F8403E0
0780000F8403C0
0780000F840780
0780000F000F80
0780001F000F00
0780001F001E00
0780001E003E00
0780001E003C00
0780003C007804
0780003C00F804
0780007800F004
0780007001E00C
078000E001E00C
078003C003C01C
07C00F0007807C
FFFFFC0007FFFC
ENDCHAR
STARTCHAR 01C6
ENCODING 454
SWIDTH 959 0
DWIDTH 47 0
BBX 42 35 2 0
BITMAP
003FC0000000
0003C0000000
0003C0180100
0003C00C0300
0003C0060600
0003C0070C00
0003C0039C00
0003C001F800
0003C000F000
0003C000F000
0003C0000000
0003C0000000
0003C0000000
0FE3C07FFFC0
1C13C07C03C0
3C0BC0700780
380FC0700F80
7807C0600F00
7807C0601E00
7803C0403E00
F003C0403C00
F003C0007800
F003C000F800
F003C000F000
F003C001E000
F003C003E000
F003C003C040
F003C0078040
7803C00F8040
7803C00F0040
7807C01E00C0
3807C03E00C0
3C0FC03C01C0
1C1BC07807C0
07F3FC7FFFC0
ENDCHAR
STARTCHAR 01C7
ENCODING 455
SWIDTH 1224 0
DWIDTH 60 0
BBX 55 35 3 0
BITMAP
FFFE0000007FFE
07C000000007C0
078000000003C0
078000000003C0
078000000003C0
078000000003C0
078000000003C0
078000000003C0
078000000003C0
078000000003C0
078000000003C0
078000000003C0
078000000003C0
078000000003C0
078000000003C0
078000000003C0
078000000003C0
078000000003C0
078000000003C0
078000000003C0
078000000003C0
078000200003C0
078000200003C0
078000600003C0
078000603C03C0
078000607E03C0
07800060FE03C0
078000E0FE03C0
078000E0FC03C0
078000E0E00380
078001E0E00780
078003E0600700
078007E0700E00
FFFFFFE0381C00
FFFFFFE00FF800
ENDCHAR
STARTCHAR 01C8
ENCODING 456
SWIDTH 1000 0
DWIDTH 49 0
BBX 41 46 3 -11
BITMAP
FFFE00000000
07C000000700
078000000F80
078000000F80
078000000F80
078000000700
078000000000
078000000000
078000000000
078000000000
078000000000
078000000000
078000000000
07800000FF80
078000000780
078000000780
078000000780
078000000780
078000000780
078000000780
078000000780
078000000780
078000200780
078000200780
078000600780
078000600780
078000600780
078000600780
078000E00780
078000E00780
078001E00780
078003E00780
078007E00780
FFFFFFE00780
FFFFFFE00780
000000000780
000000000780
000000000780
000000000780
000000070780
0000000F0780
0000000F0700
0000000E0F00
0000000E0E00
000000063C00
00000001F000
ENDCHAR
STARTCHAR 01C9
ENCODING 457
SWIDTH 591 0
DWIDTH 29 0
BBX 23 47 1 -11
BITMAP
FE0000
1E0000
1E001C
1E003E
1E003E
1E003E
1E001C
1E0000
1E0000
1E0000
1E0000
1E0000
1E0000
1E0000
1E03FE
1E001E
1E001E
1E001E
1E001E
1E001E
1E001E
1E001E
1E001E
1E001E
1E001E
1E001E
1E001E
1E001E
1E001E
1E001E
1E001E
1E001E
1E001E
1E001E
1E001E
FFE01E
00001E
00001E
00001E
00001E
001C1E
003C1E
003C1C
00383C
003838
001CF0
0007C0
ENDCHAR
STARTCHAR 01CA
ENCODING 458
SWIDTH 1306 0
DWIDTH 64 0
BBX 59 35 3 0
BITMAP
FFC007FF8007FFE0
07C000FC00003E00
07E0007800003C00
07F0003000003C00
07F0003000003C00
06F8003000003C00
06F8003000003C00
067C003000003C00
067E003000003C00
063E003000003C00
061F003000003C00
061F803000003C00
060F803000003C00
060FC03000003C00
0607C03000003C00
0603E03000003C00
0603F03000003C00
0601F03000003C00
0600F83000003C00
0600F83000003C00
06007C3000003C00
06007E3000003C00
06003E3000003C00
06001F3000003C00
06001F3001C03C00
06000FB003E03C00
06000FF007E03C00
060007F007E03C00
060003F007E03C00
060003F007003C00
060001F007003800
060000F003007800
0F0000F003807000
1F80007001C0E000
FFF00070007F8000
ENDCHAR
STARTCHAR 01CB
ENCODING 459
SWIDTH 1102 0
DWIDTH 54 0
BBX 46 46 3 -11
BITMAP
FFC007FF8000
07C000FC0038
07E00078007C
07F00030007C
07F00030007C
06F800300038
06F800300000
067C00300000
067E00300000
063E00300000
061F00300000
061F00300000
060F80300000
060FC03007FC
0607C030003C
0603E030003C
0603E030003C
0601F030003C
0601F030003C
0600F830003C
06007C30003C
06007C30003C
06003E30003C
06001E30003C
06001F30003C
06000FB0003C
06000FB0003C
060007F0003C
060003F0003C
060003F0003C
060001F0003C
060001F0003C
0F0000F0003C
1F800070003C
FFF00070003C
00000030003C
00000000003C
00000000003C
00000000003C
00000000783C
000000007838
000000007838
000000007078
000000006070
0000000031E0
000000000F80
ENDCHAR
STARTCHAR 01CC
ENCODING 460
SWIDTH 857 0
DWIDTH 42 0
BBX 35 45 2 -11
BITMAP
00000001C0
00000003E0
00000003E0
00000003E0
00000001C0
0000000000
0000000000
0000000000
0000000000
0000000000
0000000000
0000000000
FE1F803FE0
1E61E001E0
1EC0E001E0
1E80F001E0
1F00F001E0
1F00F001E0
1E00F001E0
1E00F001E0
1E00F001E0
1E00F001E0
1E00F001E0
1E00F001E0
1E00F001E0
1E00F001E0
1E00F001E0
1E00F001E0
1E00F001E0
1E00F001E0
1E00F001E0
1E00F001E0
1E00F001E0
FFC7FE01E0
00000001E0
00000001E0
00000001E0
00000001E0
000001C1E0
000003C1E0
000003C1C0
00000383C0
0000038380
0000018F00
0000007C00
ENDCHAR
STARTCHAR 01DD
ENCODING 477
SWIDTH 448 0
DWIDTH 22 0
BBX 18 22 2 1
BITMAP
0FF800
181C00
300E00
200F00
600700
400780
400780
C007C0
0003C0
0003C0
0003C0
FFFFC0
F003C0
F003C0
F003C0
780780
780780
780700
380700
1C0E00
1E1C00
07F800
ENDCHAR
STARTCHAR 01E2
ENCODING 482
SWIDTH 979 0
DWIDTH 48 0
BBX 44 42 1 0
BITMAP
000000FFF800
000000FFF800
000000000000
000000000000
000000000000
000000000000
000000000000
00007FFFFFF0
00000FE003F0
00000FC000F0
00000FC00070
00000FC00070
00001BC00030
00001BC00030
000033C00030
000033C00010
000063C00010
000063C01010
0000C3C01010
0001C3C01000
000183C03000
000383C03000
000303C03000
000703C07000
000603FFF000
000E03C0F000
000C03C03000
001803C03000
001803C01000
003003C01010
003FFFC01010
006003C01010
006003C00010
00C003C00010
00C003C00030
018003C00030
018003C00070
038003C00070
078003C000F0
0F8003C001F0
FFF87FFFFFF0
FFF87FFFFFF0
ENDCHAR
STARTCHAR 01E3
ENCODING 483
SWIDTH 693 0
DWIDTH 34 0
BBX 30 30 2 0
BITMAP
007FFC00
007FFC00
00000000
00000000
00000000
00000000
00000000
00000000
07F83F80
181E61E0
100FE0E0
3007C070
3807C078
3C078078
3E078078
1E07803C
0007803C
000F803C
01F7FFFC
0F078000
3C078000
78078000
F8078000
F0078008
F00F8008
F00BC008
F01BC010
F811E030
7820F060
3FC07FC0
ENDCHAR
STARTCHAR 01EA
ENCODING 490
SWIDTH 673 0
DWIDTH 33 0
BBX 28 47 3 -11
BITMAP
001F8000
00F0F000
01C03800
03801C00
07000E00
0E000700
1E000780
1C000380
3C0003C0
3C0003C0
7C0003E0
780001E0
780001E0
F80001F0
F80001F0
F80001F0
F80001F0
F80001F0
F80001F0
F80001F0
F80001F0
F80001F0
F80001F0
780001E0
780001E0
7C0003E0
3C0003C0
3C0003C0
3C000380
1E000780
0E000700
0F000E00
07801C00
03C03800
00F9F000
003FC000
000C0000
00180000
00300000
00700000
00E00000
00E00000
00E00000
00E00000
00F18000
007F0000
003E0000
ENDCHAR
STARTCHAR 01EB
ENCODING 491
SWIDTH 489 0
DWIDTH 24 0
BBX 19 33 2 -10
BITMAP
03FC00
0E0E00
1C0700
3C0380
3803C0
7803C0
7801E0
F801E0
F001E0
F001E0
F001E0
F001E0
F001E0
F001E0
F001E0
7801E0
7803C0
3803C0
380380
1C0700
0E0600
071C00
01F000
00C000
018000
030000
060000
0E0000
0E0000
0E0000
0F3000
07E000
03C000
ENDCHAR
STARTCHAR 01EC
ENCODING 492
SWIDTH 673 0
DWIDTH 33 0
BBX 28 54 3 -11
BITMAP
00FFF800
00FFF800
00000000
00000000
00000000
00000000
00000000
001F8000
00F0F000
01C03800
03801C00
07000E00
0E000700
1E000780
1C000380
3C0003C0
3C0003C0
7C0003E0
780001E0
780001E0
F80001F0
F80001F0
F80001F0
F80001F0
F80001F0
F80001F0
F80001F0
F80001F0
F80001F0
F80001F0
780001E0
780001E0
7C0003E0
3C0003C0
3C0003C0
3C000380
1E000780
0E000700
0F000E00
07801C00
03C03800
00F9F000
003FC000
000C0000
00180000
00300000
00700000
00E00000
00E00000
00E00000
00E00000
00F18000
007F0000
003E0000
ENDCHAR
STARTCHAR 01ED
ENCODING 493
SWIDTH 489 0
DWIDTH 24 0
BBX 19 41 2 -11
BITMAP
1FFF00
1FFF00
000000
000000
000000
000000
000000
000000
03FC00
0E0E00
1C0700
3C0380
3803C0
7803C0
7801E0
F801E0
F001E0
F001E0
F001E0
F001E0
F001E0
F001E0
F001E0
7801E0
7803C0
3803C0
380380
1C0700
0E0600
071C00
01F000
00C000
018000
030000
060000
0E0000
0E0000
0E0000
0F3000
07E000
03C000
ENDCHAR
STARTCHAR 01F0
ENCODING 496
SWIDTH 326 0
DWIDTH 16 0
BBX 17 44 -2 -10
BITMAP
0C0180
060300
030700
01CE00
01FC00
00F800
007800
003000
000000
000000
000000
0FF800
007800
007800
007800
007800
007800
007800
007800
007800
007800
007800
007800
007800
007800
007800
007800
007800
007800
007800
007800
007800
007800
007800
007800
007800
007800
F07800
F07800
F07000
E0F000
60E000
73C000
1F0000
ENDCHAR
STARTCHAR 01F1
ENCODING 497
SWIDTH 1428 0
DWIDTH 70 0
BBX 65 35 3 0
BITMAP
FFFFFC00007FFFFF00
07C00F00007F001F00
078003C0007C003E00
078000E00078007E00
078000700070007C00
07800078006000F800
0780003C006000F800
0780003E00C001F000
0780001E00C003F000
0780001F00C003E000
0780001F008007C000
0780000F00800FC000
0780000F00000F8000
0780000F80001F0000
0780000F80001F0000
0780000F80003E0000
0780000F80007E0000
0780000F80007C0000
0780000F8000F80000
0780000F8000F80000
0780000F8001F00000
0780000F8003F00080
0780000F0003E00180
0780001F0007C00180
0780001F000FC00180
0780001E000F800180
0780001E001F800300
0780003C001F000300
0780003C003E000700
07800078007E000700
07800070007C000F00
078000E000FC001F00
078003C000F8003F00
07C00F0001F0007F00
FFFFFC0001FFFFFF00
ENDCHAR
STARTCHAR 01F2
ENCODING 498
SWIDTH 1224 0
DWIDTH 60 0
BBX 54 35 3 0
BITMAP
FFFFFC00000000
07C00F00000000
078003C0000000
078000E0000000
07800070000000
07800078000000
0780003C000000
0780003E000000
0780001E000000
0780001F000000
0780001F000000
0780000F000000
0780000F000000
0780000F87FFFC
0780000F87C03C
0780000F870078
0780000F8700F8
0780000F8600F0
0780000F8601E0
0780000F8403E0
0780000F8403C0
0780000F840780
0780000F000F80
0780001F000F00
0780001F001E00
0780001E003E00
0780001E003C00
0780003C007804
0780003C00F804
0780007800F004
0780007001E00C
078000E001E00C
078003C003C01C
07C00F0007807C
FFFFFC0007FFFC
ENDCHAR
STARTCHAR 01F3
ENCODING 499
SWIDTH 959 0
DWIDTH 47 0
BBX 42 35 2 0
BITMAP
003FC0000000
0003C0000000
0003C0000000
0003C0000000
0003C0000000
0003C0000000
0003C0000000
0003C0000000
0003C0000000
0003C0000000
0003C0000000
0003C0000000
0003C0000000
0FE3C07FFFC0
1C13C07C03C0
3C0BC0700780
380FC0700F80
7807C0600F00
7807C0601E00
7803C0403E00
F003C0403C00
F003C0007800
F003C000F800
F003C000F000
F003C001E000
F003C003E000
F003C003C040
F003C0078040
7803C00F8040
7803C00F0040
7807C01E00C0
3807C03E00C0
3C0FC03C01C0
1C1BC07807C0
07F3FC7FFFC0
ENDCHAR
STARTCHAR 01F4
ENCODING 500
SWIDTH 693 0
DWIDTH 34 0
BBX 30 46 3 1
BITMAP
00003800
00007800
0000F800
0000F000
0001C000
00038000
00030000
00060000
00000000
00000000
003F80C0
00E0E0C0
038038C0
07001DC0
0E000FC0
0E0007C0
1C0007C0
3C0003C0
3C0003C0
7C0001C0
780001C0
780000C0
780000C0
F80000C0
F8000000
F8000000
F8000000
F8000000
F800FFFC
F800FFFC
F80007C0
F80007C0
F80007C0
F80007C0
780007C0
780007C0
7C0007C0
3C0007C0
3C0007C0
1C000FC0
1E000FC0
0E001CC0
070018C0
030030C0
01C0E0C0
007F80C0
ENDCHAR
STARTCHAR 01F5
ENCODING 501
SWIDTH 551 0
DWIDTH 27 0
BBX 23 45 3 -10
BITMAP
000380
000780
000780
000F00
000E00
001C00
003800
003000
004000
000000
000000
000000
07FC7C
1E0ECE
3C078E
7C079E
7803DE
7803C0
7803C0
7803C0
7803C0
7803C0
3C0780
1C0780
0E0E00
03F800
1C0000
600000
C00000
C00000
E00000
FFFF80
7FFFE0
0FFFF0
1C0070
300038
600018
C00018
C00018
C00018
C00030
600030
780060
1E07C0
03FE00
ENDCHAR
STARTCHAR 01F6
ENCODING 502
SWIDTH 959 0
DWIDTH 47 0
BBX 42 35 3 0
BITMAP
FFFC1FFF8000
07C000F80000
078000F00000
078000F00000
078000F00000
078000F00000
078000F00000
078000F00000
078000F00000
078000F00000
078000F00000
078000F00000
078000F00000
078000F00000
078000F00000
078000F00000
07FFFFF03E00
078000F03F00
078000F03F80
078000F01F80
078000F00F80
078000F007C0
078000F001C0
078000F001C0
078000F000C0
078000F000C0
078000F000C0
078000F000C0
078000F00080
078000F80180
078000780180
078000780300
0780003C0600
07C0001FFC00
FFFC000FF800
ENDCHAR
STARTCHAR 01F7
ENCODING 503
SWIDTH 632 0
DWIDTH 31 0
BBX 25 45 4 -9
BITMAP
0100F000
0703F800
1F07FC00
7F0FFE00
FF1FFE00
0F787F00
0FE03F00
0F001F80
0F001F80
0F000F80
0F000F80
0F000F80
0F000780
0F000780
0F000780
0F000780
0F000700
0F000F00
0F000F00
0F000E00
0F000E00
0F001C00
0F001C00
0F003800
0F003000
0F006000
0F00C000
0F018000
0F070000
0F1E0000
0F780000
0FE00000
0F000000
0F000000
0F000000
0F000000
0F000000
0F000000
0F000000
0F000000
0F000000
1F000000
78000000
E0000000
80000000
ENDCHAR
STARTCHAR 01FA
ENCODING 506
SWIDTH 755 0
DWIDTH 37 0
BBX 34 47 2 0
BITMAP
0000180000
0000380000
0000700000
0000400000
0000800000
0001E00000
0006100000
0004080000
0004080000
0006180000
0003F00000
0000000000
0000C00000
0000C00000
0000E00000
0001E00000
0001E00000
0001F00000
0003F00000
0003F00000
0002F80000
0006F80000
0006F80000
000E7C0000
000C7C0000
000C7C0000
001C3E0000
00183E0000
00183E0000
00381F0000
00301F0000
00301F0000
00700F8000
00600F8000
00600F8000
00FFFFC000
00FFFFC000
00C007C000
01C003E000
018003E000
018003E000
038001F000
030001F000
070001F000
078000F800
1F8001FC00
FFF81FFFC0
ENDCHAR
STARTCHAR 01FB
ENCODING 507
SWIDTH 489 0
DWIDTH 24 0
BBX 21 43 2 0
BITMAP
000300
000780
000F00
001F00
003C00
003800
007000
00C000
008000
000000
01E000
021800
040800
080400
080400
080400
040C00
061800
01F000
000000
000000
07F800
181E00
100F00
300700
380780
3C0780
3C0780
1C0780
000780
001F80
03F780
1F0780
3C0780
780780
F80780
F00780
F00F88
F00F88
F01F88
F81798
7827F0
3FC3F0
ENDCHAR
STARTCHAR 01FC
ENCODING 508
SWIDTH 979 0
DWIDTH 48 0
BBX 44 46 1 0
BITMAP
000000001800
000000003800
000000007800
00000000F000
00000000E000
00000001C000
000000030000
000000020000
000000000000
000000000000
000000000000
00007FFFFFF0
00007FFFFFF0
00000FC001F0
00000FC000F0
00000FC00070
00001FC00030
00001BC00030
000033C00030
000033C00010
000063C00010
000063C01010
0000C3C01010
0000C3C01000
000183C03000
000183C03000
000303C03000
000303C07000
000603FFF000
000E03C0F000
000C03C03000
001803C03000
001803C01000
003003C01010
003FFFC01010
006003C01010
006003C00010
00C003C00010
00C003C00030
018003C00030
018003C00070
038003C00070
078003C000F0
0F8003C001F0
FFF87FFFFFF0
FFF87FFFFFF0
ENDCHAR
STARTCHAR 01FD
ENCODING 509
SWIDTH 693 0
DWIDTH 34 0
BBX 30 33 2 1
BITMAP
00001C00
00003C00
00003C00
00007800
00007000
0000E000
00018000
00010000
00000000
00000000
00000000
07F83F80
181E61E0
100FE0E0
3007C070
3807C078
3C078078
3E078078
1E07803C
0007803C
000F803C
01F7FFFC
0F078000
3C078000
78078000
F8078000
F0078008
F00F8008
F00BC008
F01BC010
F811E030
7820F060
3FC07FC0
ENDCHAR
STARTCHAR 01FE
ENCODING 510
SWIDTH 673 0
DWIDTH 33 0
BBX 28 46 3 1
BITMAP
00003800
00007800
00007800
0000F000
0001E000
00018000
00030000
00060000
00000000
00000000
001F8020
00FFF070
01C03860
03801CC0
07000FC0
0E000780
1E000780
1E000780
3C000FC0
3C001FC0
7C001BE0
7C0031E0
780071E0
F800E1F0
F800C1F0
F80181F0
F80381F0
F80701F0
F80601F0
F80C01F0
F81C01F0
F83801F0
F83001F0
F86001E0
78E001E0
79C003E0
7D8003E0
3F0003C0
3F0003C0
1E000780
1E000700
1E000700
3F000E00
33801C00
61C03000
C07FE000
ENDCHAR
STARTCHAR 01FF
ENCODING 511
SWIDTH 489 0
DWIDTH 24 0
BBX 19 33 2 1
BITMAP
000700
000780
000F00
001E00
001C00
003800
006000
004000
000000
000000
000000
03FC60
0E0E40
1C07C0
3C0380
3803C0
7807C0
780DE0
F809E0
F019E0
F031E0
F061E0
F0C1E0
F081E0
F181E0
F301E0
7E01E0
7C03C0
3803C0
3C0380
3C0700
6E0E00
C3FC00
ENDCHAR
STARTCHAR 0200
ENCODING 512
SWIDTH 755 0
DWIDTH 37 0
BBX 34 46 2 0
BITMAP
0187000000
01C7800000
01E7C00000
00F3C00000
0070E00000
0038700000
001C380000
0004080000
0000000000
0000000000
0000000000
0000C00000
0000C00000
0000E00000
0001E00000
0001E00000
0003F00000
0003F00000
0003F00000
0006F80000
0006F80000
0006F80000
000C7C0000
000C7C0000
000C7C0000
00183E0000
00183E0000
00181E0000
00301F0000
00301F0000
00300F0000
00600F8000
00600F8000
0060078000
00FFFFC000
00FFFFC000
00C003C000
018003E000
018003E000
038001E000
030001F000
030001F000
070000F000
070000F800
1F8001FC00
FFF81FFFC0
ENDCHAR
STARTCHAR 0201
ENCODING 513
SWIDTH 489 0
DWIDTH 24 0
BBX 22 33 1 1
BITMAP
E3C000
F3C000
F1E000
78F000
3C7000
0C3800
060C00
030400
000000
000000
000000
03FC00
0C0F00
080780
180380
1C03C0
1E03C0
1F03C0
0F03C0
0003C0
000FC0
01FBC0
0F83C0
1E03C0
3C03C0
7C03C0
7803C0
7807C4
7807C4
780BC4
7C0BCC
3C13F8
1FE1F8
ENDCHAR
STARTCHAR 0202
ENCODING 514
SWIDTH 755 0
DWIDTH 37 0
BBX 34 45 2 0
BITMAP
0001E00000
0007F80000
000FFC0000
000C0C0000
0018060000
0030030000
0020010000
0020010000
0000000000
0000000000
0000C00000
0000C00000
0000E00000
0001E00000
0001E00000
0001F00000
0003F00000
0003F00000
0002F80000
0006F80000
0006F80000
000C7C0000
000C7C0000
000C7C0000
00183E0000
00183E0000
00181E0000
00301F0000
00301F0000
00300F0000
00600F8000
00600F8000
0060078000
00FFFFC000
00FFFFC000
00C003C000
018003E000
018003E000
038001E000
030001F000
030001F000
070000F000
070000F800
1F8001FC00
FFF81FFFC0
ENDCHAR
STARTCHAR 0203
ENCODING 515
SWIDTH 489 0
DWIDTH 24 0
BBX 21 33 2 0
BITMAP
01E000
03F000
07F800
060C00
0C0600
180200
100300
100100
000000
000000
000000
07F800
181E00
100F00
300700
380780
3C0780
3E0780
1C0780
000780
001F80
03F780
1F0780
3C0780
780780
F80780
F00780
F00F88
F00F88
F01788
F81798
7827F0
3FC3F0
ENDCHAR
STARTCHAR 0204
ENCODING 516
SWIDTH 693 0
DWIDTH 34 0
BBX 28 46 3 0
BITMAP
060C0000
071E0000
078F0000
03CF0000
01E38000
00E1C000
0030E000
00182000
00000000
00000000
00000000
FFFFFFF0
FFFFFFF0
078001F0
078000F0
07800070
07800070
07800030
07800030
07800030
07800010
07802010
07802010
07802000
07806000
07806000
07806000
0780E000
07FFE000
0781E000
07806000
07806000
07806000
07802010
07802010
07802010
07800010
07800030
07800030
07800030
07800070
07800070
078000F0
078001F0
FFFFFFF0
FFFFFFF0
ENDCHAR
STARTCHAR 0205
ENCODING 517
SWIDTH 448 0
DWIDTH 22 0
BBX 19 33 1 1
BITMAP
E1C000
F1E000
79E000
38F000
1C7800
0E1800
060C00
030600
000000
000000
000000
03FC00
070E00
0E0700
1C0780
1C03C0
3C03C0
3C03C0
7803E0
7803E0
7803E0
7FFFE0
780000
780000
780000
780040
3C0040
3C0040
3C00C0
1C0080
0E0180
070300
03FE00
ENDCHAR
STARTCHAR 0206
ENCODING 518
SWIDTH 693 0
DWIDTH 34 0
BBX 28 45 3 0
BITMAP
00078000
001FE000
003FF000
00383800
00601800
00C00C00
00800400
00800400
00000000
00000000
FFFFFFF0
07C007F0
078001F0
078000F0
07800070
07800070
07800030
07800030
07800030
07800010
07802010
07802010
07802000
07806000
07806000
07806000
0780E000
07FFE000
0781E000
07806000
07806000
07806000
07802010
07802010
07802010
07800010
07800030
07800030
07800030
07800070
07800070
078000F0
078001F0
FFFFFFF0
FFFFFFF0
ENDCHAR
STARTCHAR 0207
ENCODING 519
SWIDTH 448 0
DWIDTH 22 0
BBX 18 33 2 0
BITMAP
00E000
03F800
07F800
060C00
0C0600
080200
100300
100100
000000
000000
000000
07F800
0E1C00
1C0E00
380F00
380780
780780
780780
F007C0
F007C0
F007C0
FFFFC0
F00000
F00000
F00000
F00080
780080
780080
780180
380100
1C0300
0E0600
07FC00
ENDCHAR
STARTCHAR 0208
ENCODING 520
SWIDTH 387 0
DWIDTH 19 0
BBX 17 46 0 0
BITMAP
E18000
F1C000
F1E000
78F000
3C7000
0C3800
061C00
030400
010000
000000
000000
1FFF80
1FFF80
00F000
00F000
00F000
00F000
00F000
00F000
00F000
00F000
00F000
00F000
00F000
00F000
00F000
00F000
00F000
00F000
00F000
00F000
00F000
00F000
00F000
00F000
00F000
00F000
00F000
00F000
00F000
00F000
00F000
00F000
00F000
00F800
1FFF80
ENDCHAR
STARTCHAR 0209
ENCODING 521
SWIDTH 285 0
DWIDTH 14 0
BBX 15 33 -3 1
BITMAP
E380
E3C0
F1E0
78F0
3870
0C38
060C
0204
0000
0000
0000
07F0
00F0
00F0
00F0
00F0
00F0
00F0
00F0
00F0
00F0
00F0
00F0
00F0
00F0
00F0
00F0
00F0
00F0
00F0
00F0
00F0
07FE
ENDCHAR
STARTCHAR 020A
ENCODING 522
SWIDTH 387 0
DWIDTH 19 0
BBX 14 45 3 0
BITMAP
0780
1FE0
1FF0
3830
6018
400C
C004
0004
0000
0000
FFFC
07C0
0780
0780
0780
0780
0780
0780
0780
0780
0780
0780
0780
0780
0780
0780
0780
0780
0780
0780
0780
0780
0780
0780
0780
0780
0780
0780
0780
0780
0780
0780
0780
07C0
FFFC
ENDCHAR
STARTCHAR 020B
ENCODING 523
SWIDTH 285 0
DWIDTH 14 0
BBX 14 33 0 0
BITMAP
0780
0FC0
1FE0
3870
2010
6018
4008
8004
0000
0000
0000
3F80
0780
0780
0780
0780
0780
0780
0780
0780
0780
0780
0780
0780
0780
0780
0780
0780
0780
0780
0780
0780
3FF0
ENDCHAR
STARTCHAR 020C
ENCODING 524
SWIDTH 673 0
DWIDTH 33 0
BBX 28 46 3 1
BITMAP
0E3C0000
0F3C0000
0F1E0000
078F0000
01C70000
00C38000
0060C000
00304000
00000000
00000000
001F8000
00FFF000
01C03800
03801C00
07000E00
0E000700
1E000780
1E000780
3C0003C0
3C0003C0
7C0003E0
7C0003E0
780001E0
F80001F0
F80001F0
F80001F0
F80001F0
F80001F0
F80001F0
F80001F0
F80001F0
F80001F0
F80001F0
780001E0
780001E0
780003E0
7C0003C0
3C0003C0
3C0003C0
1E000780
0E000700
0E000700
07000E00
03801C00
00C03000
007FE000
ENDCHAR
STARTCHAR 020D
ENCODING 525
SWIDTH 489 0
DWIDTH 24 0
BBX 19 33 2 1
BITMAP
E38000
E3C000
F1E000
78E000
387000
1C3800
061800
020C00
000000
000000
000000
03FC00
0E0E00
1C0700
3C0380
3803C0
7803C0
7801E0
F801E0
F001E0
F001E0
F001E0
F001E0
F001E0
F001E0
F001E0
7801E0
7803C0
3803C0
3C0380
1C0700
0E0E00
03FC00
ENDCHAR
STARTCHAR 020E
ENCODING 526
SWIDTH 673 0
DWIDTH 33 0
BBX 28 46 3 0
BITMAP
000F0000
001F8000
003FC000
0070E000
00C03000
00C03000
01801800
01000800
00000000
00000000
001F8000
00F0F000
01C03800
03801C00
07000E00
0E000700
1E000780
1C000380
3C0003C0
3C0003C0
7C0003E0
780001E0
780001E0
F80001E0
F80001F0
F80001F0
F80001F0
F80001F0
F80001F0
F80001F0
F80001F0
F80001F0
F80001F0
780001E0
780001E0
7C0003E0
7C0003E0
3C0003C0
3C0003C0
1E000780
0E000700
0E000F00
07000E00
03801C00
00E07000
007FE000
ENDCHAR
STARTCHAR 020F
ENCODING 527
SWIDTH 489 0
DWIDTH 24 0
BBX 19 33 2 0
BITMAP
00E000
01F800
03FC00
060C00
040600
080200
080100
100100
000000
000000
000000
03FC00
0E0E00
1C0700
3C0380
3803C0
7803C0
7801E0
F801E0
F001E0
F001E0
F001E0
F001E0
F001E0
F001E0
F001E0
7801E0
7803C0
3803C0
3C0380
1C0700
0E0E00
03FC00
ENDCHAR
STARTCHAR 0210
ENCODING 528
SWIDTH 714 0
DWIDTH 35 0
BBX 30 46 3 0
BITMAP
1C300000
1E780000
1E3C0000
0F1E0000
078E0000
01870000
00C18000
0060C000
00200000
00000000
00000000
FFFFF800
FFFFFE00
07801F80
078007C0
078007C0
078003E0
078003E0
078003E0
078003E0
078003E0
078003C0
078007C0
07800780
07800F00
07803C00
07FFE000
0780F000
07803800
07801C00
07801E00
07801E00
07801F00
07800F00
07800F00
07800F00
07800F00
07800F80
07800F84
07800F84
07800F84
07800F84
07800F8C
078007F8
07C007F8
FFFE03F0
ENDCHAR
STARTCHAR 0211
ENCODING 529
SWIDTH 408 0
DWIDTH 20 0
BBX 17 33 2 1
BITMAP
E38000
F3C000
F1E000
78E000
3C7000
0C3000
061800
030C00
000000
000000
000000
FE1F00
1E2380
1E4380
1ECF80
1E8F80
1F8F00
1F0200
1F0000
1F0000
1E0000
1E0000
1E0000
1E0000
1E0000
1E0000
1E0000
1E0000
1E0000
1E0000
1E0000
1E0000
FFC000
ENDCHAR
STARTCHAR 0212
ENCODING 530
SWIDTH 714 0
DWIDTH 35 0
BBX 30 45 3 0
BITMAP
001E0000
003F8000
007FC000
00E0E000
01806000
01003000
03001000
00000000
00000000
00000000
FFFFF800
07C03E00
07800F80
078007C0
078007C0
078003E0
078003E0
078003E0
078003E0
078003E0
078003C0
078007C0
07800780
07800F00
07803C00
07FFE000
0780F000
07803800
07801C00
07801E00
07801E00
07801F00
07800F00
07800F00
07800F00
07800F00
07800F80
07800F84
07800F84
07800F84
07800F84
07800F8C
078007F8
07C007F8
FFFE03F0
ENDCHAR
STARTCHAR 0213
ENCODING 531
SWIDTH 408 0
DWIDTH 20 0
BBX 17 33 2 0
BITMAP
00E000
03F800
03F800
060C00
0C0600
080200
180300
100100
000000
000000
000000
FE1F00
1E2380
1E4380
1ECF80
1E8F80
1F8F00
1F0200
1F0000
1F0000
1E0000
1E0000
1E0000
1E0000
1E0000
1E0000
1E0000
1E0000
1E0000
1E0000
1E0000
1E0000
FFC000
ENDCHAR
STARTCHAR 0214
ENCODING 532
SWIDTH 795 0
DWIDTH 39 0
BBX 34 46 3 1
BITMAP
01C3800000
01E3C00000
00F3C00000
0079E00000
0038700000
000C300000
0006180000
00020C0000
0000000000
0000000000
FFFC03FFC0
FFFC03FFC0
07C0007E00
0780003C00
0780001800
0780001800
0780001800
0780001800
0780001800
0780001800
0780001800
0780001800
0780001800
0780001800
0780001800
0780001800
0780001800
0780001800
0780001800
0780001800
0780001800
0780001800
0780001800
0780001800
0780001800
0780001800
0780001800
0780001800
03C0001800
03C0003000
01C0003000
01E0006000
00E0006000
007000C000
003C038000
000FFE0000
ENDCHAR
STARTCHAR 0215
ENCODING 533
SWIDTH 530 0
DWIDTH 26 0
BBX 23 33 1 1
BITMAP
70E000
78F000
3CF000
1C7800
0E3800
070C00
030600
008200
000000
000000
000000
FE07F0
1E00F0
1E00F0
1E00F0
1E00F0
1E00F0
1E00F0
1E00F0
1E00F0
1E00F0
1E00F0
1E00F0
1E00F0
1E00F0
1E00F0
1E01F0
1E01F0
1E01F0
1E02F0
0E06F0
0F0CF0
03F0FE
ENDCHAR
STARTCHAR 0216
ENCODING 534
SWIDTH 795 0
DWIDTH 39 0
BBX 34 46 3 0
BITMAP
0000E00000
0003F00000
0007F80000
000E1C0000
000C060000
0018020000
0010030000
0030010000
0000000000
0000000000
0000000000
FFFC03FFC0
07C0007E00
0780003C00
0780001800
0780001800
0780001800
0780001800
0780001800
0780001800
0780001800
0780001800
0780001800
0780001800
0780001800
0780001800
0780001800
0780001800
0780001800
0780001800
0780001800
0780001800
0780001800
0780001800
0780001800
0780001800
0780001800
0780001800
03C0001800
03C0003000
03C0003000
01E0006000
00E0006000
007000C000
003C038000
000FFE0000
ENDCHAR
STARTCHAR 0217
ENCODING 535
SWIDTH 551 0
DWIDTH 27 0
BBX 23 33 2 0
BITMAP
007800
00FC00
01FE00
018700
030100
020180
040080
040040
000000
000000
000000
FE07F0
1E00F0
1E00F0
1E00F0
1E00F0
1E00F0
1E00F0
1E00F0
1E00F0
1E00F0
1E00F0
1E00F0
1E00F0
1E00F0
1E00F0
1E01F0
1E01F0
1E01F0
1E02F0
0E06F0
0F0CF0
03F0FE
ENDCHAR
STARTCHAR 0218
ENCODING 536
SWIDTH 612 0
DWIDTH 30 0
BBX 23 47 4 -11
BITMAP
03F000
0E1C18
380718
3003F8
7001F8
6000F8
E00078
E00078
E00038
E00038
E00018
F00018
F80018
7E0008
7FC000
3FF000
1FFC00
0FFF80
03FFE0
00FFF0
803FF8
8007FC
8001FC
C0007E
C0003E
C0001E
E0000E
E0000E
F0000E
F0000E
F8000C
FC001C
DE0018
C70030
C38060
80FFC0
000000
000000
003800
007C00
007C00
003C00
000C00
000C00
000800
001000
002000
ENDCHAR
STARTCHAR 0219
ENCODING 537
SWIDTH 448 0
DWIDTH 22 0
BBX 17 33 3 -10
BITMAP
1FE200
703200
601E00
C00E00
C00600
E00200
F00200
FC0000
7F0000
3FC000
1FF800
07FE00
80FF00
C01F00
C00780
E00380
E00180
F00180
F00180
F80300
C60700
83FC00
800000
000000
00E000
01F000
01F000
00F000
003000
003000
002000
004000
008000
ENDCHAR
STARTCHAR 021A
ENCODING 538
SWIDTH 714 0
DWIDTH 35 0
BBX 28 46 4 -11
BITMAP
FFFFFFF0
FE0F83F0
F80F01F0
F00F00F0
E00F0070
C00F0070
C00F0030
C00F0030
C00F0030
800F0010
800F0010
800F0010
800F0010
000F0000
000F0000
000F0000
000F0000
000F0000
000F0000
000F0000
000F0000
000F0000
000F0000
000F0000
000F0000
000F0000
000F0000
000F0000
000F0000
000F0000
000F0000
000F0000
000F0000
000F8000
03FFFE00
00000000
00000000
00070000
000F8000
000F8000
00078000
00018000
00018000
00010000
00020000
000C0000
ENDCHAR
STARTCHAR 021B
ENCODING 539
SWIDTH 346 0
DWIDTH 17 0
BBX 14 43 1 -11
BITMAP
0200
0200
0200
0200
0200
0600
0600
0600
0E00
1E00
FFF8
1E00
1E00
1E00
1E00
1E00
1E00
1E00
1E00
1E00
1E00
1E00
1E00
1E00
1E00
1E04
1E04
1E04
1E0C
0F08
0FF8
07F0
0000
0000
01C0
03E0
03E0
01E0
0060
0060
0040
0080
0100
ENDCHAR
STARTCHAR 021C
ENCODING 540
SWIDTH 510 0
DWIDTH 25 0
BBX 20 44 2 -8
BITMAP
007C00
01FF00
03FF80
07FFC0
0F0FE0
1C03E0
3803E0
3001E0
0001E0
0001E0
0001C0
0003C0
000380
000700
000E00
001C00
003800
00FF00
01FF80
03FFC0
0FFFE0
1C1FE0
1007F0
0003F0
0001F0
0001F0
0001F0
0001F0
0001E0
0001E0
0003E0
0003C0
0007C0
000780
000F00
001E00
003C00
007800
01F000
03C000
0F8000
3E0000
F00000
C00000
ENDCHAR
STARTCHAR 021D
ENCODING 541
SWIDTH 408 0
DWIDTH 20 0
BBX 16 34 1 -11
BITMAP
03F8
07FC
0FFE
1FFF
381F
600F
400F
000F
000E
001E
001C
0038
0070
00F0
03FC
07FE
0FFF
381F
201F
000F
000F
000F
000F
001E
001E
003C
003C
0078
00F0
01E0
0780
0E00
3800
E000
ENDCHAR
STARTCHAR 0224
ENCODING 548
SWIDTH 632 0
DWIDTH 31 0
BBX 26 46 4 -12
BITMAP
3FFFFF80
3F800F80
3E001F00
3C003F00
38003E00
70007C00
70007C00
6000F800
6001F000
6001F000
4003E000
4007E000
0007C000
000F8000
000F8000
001F0000
003F0000
003E0000
007C0000
00FC0000
00F80000
01F00000
01F00000
03E00000
07E00000
07C00000
0F800000
1F800000
1F000000
3F000000
3E000000
7C000000
FC000000
F8000000
FFFFFE00
00007F80
00000FC0
000007C0
000007C0
000007C0
000007C0
00000F80
00000F00
00001E00
00007800
0003E000
ENDCHAR
STARTCHAR 0225
ENCODING 549
SWIDTH 428 0
DWIDTH 21 0
BBX 18 31 2 -9
BITMAP
FFFF80
F80F80
E00F00
E01F00
C01E00
C03C00
807C00
807800
80F000
01F000
01E000
03C000
07C000
078000
0F0000
1F0000
1E0000
3C0000
7C0000
780000
F00000
FFFF80
000FC0
0007C0
0003C0
0003C0
000780
000700
000E00
003800
00C000
ENDCHAR
STARTCHAR 0228
ENCODING 552
SWIDTH 693 0
DWIDTH 34 0
BBX 28 46 3 -11
BITMAP
FFFFFFF0
07C007F0
078001F0
078000F0
07800070
07800030
07800030
07800030
07800010
07802010
07802010
07802000
07806000
07806000
07806000
0780E000
07FFE000
0781E000
07806000
07806000
07806000
07802010
07802010
07802010
07800010
07800030
07800030
07800030
07800030
07800070
07800070
078000F0
078003F0
FFFFFFF0
FFFFFFF0
00018000
00010000
00030000
0003E000
00007800
00003C00
00003C00
00003C00
00003C00
0018F800
0007E000
ENDCHAR
STARTCHAR 0229
ENCODING 553
SWIDTH 448 0
DWIDTH 22 0
BBX 18 32 2 -9
BITMAP
07F800
0E1C00
1C0E00
380F00
380780
780780
780780
F007C0
F007C0
F007C0
FFFFC0
F00000
F00000
F00000
F000C0
780080
780080
380180
380100
1C0300
0E0600
07FC00
008000
008000
018000
00F000
003800
001C00
001C00
001C00
0C3800
03F000
ENDCHAR
STARTCHAR 0232
ENCODING 562
SWIDTH 714 0
DWIDTH 35 0
BBX 32 42 2 0
BITMAP
001FFF00
001FFF00
00000000
00000000
00000000
00000000
00000000
FFFE0FFF
0FF001F8
07E000F0
03E00060
03F00040
01F000C0
01F80080
00F80080
00FC0100
007E0300
003E0200
003F0600
001F0400
001F8C00
000F8800
0007D800
0007D000
0003F000
0003E000
0001E000
0001E000
0001E000
0001E000
0001E000
0001E000
0001E000
0001E000
0001E000
0001E000
0001E000
0001E000
0001E000
0001E000
0001F000
007FFFC0
ENDCHAR
STARTCHAR 0233
ENCODING 563
SWIDTH 530 0
DWIDTH 26 0
BBX 24 42 1 -11
BITMAP
03FFE0
03FFE0
000000
000000
000000
000000
000000
000000
000000
FFE1FF
1F0078
0F0030
0F0030
070020
078060
078060
038040
03C0C0
03C0C0
01C080
01E180
00E180
00F180
00F100
007300
007B00
007A00
003E00
003E00
003C00
001C00
001C00
001800
001800
001800
183000
3C3000
3C3000
3C6000
386000
1FC000
0F0000
ENDCHAR
STARTCHAR 0237
ENCODING 567
SWIDTH 326 0
DWIDTH 16 0
BBX 13 33 -2 -11
BITMAP
0FF8
0078
0078
0078
0078
0078
0078
0078
0078
0078
0078
0078
0078
0078
0078
0078
0078
0078
0078
0078
0078
0078
0078
0078
0078
0078
F078
F078
F070
E0F0
60E0
73C0
1F00
ENDCHAR
STARTCHAR 0243
ENCODING 579
SWIDTH 693 0
DWIDTH 34 0
BBX 28 35 4 0
BITMAP
FFFFF000
0F803C00
07800F00
07800780
078003C0
078003C0
078001E0
078001E0
078001E0
078001E0
078003E0
078003C0
078003C0
07800780
07800700
07801C00
07FFF000
07803C00
07800F00
07800780
078003C0
078003E0
078003E0
078001E0
FFFE01F0
078001F0
078001F0
078001E0
078003E0
078003E0
078003C0
07800780
07800F00
0F803E00
FFFFF000
ENDCHAR
STARTCHAR 0254
ENCODING 596
SWIDTH 448 0
DWIDTH 22 0
BBX 17 22 3 1
BITMAP
0FF000
303800
601C00
400E00
C00F00
800700
800700
800780
000780
000780
000780
000780
000780
700780
F80780
F80F00
F80F00
E00E00
600E00
601C00
303800
1FF000
ENDCHAR
STARTCHAR 0259
ENCODING 601
SWIDTH 448 0
DWIDTH 22 0
BBX 18 22 2 1
BITMAP
0FF800
181C00
300E00
200F00
600700
400780
400780
C007C0
0003C0
0003C0
0003C0
FFFFC0
F003C0
F003C0
F003C0
780780
780780
780700
380700
1C0E00
1E1C00
07F800
ENDCHAR
STARTCHAR 025B
ENCODING 603
SWIDTH 448 0
DWIDTH 22 0
BBX 18 22 2 1
BITMAP
0FFC00
3C0700
780380
7803C0
F003C0
F003C0
F00380
F00000
780000
3C0000
0FE000
1C0000
380000
780000
F003C0
F003C0
F001C0
F001C0
F800C0
780080
3C0300
0FFC00
ENDCHAR
STARTCHAR 0280
ENCODING 640
SWIDTH 510 0
DWIDTH 25 0
BBX 22 22 2 0
BITMAP
FFFC00
1E0F00
1E0780
1E03C0
1E03C0
1E03C0
1E03C0
1E03C0
1E0780
1E0F00
1FF800
1E0E00
1E0700
1E0780
1E0380
1E03C0
1E03C0
1E03C4
1E03C4
1E03C4
1E03E8
FFC1F8
ENDCHAR
STARTCHAR 0292
ENCODING 658
SWIDTH 469 0
DWIDTH 23 0
BBX 19 33 2 -11
BITMAP
3FFFC0
3FFFC0
3FFF80
3FFF00
380200
300600
200C00
200800
201000
002000
004000
00C000
018000
03FC00
031F00
040780
0403C0
0003C0
0003E0
0001E0
0001E0
0001E0
0001E0
7801E0
FC01E0
FC01E0
F801E0
F003C0
E003C0
600780
300F00
1C1E00
07F000
ENDCHAR
STARTCHAR 02BB
ENCODING 699
SWIDTH 204 0
DWIDTH 10 0
BBX 6 11 2 24
BITMAP
08
10
20
40
40
C0
F8
FC
FC
7C
38
ENDCHAR
STARTCHAR 02BC
ENCODING 700
SWIDTH 204 0
DWIDTH 10 0
BBX 6 11 2 24
BITMAP
70
F8
FC
FC
7C
0C
08
08
10
20
40
ENDCHAR
STARTCHAR 02BD
ENCODING 701
SWIDTH 204 0
DWIDTH 10 0
BBX 6 11 2 24
BITMAP
38
7C
FC
FC
F8
C0
40
40
20
10
08
ENDCHAR
STARTCHAR 02BE
ENCODING 702
SWIDTH 204 0
DWIDTH 10 0
BBX 6 10 2 25
BITMAP
C0
30
18
0C
0C
0C
0C
18
30
E0
ENDCHAR
STARTCHAR 02BF
ENCODING 703
SWIDTH 204 0
DWIDTH 10 0
BBX 6 10 2 25
BITMAP
1C
30
60
C0
C0
C0
C0
60
70
1C
ENDCHAR
STARTCHAR 02C6
ENCODING 710
SWIDTH 448 0
DWIDTH 22 0
BBX 13 8 4 25
BITMAP
0300
0700
0780
0F80
1CC0
1860
2030
C008
ENDCHAR
STARTCHAR 02C7
ENCODING 711
SWIDTH 448 0
DWIDTH 22 0
BBX 13 8 4 25
BITMAP
C008
6018
3030
18E0
1DC0
0FC0
0780
0700
ENDCHAR
STARTCHAR 02C9
ENCODING 713
SWIDTH 428 0
DWIDTH 21 0
BBX 13 2 4 28
BITMAP
FFF8
FFF8
ENDCHAR
STARTCHAR 02CA
ENCODING 714
SWIDTH 448 0
DWIDTH 22 0
BBX 8 9 10 25
BITMAP
07
0F
0F
1E
3C
30
60
C0
80
ENDCHAR
STARTCHAR 02CB
ENCODING 715
SWIDTH 448 0
DWIDTH 22 0
BBX 8 9 4 25
BITMAP
E0
F0
F0
78
3C
0C
06
03
01
ENDCHAR
STARTCHAR 02D8
ENCODING 728
SWIDTH 448 0
DWIDTH 22 0
BBX 14 7 4 26
BITMAP
8004
800C
4008
6018
3030
1FE0
0FC0
ENDCHAR
STARTCHAR 02D9
ENCODING 729
SWIDTH 428 0
DWIDTH 21 0
BBX 5 5 8 27
BITMAP
70
F8
F8
F8
70
ENDCHAR
STARTCHAR 02DA
ENCODING 730
SWIDTH 428 0
DWIDTH 21 0
BBX 9 9 6 25
BITMAP
3E00
6300
C180
8080
8080
8080
C180
6300
3E00
ENDCHAR
STARTCHAR 02DB
ENCODING 731
SWIDTH 428 0
DWIDTH 21 0
BBX 8 11 4 -11
BITMAP
06
0C
38
30
60
E0
E0
E0
F3
7E
3C
ENDCHAR
STARTCHAR 02DC
ENCODING 732
SWIDTH 448 0
DWIDTH 22 0
BBX 13 5 4 27
BITMAP
3C08
7F08
FFF8
C7F8
81E0
ENDCHAR
STARTCHAR 02DD
ENCODING 733
SWIDTH 428 0
DWIDTH 21 0
BBX 14 9 6 25
BITMAP
070C
0F1C
0F3C
1E78
3C70
30E0
61C0
C100
8000
ENDCHAR
STARTCHAR 0300
ENCODING 768
SWIDTH 0 0
DWIDTH 0 0
BBX 8 9 -20 25
BITMAP
E0
F0
F0
78
3C
0C
06
03
01
ENDCHAR
STARTCHAR 0301
ENCODING 769
SWIDTH 0 0
DWIDTH 0 0
BBX 8 9 -14 25
BITMAP
07
0F
0F
1E
3C
30
60
C0
80
ENDCHAR
STARTCHAR 0302
ENCODING 770
SWIDTH 0 0
DWIDTH 0 0
BBX 13 8 -19 25
BITMAP
0600
0700
0F00
0F80
1980
30C0
6020
8018
ENDCHAR
STARTCHAR 0303
ENCODING 771
SWIDTH 0 0
DWIDTH 0 0
BBX 13 5 -19 27
BITMAP
3C08
7F08
FFF8
C7F8
81E0
ENDCHAR
STARTCHAR 0304
ENCODING 772
SWIDTH 0 0
DWIDTH 0 0
BBX 13 2 -19 28
BITMAP
FFF8
FFF8
ENDCHAR
STARTCHAR 0305
ENCODING 773
SWIDTH 0 0
DWIDTH 0 0
BBX 25 2 -25 40
BITMAP
FFFFFF80
FFFFFF80
ENDCHAR
STARTCHAR 0306
ENCODING 774
SWIDTH 0 0
DWIDTH 0 0
BBX 14 7 -19 26
BITMAP
8004
800C
4008
6018
3030
1FE0
0FC0
ENDCHAR
STARTCHAR 0307
ENCODING 775
SWIDTH 0 0
DWIDTH 0 0
BBX 5 5 -15 27
BITMAP
70
F8
F8
F8
70
ENDCHAR
STARTCHAR 0308
ENCODING 776
SWIDTH 0 0
DWIDTH 0 0
BBX 14 5 -20 27
BITMAP
7038
F87C
F87C
F87C
7038
ENDCHAR
STARTCHAR 030A
ENCODING 778
SWIDTH 0 0
DWIDTH 0 0
BBX 9 9 -17 25
BITMAP
3E00
6300
C180
8080
8080
8080
C180
6300
3E00
ENDCHAR
STARTCHAR 030B
ENCODING 779
SWIDTH 0 0
DWIDTH 0 0
BBX 14 9 -17 25
BITMAP
070C
0F1C
0F3C
1E78
3C70
30E0
61C0
C100
8000
ENDCHAR
STARTCHAR 030C
ENCODING 780
SWIDTH 0 0
DWIDTH 0 0
BBX 13 8 -19 25
BITMAP
8018
C030
6060
38C0
1DC0
1F80
0F00
0700
ENDCHAR
STARTCHAR 030F
ENCODING 783
SWIDTH 0 0
DWIDTH 0 0
BBX 14 9 -23 25
BITMAP
E180
F3C0
F1E0
78F0
3C70
0C38
061C
0304
0100
ENDCHAR
STARTCHAR 0311
ENCODING 785
SWIDTH 0 0
DWIDTH 0 0
BBX 12 8 -19 25
BITMAP
0700
1F80
3FC0
30E0
6020
C030
8010
8000
ENDCHAR
STARTCHAR 0312
ENCODING 786
SWIDTH 0 0
DWIDTH 0 0
BBX 6 11 -16 24
BITMAP
08
10
20
40
40
C0
F8
FC
FC
7C
38
ENDCHAR
STARTCHAR 0313
ENCODING 787
SWIDTH 0 0
DWIDTH 0 0
BBX 6 11 -16 24
BITMAP
70
F8
FC
FC
7C
0C
08
08
10
20
40
ENDCHAR
STARTCHAR 0314
ENCODING 788
SWIDTH 0 0
DWIDTH 0 0
BBX 6 11 -16 24
BITMAP
38
7C
FC
FC
F8
C0
40
40
20
10
08
ENDCHAR
STARTCHAR 0316
ENCODING 790
SWIDTH 0 0
DWIDTH 0 0
BBX 8 9 -20 -12
BITMAP
E0
F0
F0
78
3C
0C
06
03
01
ENDCHAR
STARTCHAR 0317
ENCODING 791
SWIDTH 0 0
DWIDTH 0 0
BBX 8 9 -14 -12
BITMAP
07
0F
0F
1E
3C
30
60
C0
80
ENDCHAR
STARTCHAR 0323
ENCODING 803
SWIDTH 0 0
DWIDTH 0 0
BBX 5 5 -15 -10
BITMAP
70
F8
F8
F8
70
ENDCHAR
STARTCHAR 0324
ENCODING 804
SWIDTH 0 0
DWIDTH 0 0
BBX 14 5 -20 -10
BITMAP
7038
F87C
F87C
F87C
7038
ENDCHAR
STARTCHAR 0325
ENCODING 805
SWIDTH 0 0
DWIDTH 0 0
BBX 9 10 -17 -11
BITMAP
1C00
6300
4100
8080
8080
8080
8080
4100
6300
1C00
ENDCHAR
STARTCHAR 0326
ENCODING 806
SWIDTH 0 0
DWIDTH 0 0
BBX 5 9 -15 -11
BITMAP
70
F8
F8
78
18
18
10
20
40
ENDCHAR
STARTCHAR 0327
ENCODING 807
SWIDTH 0 0
DWIDTH 0 0
BBX 10 10 -18 -10
BITMAP
0800
0800
1800
0F00
0380
01C0
01C0
01C0
C380
3F00
ENDCHAR
STARTCHAR 0328
ENCODING 808
SWIDTH 0 0
DWIDTH 0 0
BBX 8 11 -19 -11
BITMAP
06
0C
38
30
60
E0
E0
E0
F3
7E
3C
ENDCHAR
STARTCHAR 032C
ENCODING 812
SWIDTH 0 0
DWIDTH 0 0
BBX 13 8 -19 -11
BITMAP
8018
C030
6060
38C0
1DC0
1F80
0F00
0700
ENDCHAR
STARTCHAR 032D
ENCODING 813
SWIDTH 0 0
DWIDTH 0 0
BBX 13 8 -19 -12
BITMAP
0600
0700
0F00
0F80
1980
30C0
6020
8018
ENDCHAR
STARTCHAR 032E
ENCODING 814
SWIDTH 0 0
DWIDTH 0 0
BBX 14 7 -19 -11
BITMAP
8004
800C
4008
6018
3030
1FE0
0FC0
ENDCHAR
STARTCHAR 032F
ENCODING 815
SWIDTH 0 0
DWIDTH 0 0
BBX 12 8 -19 -12
BITMAP
0700
1F80
3FC0
30E0
6020
C030
8010
8000
ENDCHAR
STARTCHAR 0330
ENCODING 816
SWIDTH 0 0
DWIDTH 0 0
BBX 13 5 -19 -9
BITMAP
3C08
7F08
FFF8
C7F8
81E0
ENDCHAR
STARTCHAR 0331
ENCODING 817
SWIDTH 0 0
DWIDTH 0 0
BBX 13 2 -19 -9
BITMAP
FFF8
FFF8
ENDCHAR
STARTCHAR 0332
ENCODING 818
SWIDTH 0 0
DWIDTH 0 0
BBX 25 2 -25 -8
BITMAP
FFFFFF80
FFFFFF80
ENDCHAR
STARTCHAR 0333
ENCODING 819
SWIDTH 0 0
DWIDTH 0 0
BBX 25 8 -25 -13
BITMAP
FFFFFF80
FFFFFF80
00000000
00000000
00000000
00000000
FFFFFF80
FFFFFF80
ENDCHAR
STARTCHAR 033E
ENCODING 830
SWIDTH 0 0
DWIDTH 0 0
BBX 4 11 -15 25
BITMAP
C0
20
30
30
70
60
E0
C0
C0
C0
30
ENDCHAR
STARTCHAR 0342
ENCODING 834
SWIDTH 0 0
DWIDTH 0 0
BBX 17 6 -21 27
BITMAP
3E0700
678780
C3C780
F1E180
F0F300
703E00
ENDCHAR
STARTCHAR 0343
ENCODING 835
SWIDTH 0 0
DWIDTH 0 0
BBX 6 11 -16 25
BITMAP
70
F8
FC
FC
7C
04
04
0C
08
10
20
ENDCHAR
STARTCHAR 0344
ENCODING 836
SWIDTH 0 0
DWIDTH 0 0
BBX 15 12 -20 26
BITMAP
0070
0070
00F0
00E0
00E0
01C0
01C0
719C
F93E
FB3E
F83E
701C
ENDCHAR
STARTCHAR 0345
ENCODING 837
SWIDTH 0 0
DWIDTH 0 0
BBX 4 10 -15 -14
BITMAP
20
60
60
70
70
F0
F0
F0
F0
60
ENDCHAR
STARTCHAR 0351
ENCODING 849
SWIDTH 0 0
DWIDTH 0 0
BBX 6 10 -15 25
BITMAP
1C
30
60
C0
C0
C0
C0
60
70
1C
ENDCHAR
STARTCHAR 0357
ENCODING 855
SWIDTH 0 0
DWIDTH 0 0
BBX 6 10 -15 25
BITMAP
C0
30
18
0C
0C
0C
0C
18
30
E0
ENDCHAR
STARTCHAR 0359
ENCODING 857
SWIDTH 0 0
DWIDTH 0 0
BBX 11 12 -18 -13
BITMAP
0C00
0C00
0C00
CC60
E4E0
75C0
0E00
75C0
E4E0
CC60
0C00
0C00
ENDCHAR
STARTCHAR 035C
ENCODING 860
SWIDTH 0 0
DWIDTH 0 0
BBX 28 6 -14 -10
BITMAP
C0000030
780001E0
1F000F80
07FFFE00
01FFF800
003FC000
ENDCHAR
STARTCHAR 035D
ENCODING 861
SWIDTH 0 0
DWIDTH 0 0
BBX 28 6 -14 35
BITMAP
C0000030
780001E0
1F000F80
07FFFE00
01FFF800
003FC000
ENDCHAR
STARTCHAR 0361
ENCODING 865
SWIDTH 0 0
DWIDTH 0 0
BBX 28 7 -14 34
BITMAP
001F8000
01FFF800
07FFFE00
1F801F80
380001C0
E0000070
80000010
ENDCHAR
STARTCHAR 0363
ENCODING 867
SWIDTH 0 0
DWIDTH 0 0
BBX 13 13 -19 26
BITMAP
1F00
3180
60C0
70C0
70C0
20C0
07C0
38C0
60C0
E0C0
E1C8
E2C8
7CF0
ENDCHAR
STARTCHAR 0364
ENCODING 868
SWIDTH 0 0
DWIDTH 0 0
BBX 11 13 -19 26
BITMAP
1F00
3380
71C0
60C0
E0E0
E0E0
FFE0
E000
E000
E020
7040
30C0
1F80
ENDCHAR
STARTCHAR 0365
ENCODING 869
SWIDTH 0 0
DWIDTH 0 0
BBX 7 19 -16 26
BITMAP
30
78
78
30
00
00
F0
30
30
30
30
30
30
30
30
30
30
30
FE
ENDCHAR
STARTCHAR 0366
ENCODING 870
SWIDTH 0 0
DWIDTH 0 0
BBX 12 13 -19 26
BITMAP
0F00
39C0
70E0
6060
E070
E070
E070
E070
E070
6060
70E0
30C0
1F80
ENDCHAR
STARTCHAR 0367
ENCODING 871
SWIDTH 0 0
DWIDTH 0 0
BBX 14 13 -21 26
BITMAP
F0F0
3030
3030
3030
3030
3030
3030
3030
3030
3070
3070
18B0
1F3C
ENDCHAR
STARTCHAR 0368
ENCODING 872
SWIDTH 0 0
DWIDTH 0 0
BBX 10 13 -19 26
BITMAP
1F00
3180
70C0
60C0
E1C0
E080
E000
E000
E040
E040
7040
3080
1F00
ENDCHAR
STARTCHAR 0369
ENCODING 873
SWIDTH 0 0
DWIDTH 0 0
BBX 13 19 -20 26
BITMAP
03E0
0060
0060
0060
0060
0060
1E60
3160
70E0
60E0
E060
E060
E060
E060
E060
E060
60E0
31E0
1F78
ENDCHAR
STARTCHAR 036A
ENCODING 874
SWIDTH 0 0
DWIDTH 0 0
BBX 14 19 -20 26
BITMAP
F000
3000
3000
3000
3000
3000
31C0
3660
3430
3830
3030
3030
3030
3030
3030
3030
3030
3030
FCFC
ENDCHAR
STARTCHAR 036B
ENCODING 875
SWIDTH 0 0
DWIDTH 0 0
BBX 22 13 -24 26
BITMAP
F3C3C0
366660
383870
383830
303030
303030
303030
303030
303030
303030
303030
303030
FCFCFC
ENDCHAR
STARTCHAR 036C
ENCODING 876
SWIDTH 0 0
DWIDTH 0 0
BBX 10 13 -17 26
BITMAP
F1C0
3240
34C0
38C0
3800
3800
3000
3000
3000
3000
3000
3000
FC00
ENDCHAR
STARTCHAR 036D
ENCODING 877
SWIDTH 0 0
DWIDTH 0 0
BBX 9 16 -18 26
BITMAP
1000
1000
1000
3000
FF00
3000
3000
3000
3000
3000
3000
3000
3080
3080
3180
1F00
ENDCHAR
STARTCHAR 036E
ENCODING 878
SWIDTH 0 0
DWIDTH 0 0
BBX 15 13 -21 26
BITMAP
FE7E
3818
3810
1C10
1C20
0E20
0E20
0740
0740
0380
0380
0180
0100
ENDCHAR
STARTCHAR 036F
ENCODING 879
SWIDTH 0 0
DWIDTH 0 0
BBX 13 13 -19 26
BITMAP
FCF8
3860
3840
1C80
0F80
0F00
0700
0780
0D80
09C0
10E0
30E0
F9F8
ENDCHAR
STARTCHAR 0374
ENCODING 884
SWIDTH 244 0
DWIDTH 12 0
BBX 8 11 2 25
BITMAP
07
0F
0F
1E
1C
3C
38
70
60
C0
80
ENDCHAR
STARTCHAR 0375
ENCODING 885
SWIDTH 244 0
DWIDTH 12 0
BBX 8 11 2 -14
BITMAP
01
03
06
0E
1C
3C
38
78
F0
F0
E0
ENDCHAR
STARTCHAR 037A
ENCODING 890
SWIDTH 448 0
DWIDTH 22 0
BBX 4 10 9 -14
BITMAP
60
60
60
60
60
F0
F0
F0
F0
60
ENDCHAR
STARTCHAR 037E
ENCODING 894
SWIDTH 285 0
DWIDTH 14 0
BBX 7 31 4 -8
BITMAP
78
FC
FC
FC
78
00
00
00
00
00
00
00
00
00
00
00
78
FC
FC
FE
7E
0E
06
06
04
0C
08
18
30
60
40
ENDCHAR
STARTCHAR 0384
ENCODING 900
SWIDTH 244 0
DWIDTH 12 0
BBX 6 11 5 25
BITMAP
1C
3C
3C
38
78
70
60
60
C0
C0
80
ENDCHAR
STARTCHAR 0385
ENCODING 901
SWIDTH 428 0
DWIDTH 21 0
BBX 15 12 3 25
BITMAP
0030
0070
00F0
00F0
00E0
00C0
01C0
719C
F93E
FB3E
F83E
701C
ENDCHAR
STARTCHAR 0386
ENCODING 902
SWIDTH 775 0
DWIDTH 38 0
BBX 34 36 3 0
BITMAP
0E00000000
0E00C00000
1E00C00000
1E00E00000
1C01E00000
3801E00000
3803F00000
3003F00000
2003F00000
6006F80000
4006F80000
0006F80000
000C7C0000
000C7C0000
000C7C0000
00183E0000
00183E0000
00181E0000
00301F0000
00301F0000
00700F0000
00600F8000
00600F8000
00E0078000
00FFFFC000
00FFFFC000
01C003C000
018003E000
018003E000
038001E000
030001F000
070000F000
070000F800
0F8000F800
FFF81FFFC0
FFF81FFFC0
ENDCHAR
STARTCHAR 0387
ENCODING 903
SWIDTH 306 0
DWIDTH 15 0
BBX 7 7 4 18
BITMAP
38
7C
FE
FE
FE
7C
38
ENDCHAR
STARTCHAR 0388
ENCODING 904
SWIDTH 938 0
DWIDTH 46 0
BBX 38 36 5 0
BITMAP
1C00000000
1C3FFFFFFC
3C3FFFFFFC
3801F000FC
3801F0003C
7001F0001C
7001F0001C
6001F0000C
C001F0000C
C001F0000C
8001F00004
0001F00804
0001F00800
0001F00800
0001F01800
0001F01800
0001F03800
0001FFF800
0001FFF800
0001F07800
0001F01800
0001F01800
0001F00800
0001F00804
0001F00804
0001F00804
0001F00004
0001F0000C
0001F0000C
0001F0000C
0001F0001C
0001F0001C
0001F0003C
0001F000FC
003FFFFFFC
003FFFFFFC
ENDCHAR
STARTCHAR 0389
ENCODING 905
SWIDTH 1020 0
DWIDTH 50 0
BBX 43 36 5 0
BITMAP
1C0000000000
3C3FFF07FFE0
3C3FFF07FFE0
3801F0003E00
3801F0003E00
7001F0003E00
7001F0003E00
6001F0003E00
C001F0003E00
C001F0003E00
8001F0003E00
0001F0003E00
0001F0003E00
0001F0003E00
0001F0003E00
0001F0003E00
0001F0003E00
0001FFFFFE00
0001FFFFFE00
0001F0003E00
0001F0003E00
0001F0003E00
0001F0003E00
0001F0003E00
0001F0003E00
0001F0003E00
0001F0003E00
0001F0003E00
0001F0003E00
0001F0003E00
0001F0003E00
0001F0003E00
0001F0003E00
0001F0003E00
003FFF07FFE0
003FFF07FFE0
ENDCHAR
STARTCHAR 038A
ENCODING 906
SWIDTH 632 0
DWIDTH 31 0
BBX 24 36 5 0
BITMAP
1C0000
3C3FFF
3C3FFF
3801F0
3801F0
7001F0
7001F0
6001F0
C001F0
C001F0
8001F0
0001F0
0001F0
0001F0
0001F0
0001F0
0001F0
0001F0
0001F0
0001F0
0001F0
0001F0
0001F0
0001F0
0001F0
0001F0
0001F0
0001F0
0001F0
0001F0
0001F0
0001F0
0001F0
0001F0
003FFF
003FFF
ENDCHAR
STARTCHAR 038C
ENCODING 908
SWIDTH 836 0
DWIDTH 41 0
BBX 34 37 5 -1
BITMAP
08007E0000
1C01FF8000
3C0781E000
380E007000
381C003800
703C003C00
7078001E00
6078001E00
C0F0000F00
C0F0000F00
81F0000F80
01F0000F80
01E0000780
01E0000780
03E00007C0
03E00007C0
03E00007C0
03E00007C0
03E00007C0
03E00007C0
03E00007C0
03E00007C0
03E00007C0
03E0000780
01E0000780
01E0000F80
01F0000F80
00F0000F00
00F0000F00
0078001E00
0078001E00
003C003C00
001C003800
000E007000
000781E000
0003FFC000
00007E0000
ENDCHAR
STARTCHAR 038E
ENCODING 910
SWIDTH 857 0
DWIDTH 42 0
BBX 37 36 4 0
BITMAP
0C700003E0
1C3C000FF0
1C0F0018F8
3C038030F8
3801C061F8
3800E061F8
7000F0C1F8
600078C0F0
6000388000
C0003D8000
80003D8000
00001F8000
00001F0000
00001F0000
00001F0000
00001F0000
00001F0000
00001F0000
00001F0000
00001F0000
00001F0000
00001F0000
00001F0000
00001F0000
00001F0000
00001F0000
00001F0000
00001F0000
00001F0000
00001F0000
00001F0000
00001F0000
00001F0000
00001F0000
0007FFFC00
0007FFFC00
ENDCHAR
STARTCHAR 038F
ENCODING 911
SWIDTH 877 0
DWIDTH 43 0
BBX 35 36 5 0
BITMAP
1C007F8000
3C03FFF000
3C07C0F800
381F003E00
383E001F00
703C000F00
707C000F80
60F80007C0
C0F80007C0
C0F00003C0
81F00003E0
01F00003E0
01F00003E0
01F00003E0
01F00003E0
01F00003E0
01F00003E0
00F00003C0
00F00003C0
00F80007C0
0078000780
003C000780
003C000F00
001E001E00
000F003C00
0003C07800
008071C040
0080318040
0080318040
0080318040
00C03180C0
00C03180C0
00FFF1FFC0
00FFF1FFC0
00FFF1FFC0
00FFF1FFC0
ENDCHAR
STARTCHAR 0390
ENCODING 912
SWIDTH 285 0
DWIDTH 14 0
BBX 15 38 -1 -1
BITMAP
0030
0070
0070
00F0
00E0
00C0
01C0
719C
F9BE
F93E
F83E
701C
0000
0000
0000
0780
0780
0780
0780
0780
0700
0700
0700
0700
0600
0600
0600
0400
0400
0400
0400
0400
0420
0430
0670
07F0
03E0
01E0
ENDCHAR
STARTCHAR 0391
ENCODING 913
SWIDTH 755 0
DWIDTH 37 0
BBX 34 35 2 0
BITMAP
0000C00000
0000C00000
0000E00000
0001E00000
0001E00000
0003F00000
0003F00000
0003F00000
0006F80000
0006F80000
0006F80000
000C7C0000
000C7C0000
000C7C0000
00183E0000
00183E0000
00181E0000
00301F0000
00301F0000
00700F0000
00600F8000
00600F8000
00E0078000
00FFFFC000
00FFFFC000
01C003C000
018003E000
018003E000
038001E000
030001F000
070000F000
070000F800
0F8000F800
FFF81FFFC0
FFF81FFFC0
ENDCHAR
STARTCHAR 0392
ENCODING 914
SWIDTH 693 0
DWIDTH 34 0
BBX 28 35 3 0
BITMAP
FFFFF000
FFFFFC00
07C01F00
07C00780
07C003C0
07C003C0
07C001E0
07C001E0
07C001E0
07C001E0
07C001E0
07C001C0
07C003C0
07C00380
07C00700
07C00E00
07FFF800
07FFFC00
07C00F00
07C00780
07C003C0
07C003E0
07C001E0
07C001F0
07C001F0
07C001F0
07C001F0
07C001F0
07C001F0
07C003E0
07C003E0
07C007C0
07C00F80
FFFFFE00
FFFFF000
ENDCHAR
STARTCHAR 0393
ENCODING 915
SWIDTH 653 0
DWIDTH 32 0
BBX 26 35 3 0
BITMAP
FFFFFFC0
FFFFFFC0
07C00FC0
07C003C0
07C001C0
07C001C0
07C000C0
07C000C0
07C000C0
07C000C0
07C00040
07C00040
07C00040
07C00000
07C00000
07C00000
07C00000
07C00000
07C00000
07C00000
07C00000
07C00000
07C00000
07C00000
07C00000
07C00000
07C00000
07C00000
07C00000
07C00000
07C00000
07C00000
07C00000
FFFE0000
FFFE0000
ENDCHAR
STARTCHAR 0394
ENCODING 916
SWIDTH 632 0
DWIDTH 31 0
BBX 27 35 3 0
BITMAP
00040000
000C0000
000E0000
001E0000
001F0000
001F0000
003F0000
003F8000
006F8000
0067C000
0047C000
00C3C000
00C3E000
0083E000
0181E000
0181F000
0301F000
0300F800
0200F800
06007800
06007C00
04007C00
0C003E00
0C003E00
18003E00
18001F00
10001F00
30000F00
30000F80
60000F80
600007C0
7FFFFFC0
FFFFFFC0
FFFFFFE0
FFFFFFE0
ENDCHAR
STARTCHAR 0395
ENCODING 917
SWIDTH 693 0
DWIDTH 34 0
BBX 28 35 3 0
BITMAP
FFFFFFF0
FFFFFFF0
07C003F0
07C000F0
07C00070
07C00070
07C00030
07C00030
07C00030
07C00010
07C02010
07C02000
07C02000
07C06000
07C06000
07C0E000
07FFE000
07FFE000
07C1E000
07C06000
07C06000
07C02000
07C02010
07C02010
07C02010
07C00010
07C00030
07C00030
07C00030
07C00070
07C00070
07C000F0
07C003F0
FFFFFFF0
FFFFFFF0
ENDCHAR
STARTCHAR 0396
ENCODING 918
SWIDTH 653 0
DWIDTH 32 0
BBX 26 35 3 0
BITMAP
3FFFFFC0
3FFFFFC0
3F000F80
3E001F00
3C001F00
38003E00
30007E00
30007C00
6000F800
6001F800
6001F000
4003E000
4007E000
0007C000
000F8000
001F8000
001F0000
003E0000
007E0000
007C0000
00F80000
00F80040
01F00040
03E00040
03E000C0
07C000C0
0FC000C0
0F8001C0
1F0001C0
3F0003C0
3E0007C0
7C000FC0
FC001F80
FFFFFF80
FFFFFF80
ENDCHAR
STARTCHAR 0397
ENCODING 919
SWIDTH 775 0
DWIDTH 38 0
BBX 33 35 3 0
BITMAP
FFFC1FFF80
FFFC1FFF80
07C000F800
07C000F800
07C000F800
07C000F800
07C000F800
07C000F800
07C000F800
07C000F800
07C000F800
07C000F800
07C000F800
07C000F800
07C000F800
07C000F800
07FFFFF800
07FFFFF800
07C000F800
07C000F800
07C000F800
07C000F800
07C000F800
07C000F800
07C000F800
07C000F800
07C000F800
07C000F800
07C000F800
07C000F800
07C000F800
07C000F800
07C000F800
FFFC1FFF80
FFFC1FFF80
ENDCHAR
STARTCHAR 0398
ENCODING 920
SWIDTH 673 0
DWIDTH 33 0
BBX 28 37 3 -1
BITMAP
001F8000
007FE000
01E07800
03801C00
07000E00
0F000F00
1E000780
1E000780
3C0003C0
3C0003C0
7C0003E0
7C0003E0
798019E0
798019E0
F98019F0
F98019F0
F9FFF9F0
F9FFF9F0
F9FFF9F0
F9FFF9F0
F98019F0
F98019F0
F98019F0
F98019E0
780001E0
780003E0
7C0003E0
3C0003C0
3C0003C0
1E000780
1E000780
0F000F00
07000E00
03801C00
01E07800
00FFF000
001F8000
ENDCHAR
STARTCHAR 0399
ENCODING 921
SWIDTH 387 0
DWIDTH 19 0
BBX 14 35 3 0
BITMAP
FFFC
FFFC
07C0
07C0
07C0
07C0
07C0
07C0
07C0
07C0
07C0
07C0
07C0
07C0
07C0
07C0
07C0
07C0
07C0
07C0
07C0
07C0
07C0
07C0
07C0
07C0
07C0
07C0
07C0
07C0
07C0
07C0
07C0
FFFC
FFFC
ENDCHAR
STARTCHAR 039A
ENCODING 922
SWIDTH 755 0
DWIDTH 37 0
BBX 32 35 3 0
BITMAP
FFFC3FFE
FFFC3FFE
07C007E0
07C003C0
07C00380
07C00700
07C00600
07C00C00
07C01800
07C03000
07C06000
07C0C000
07C18000
07C38000
07C78000
07CFC000
07DBE000
07D3E000
07E1F000
07E1F000
07C0F800
07C0F800
07C07C00
07C07C00
07C03E00
07C03F00
07C01F00
07C01F80
07C00F80
07C00FC0
07C007C0
07C007E0
07C007F0
FFFC7FFF
FFFC7FFF
ENDCHAR
STARTCHAR 039B
ENCODING 923
SWIDTH 755 0
DWIDTH 37 0
BBX 34 35 2 0
BITMAP
0000C00000
0000C00000
0000E00000
0001E00000
0001E00000
0003F00000
0003F00000
0003F00000
0006F80000
0006F80000
0006F80000
000C7C0000
000C7C0000
000C7C0000
00183E0000
00183E0000
00181E0000
00301F0000
00301F0000
00700F0000
00600F8000
00600F8000
00E0078000
00C007C000
00C007C000
01C003C000
018003E000
018003E000
030001E000
030001F000
070000F000
070000F800
0F8000F800
FFF81FFFC0
FFF81FFFC0
ENDCHAR
STARTCHAR 039C
ENCODING 924
SWIDTH 836 0
DWIDTH 41 0
BBX 36 36 3 -1
BITMAP
FFE0007FF0
FFE0007FF0
0FE0007E00
07F0007E00
07F000FE00
07F000FE00
06F800BE00
06F800BE00
06F801BE00
067801BE00
067C013E00
067C013E00
063C033E00
063E033E00
063E023E00
061E023E00
061E063E00
061F063E00
061F043E00
060F043E00
060F8C3E00
060F8C3E00
0607883E00
0607883E00
0607D83E00
0603D83E00
0603D03E00
0603F03E00
0603F03E00
0601F03E00
0601E03E00
0E01E03E00
0F00E03E00
1F80E03E00
FFF0C3FFF0
FFF043FFF0
ENDCHAR
STARTCHAR 039D
ENCODING 925
SWIDTH 775 0
DWIDTH 38 0
BBX 33 36 3 -1
BITMAP
FFC007FF80
FFC007FF80
0FE0007C00
07F0003800
07F0003800
07F8003000
06F8003000
06FC003000
067E003000
063E003000
063F003000
061F003000
061F803000
060FC03000
0607C03000
0607E03000
0603E03000
0601F03000
0601F83000
0600F83000
0600FC3000
06007E3000
06003E3000
06003F3000
06001F3000
06000FB000
06000FF000
060007F000
060007F000
060003F000
0E0001F000
0E0001F000
1F0000F000
FFF000F000
FFF0007000
0000003000
ENDCHAR
STARTCHAR 039E
ENCODING 926
SWIDTH 673 0
DWIDTH 33 0
BBX 26 35 4 0
BITMAP
FFFFFFC0
FFFFFFC0
FFFFFFC0
FFFFFFC0
C00000C0
C00000C0
C00000C0
C00000C0
C00000C0
C00000C0
C00000C0
03003000
03003000
03003000
03003000
03FFF000
03FFF000
03FFF000
03FFF000
03003000
03003000
03003000
03003000
00000000
C00000C0
C00000C0
C00000C0
C00000C0
C00000C0
C00000C0
C00000C0
FFFFFFC0
FFFFFFC0
FFFFFFC0
FFFFFFC0
ENDCHAR
STARTCHAR 039F
ENCODING 927
SWIDTH 673 0
DWIDTH 33 0
BBX 28 37 3 -1
BITMAP
001F8000
007FE000
01E07800
03801C00
07000E00
0F000F00
1E000780
1E000780
3C0003C0
3C0003C0
7C0003E0
7C0003E0
780001E0
780001E0
F80001F0
F80001F0
F80001F0
F80001F0
F80001F0
F80001F0
F80001F0
F80001F0
F80001F0
F80001E0
780001E0
780003E0
7C0003E0
3C0003C0
3C0003C0
1E000780
1E000780
0F000F00
07000E00
03801C00
01E07800
00FFF000
001F8000
ENDCHAR
STARTCHAR 03A0
ENCODING 928
SWIDTH 775 0
DWIDTH 38 0
BBX 33 35 3 0
BITMAP
FFFFFFFF80
FFFFFFFF80
07C000F800
07C000F800
07C000F800
07C000F800
07C000F800
07C000F800
07C000F800
07C000F800
07C000F800
07C000F800
07C000F800
07C000F800
07C000F800
07C000F800
07C000F800
07C000F800
07C000F800
07C000F800
07C000F800
07C000F800
07C000F800
07C000F800
07C000F800
07C000F800
07C000F800
07C000F800
07C000F800
07C000F800
07C000F800
07C000F800
07C000F800
FFFC1FFF80
FFFC1FFF80
ENDCHAR
STARTCHAR 03A1
ENCODING 929
SWIDTH 673 0
DWIDTH 33 0
BBX 28 35 3 0
BITMAP
FFFFF000
FFFFFE00
07C00F80
07C007C0
07C003E0
07C003E0
07C001F0
07C001F0
07C001F0
07C001F0
07C001F0
07C001F0
07C003E0
07C003E0
07C003C0
07C007C0
07C01F00
07FFFE00
07FFF000
07C00000
07C00000
07C00000
07C00000
07C00000
07C00000
07C00000
07C00000
07C00000
07C00000
07C00000
07C00000
07C00000
07C00000
FFFE0000
FFFE0000
ENDCHAR
STARTCHAR 03A3
ENCODING 931
SWIDTH 632 0
DWIDTH 31 0
BBX 25 35 3 0
BITMAP
7FFFFF80
7FFFFF80
7E001F80
3F000780
1F000380
1F800380
0FC00180
07C00180
07E00080
03F00080
01F00080
00F80080
00FC0000
007C0000
003E0000
003E0000
001F0000
000F0000
000E0000
000C0000
00180000
00300000
00700080
00E00080
00C00080
01800080
03000080
06000180
0C000180
1C000180
18000380
3FFFFF80
7FFFFF80
FFFFFF80
FFFFFF80
ENDCHAR
STARTCHAR 03A4
ENCODING 932
SWIDTH 714 0
DWIDTH 35 0
BBX 28 35 4 0
BITMAP
FFFFFFF0
FFFFFFF0
FC0F81F0
F00F80F0
E00F8070
E00F8070
C00F8030
C00F8030
C00F8030
800F8010
800F8010
800F8010
800F8010
000F8000
000F8000
000F8000
000F8000
000F8000
000F8000
000F8000
000F8000
000F8000
000F8000
000F8000
000F8000
000F8000
000F8000
000F8000
000F8000
000F8000
000F8000
000F8000
000F8000
03FFFE00
03FFFE00
ENDCHAR
STARTCHAR 03A5
ENCODING 933
SWIDTH 632 0
DWIDTH 31 0
BBX 28 36 2 0
BITMAP
C00007C0
78001FE0
1E0031F0
070061F0
0380C3F0
01C0C3F0
01E183F0
00F181E0
00710000
007B0000
007B0000
003F0000
003E0000
003E0000
003E0000
003E0000
003E0000
003E0000
003E0000
003E0000
003E0000
003E0000
003E0000
003E0000
003E0000
003E0000
003E0000
003E0000
003E0000
003E0000
003E0000
003E0000
003E0000
003E0000
0FFFF800
0FFFF800
ENDCHAR
STARTCHAR 03A6
ENCODING 934
SWIDTH 836 0
DWIDTH 41 0
BBX 36 35 3 0
BITMAP
003FFFE000
003FFFE000
0000F80000
0000F80000
0000F80000
0000F80000
007FFFF000
03FFFFFC00
0F80F81F00
1F00F80780
3E00F807C0
3C00F803C0
7C00F803E0
7C00F801E0
F800F801F0
F800F801F0
F800F801F0
F800F801F0
F800F801F0
F800F801F0
F800F801F0
7800F801E0
7C00F803E0
3C00F803E0
3E00F807C0
1F00F80780
0F80F81F00
03FFFFFC00
007FFFF000
0000F80000
0000F80000
0000F80000
0000F80000
003FFFE000
003FFFE000
ENDCHAR
STARTCHAR 03A7
ENCODING 935
SWIDTH 734 0
DWIDTH 36 0
BBX 33 35 2 0
BITMAP
7FFF1FFF00
7FFF1FFF00
03F003E000
01F001C000
00F0018000
00F8038000
007C030000
007C070000
003E060000
003E0C0000
001F1C0000
001F180000
000FB00000
0007F00000
0007E00000
0003C00000
0003E00000
0001F00000
0003F00000
0007F80000
0006F80000
000E7C0000
001C7C0000
00183E0000
00383E0000
00701F0000
00601F0000
00C00F8000
01C00FC000
018007C000
038007E000
078003E000
0F8003F000
FFF83FFF80
FFF83FFF80
ENDCHAR
STARTCHAR 03A8
ENCODING 936
SWIDTH 857 0
DWIDTH 42 0
BBX 39 36 2 0
BITMAP
00000000F0
F81FFF83FC
FC1FFF87FC
1E00F807FE
1F00F80E7E
0F00F80E7E
0F80F80C7E
0F80F80C3C
0F80F80C18
0F80F80C00
0F80F80C00
0F80F80C00
0F80F80C00
0F80F80C00
0F80F81C00
0F80F81C00
0F80F81C00
0780F81C00
0780F81C00
0780F81800
0780F81800
03C0F83800
03C0F83000
01E0F87000
00E0F8E000
0078F9C000
003FFF8000
0007FC0000
0000F80000
0000F80000
0000F80000
0000F80000
0000F80000
0000F80000
001FFF8000
001FFF8000
ENDCHAR
STARTCHAR 03A9
ENCODING 937
SWIDTH 714 0
DWIDTH 35 0
BBX 28 36 4 0
BITMAP
003FC000
01FFF800
03E07C00
0F801F00
1F000F80
1E000780
3E0007C0
7C0003E0
7C0003E0
780001E0
F80001F0
F80001F0
F80001F0
F80001F0
F80001F0
F80001F0
F80001F0
780001E0
780001E0
7C0003E0
3C0003C0
1E0003C0
1E000780
0F000F00
07801E00
01E03C00
4038E020
4018C020
4018C020
4018C020
6018C060
6018C060
7FF8FFE0
7FF8FFE0
7FF8FFE0
7FF8FFE0
ENDCHAR
STARTCHAR 03AA
ENCODING 938
SWIDTH 408 0
DWIDTH 20 0
BBX 15 44 3 0
BITMAP
701C
F83E
F83E
F83E
701C
0000
0000
0000
0000
7FFE
7FFE
07C0
07C0
07C0
07C0
07C0
07C0
07C0
07C0
07C0
07C0
07C0
07C0
07C0
07C0
07C0
07C0
07C0
07C0
07C0
07C0
07C0
07C0
07C0
07C0
07C0
07C0
07C0
07C0
07C0
07C0
07C0
7FFE
7FFE
ENDCHAR
STARTCHAR 03AB
ENCODING 939
SWIDTH 632 0
DWIDTH 31 0
BBX 28 44 2 0
BITMAP
01C07000
03E0F800
03E0F800
03E0F800
01C07000
00000000
00000000
00000000
C00007C0
78001FE0
1E0031F0
070061F0
0380C3F0
01C0C3F0
01E183F0
00F181E0
00710000
007B0000
007B0000
003F0000
003E0000
003E0000
003E0000
003E0000
003E0000
003E0000
003E0000
003E0000
003E0000
003E0000
003E0000
003E0000
003E0000
003E0000
003E0000
003E0000
003E0000
003E0000
003E0000
003E0000
003E0000
003E0000
0FFFF800
0FFFF800
ENDCHAR
STARTCHAR 03AC
ENCODING 940
SWIDTH 551 0
DWIDTH 27 0
BBX 23 37 3 -1
BITMAP
000300
000780
000780
000F00
000F00
000E00
001C00
001C00
001800
003000
003000
000000
000000
000000
07E03C
0FF078
1FF878
3FF8F0
3C1CF0
780CE0
7005E0
6005C0
E007C0
C00780
C00780
C00700
800F00
800F00
800F00
801D00
801D80
803D80
8078C2
40F0FE
33E0FC
1FC07C
0F8038
ENDCHAR
STARTCHAR 03AD
ENCODING 941
SWIDTH 448 0
DWIDTH 22 0
BBX 17 36 3 0
BITMAP
001C00
003C00
003C00
003800
007000
007000
006000
006000
00C000
008000
000000
000000
000000
0FF800
3FFE00
7FFF00
700700
E00000
E00000
C00000
600000
61F800
1FFC00
1FFC00
21F800
600000
E00000
C00000
E00000
E00080
F00180
FC0700
7FFF00
3FFE00
1FFC00
03F000
ENDCHAR
STARTCHAR 03AE
ENCODING 942
SWIDTH 571 0
DWIDTH 28 0
BBX 24 49 1 -13
BITMAP
0001C0
0001C0
0003C0
000380
000380
000700
000600
000600
000C00
000C00
000000
000000
000040
7C03F8
FE07FC
FF0FFE
831F06
011E03
00BC01
00B801
00F801
00F801
00F001
00F001
00F001
00E001
00E003
01E003
01E003
01E003
01E007
01E007
03C007
03C007
03C00F
03C00F
00000F
00000F
00001E
00001E
00001E
00001E
00003E
00003E
00003E
00003E
00003E
00003E
00001C
ENDCHAR
STARTCHAR 03AF
ENCODING 943
SWIDTH 285 0
DWIDTH 14 0
BBX 8 36 4 0
BITMAP
07
0F
0E
1E
1C
1C
38
30
30
60
00
00
00
F8
F8
F8
F0
F0
F0
F0
E0
E0
E0
C0
C0
C0
80
80
80
80
82
83
C7
7F
7E
3C
ENDCHAR
STARTCHAR 03B0
ENCODING 944
SWIDTH 469 0
DWIDTH 23 0
BBX 19 38 2 -1
BITMAP
003000
007000
00F000
00F000
00E000
00C000
01C000
719C00
F93E00
FB3E00
F83E00
701C00
000000
000000
000000
780C00
780600
780300
780300
700380
300180
3001C0
2001C0
6001E0
6001E0
4001E0
4001E0
4001E0
4001E0
4003E0
4003C0
4007C0
2007C0
300F80
183F00
1FFF00
07FC00
01F000
ENDCHAR
STARTCHAR 03B1
ENCODING 945
SWIDTH 551 0
DWIDTH 27 0
BBX 23 23 3 0
BITMAP
07E07C
0FF078
1FF878
3FF8F0
3C18F0
780DE0
7005E0
6005C0
E007C0
C00780
C00780
C00700
800F00
800F00
800F00
801D00
801D80
803980
8079C2
40F0FE
33E0FC
1FC07C
0F8038
ENDCHAR
STARTCHAR 03B2
ENCODING 946
SWIDTH 530 0
DWIDTH 26 0
BBX 20 52 3 -15
BITMAP
03F000
07FC00
1FC700
1F0100
3C0080
7C00C0
780040
700040
F00060
E00060
E00060
E00060
C000E0
C000E0
C000C0
C001C0
C3E3C0
C7FF80
C7FF80
C3FF00
C1F900
C00180
C000C0
C000C0
C00060
C00060
C00060
C00070
C00070
E00070
E00070
E000F0
D000F0
D801E0
CE07E0
C7FFC0
C1FF80
C07E00
C00000
C00000
E00000
E00000
E00000
E00000
E00000
F00000
F00000
F00000
F00000
F00000
F00000
600000
ENDCHAR
STARTCHAR 03B3
ENCODING 947
SWIDTH 510 0
DWIDTH 25 0
BBX 23 36 1 -13
BITMAP
3E001E
7F003E
FF803E
FF807C
FFC078
81C0F0
00E0E0
0060C0
006180
002180
003300
001300
001200
001400
001400
001400
000800
000800
000800
000800
000800
001800
001800
001800
001C00
001C00
001C00
003C00
003C00
003E00
003E00
003E00
003E00
003E00
003E00
001C00
ENDCHAR
STARTCHAR 03B4
ENCODING 948
SWIDTH 448 0
DWIDTH 22 0
BBX 17 38 2 -1
BITMAP
1F0000
3F8000
77E000
61F000
60F800
607C00
203E00
301F00
180F00
0C0700
060300
030100
018000
00C000
006000
002000
03F000
0FF800
1F8C00
3F0600
7E0200
7C0100
780100
F80180
F00180
F00180
F00180
E00380
E00380
E00380
600780
600780
600F80
201F00
103F00
1C7E00
07FC00
01F000
ENDCHAR
STARTCHAR 03B5
ENCODING 949
SWIDTH 448 0
DWIDTH 22 0
BBX 17 23 3 0
BITMAP
0FF800
3FFE00
7FFF00
700700
E00000
E00000
C00000
600000
61F800
1FFC00
1FFC00
21F800
600000
E00000
C00000
E00000
E00080
F00180
FC0700
7FFF00
3FFE00
1FFC00
03F000
ENDCHAR
STARTCHAR 03B6
ENCODING 950
SWIDTH 489 0
DWIDTH 24 0
BBX 20 43 3 -7
BITMAP
0F8780
1F1F80
1C3F80
1C7F80
18FF00
19FC00
0BE000
070000
040000
080000
180000
100000
300000
200000
200000
400000
400000
400000
C00000
800000
800000
800000
800000
800000
800000
800000
800000
800000
C00000
400000
600000
303F80
3FFFC0
1FFFE0
07FFF0
03F830
000010
000010
000030
000FF0
001FE0
001FC0
000F80
ENDCHAR
STARTCHAR 03B7
ENCODING 951
SWIDTH 571 0
DWIDTH 28 0
BBX 24 37 1 -14
BITMAP
000040
7C03F8
FE07FC
FF0FFE
831F06
011E03
00BC01
00B801
00F801
00F801
00F001
00F001
00F001
00E001
00E003
01E003
01E003
01E003
01E007
01E007
03C007
03C007
03C00F
03C00F
00000F
00000F
00001E
00001E
00001E
00001E
00003E
00003E
00003E
00003E
00003E
00003E
00001C
ENDCHAR
STARTCHAR 03B8
ENCODING 952
SWIDTH 551 0
DWIDTH 27 0
BBX 26 38 1 -1
BITMAP
00F80000
038E0000
07038000
0603C000
0E01C000
0E01E000
0E00E000
0E00F000
0E00F000
0F007000
07007800
07007800
03807800
03C07800
01E07800
00707800
003C7800
0007FC00
00007F00
3C007880
4E007880
4E007840
8F007800
8F007800
8F007800
0F007800
0F007800
0F007800
0F007800
0F007800
0F007800
0F007800
0F007000
07007000
0700E000
0381C000
01C38000
007E0000
ENDCHAR
STARTCHAR 03B9
ENCODING 953
SWIDTH 285 0
DWIDTH 14 0
BBX 8 23 4 0
BITMAP
F8
F8
F8
F0
F0
F0
F0
E0
E0
E0
C0
C0
C0
80
80
80
80
82
83
C7
7F
7E
3C
ENDCHAR
STARTCHAR 03BA
ENCODING 954
SWIDTH 530 0
DWIDTH 26 0
BBX 23 23 2 0
BITMAP
7C00F0
FE01F0
FE01F0
0701E0
0303E0
0103C0
010780
010F80
011F00
013F00
017D00
01FD00
03F900
03F100
03E100
07C100
0F8180
1F0180
1E00C2
3E00FE
3E00FE
3C007C
1C0038
ENDCHAR
STARTCHAR 03BB
ENCODING 955
SWIDTH 489 0
DWIDTH 24 0
BBX 21 36 2 -1
BITMAP
700000
FC0000
FE0000
7F0000
038000
008000
00C000
004000
004000
002000
002000
002000
003000
003000
007000
007000
00F000
00F800
01E800
01E800
03C800
03C800
078C00
078400
0F0400
0F0400
1E0600
1E0600
3C0300
3C0380
7C0380
7801E0
7801F0
F000F8
F000F8
000038
ENDCHAR
STARTCHAR 03BC
ENCODING 956
SWIDTH 591 0
DWIDTH 29 0
BBX 25 36 3 -13
BITMAP
7001C000
F803C000
F803E000
F803E000
F803E000
F803E000
F803E000
F803E000
F003E000
F003E000
F003E000
F001C000
F001C000
6001C000
6001C000
6001C000
60018000
60038100
70038180
58074380
4E3F3F80
47FC3F80
41F80F00
C0000000
C0000000
C0000000
C0000000
E0000000
E0000000
F0000000
F0000000
F8000000
F8000000
F8000000
78000000
38000000
ENDCHAR
STARTCHAR 03BD
ENCODING 957
SWIDTH 428 0
DWIDTH 21 0
BBX 17 23 1 -1
BITMAP
E00200
F00300
F80300
7C0100
3C0180
1E0380
0E0380
070380
070380
030380
030380
018780
018780
018F00
018F00
009F00
00BE00
00FE00
00FC00
00F800
00F000
00E000
008000
ENDCHAR
STARTCHAR 03BE
ENCODING 958
SWIDTH 428 0
DWIDTH 21 0
BBX 16 43 3 -7
BITMAP
3C00
7800
703E
60FE
63FE
27FE
1FF0
3000
2000
6000
4000
4000
4000
4000
4000
4000
207C
13FE
0FFE
0FF8
1000
2000
4000
4000
8000
8000
8000
8000
8000
8000
C000
61F8
7FFC
3FFE
3FFF
0FC3
0001
0001
0003
00FE
01FE
01FC
00F8
ENDCHAR
STARTCHAR 03BF
ENCODING 959
SWIDTH 469 0
DWIDTH 23 0
BBX 18 23 2 0
BITMAP
03F800
0FFE00
1F8300
3F0100
3E0080
7C0080
7800C0
F800C0
F000C0
F000C0
F001C0
E001C0
E001C0
E003C0
E003C0
C007C0
400780
600F80
201F00
303F00
1CFE00
0FFC00
03F000
ENDCHAR
STARTCHAR 03C0
ENCODING 960
SWIDTH 612 0
DWIDTH 30 0
BBX 27 23 1 -1
BITMAP
1FFFFFE0
3FFFFFE0
7FFFFFE0
7FFFFFE0
C0808000
80808000
80808000
00808000
00808000
00808000
00808000
00808000
00808000
00808000
01808000
01808000
0180C080
0380C080
0780E180
0F80FF80
0F007F80
0F007F00
06003E00
ENDCHAR
STARTCHAR 03C1
ENCODING 961
SWIDTH 489 0
DWIDTH 24 0
BBX 19 36 3 -13
BITMAP
03FC00
07FE00
0FC300
1F0080
3E00C0
3E00C0
7C0040
7800E0
7800E0
7000E0
7000E0
7000E0
6001E0
6001E0
6003E0
6003C0
6007C0
600FC0
700F80
503F00
4C7E00
C7FC00
C1F000
C00000
E00000
E00000
E00000
E00000
E00000
E00000
F00000
F00000
F00000
F00000
F00000
600000
ENDCHAR
STARTCHAR 03C2
ENCODING 962
SWIDTH 428 0
DWIDTH 21 0
BBX 16 30 3 -7
BITMAP
00FE
03FF
07FF
0FFF
1FF8
3C00
7000
6000
4000
8000
8000
8000
8000
8000
8000
C000
C000
7000
3F00
3FF0
0FFC
03FE
003F
0007
0003
0003
0783
07E6
07FC
03F8
ENDCHAR
STARTCHAR 03C3
ENCODING 963
SWIDTH 530 0
DWIDTH 26 0
BBX 20 23 3 -1
BITMAP
03FFF0
0FFFF0
1FFFF0
3FFFF0
7C0800
700400
600600
C00300
C00380
8001C0
8001C0
8001C0
8001E0
8001E0
8003E0
C003E0
6003E0
7007E0
381FC0
3FFFC0
1FFF80
07FF00
01FC00
ENDCHAR
STARTCHAR 03C4
ENCODING 964
SWIDTH 469 0
DWIDTH 23 0
BBX 20 23 1 -1
BITMAP
0FFFF0
3FFFF0
3FFFF0
7FFFF0
604000
804000
804000
004000
004000
004000
004000
004000
004000
004000
004000
004000
006040
006040
0070C0
007FC0
003FC0
003F80
000F00
ENDCHAR
STARTCHAR 03C5
ENCODING 965
SWIDTH 469 0
DWIDTH 23 0
BBX 18 23 3 0
BITMAP
F01800
F00C00
F00600
F00600
E00700
600300
600380
400380
C003C0
C003C0
8003C0
8003C0
8003C0
8003C0
8007C0
800780
800F80
400F80
601F00
307E00
3FFE00
0FF800
03E000
ENDCHAR
STARTCHAR 03C6
ENCODING 966
SWIDTH 591 0
DWIDTH 29 0
BBX 25 36 2 -13
BITMAP
1F03F800
3F87FE00
3F0FEE00
7E0F0300
780E0100
701E0080
E01C0080
C01C0080
C0180080
80180080
80180080
80180180
80180180
80180300
C0180300
40100700
60100E00
78103E00
3E10FC00
1FFFF800
0FFFF000
03FFE000
00FF0000
00100000
00180000
00180000
00180000
00180000
00180000
00180000
003C0000
003C0000
003C0000
003C0000
003C0000
00180000
ENDCHAR
STARTCHAR 03C7
ENCODING 967
SWIDTH 551 0
DWIDTH 27 0
BBX 25 36 1 -13
BITMAP
7C003C00
FE003C00
FF003800
FF807800
70807800
00C0F000
0040F000
0041E000
0021E000
0023C000
0023C000
00178000
00178000
00170000
001F0000
000F0000
001E0000
001E0000
003C0000
003C0000
007C0000
007C0000
00F40000
00F60000
01E20000
01E20000
03C20000
03C30000
07810000
07810000
0F010000
0F008000
0E00C380
1E007F80
1E003F80
0C001F00
ENDCHAR
STARTCHAR 03C8
ENCODING 968
SWIDTH 571 0
DWIDTH 28 0
BBX 24 49 2 -13
BITMAP
003E00
003E00
003E00
003E00
003E00
003E00
003C00
001C00
001C00
001C00
001C00
001C00
001C00
1C1C04
3C1C04
7C1806
7C1806
780806
F00803
F00803
E00803
E00807
C00807
C00807
C00807
C0080F
40080F
40081E
60081E
30083C
38087C
1F09F8
0FFFF0
07FFE0
01FF80
001C00
000800
000800
001800
001800
001800
001800
001C00
003C00
003C00
003C00
003C00
003C00
001800
ENDCHAR
STARTCHAR 03C9
ENCODING 969
SWIDTH 653 0
DWIDTH 32 0
BBX 28 23 2 -1
BITMAP
06000400
0F000600
1F000300
3E000380
3E000180
7C0701C0
780F81C0
F80F80E0
F80F80E0
F00F80F0
F00F80F0
F00F80F0
F00F80F0
F00F00F0
F00700F0
F00701F0
700701E0
780601E0
380203E0
3C0703C0
1E058780
0798FF80
01F07E00
ENDCHAR
STARTCHAR 03CA
ENCODING 970
SWIDTH 285 0
DWIDTH 14 0
BBX 14 32 0 -1
BITMAP
7038
F87C
F87C
F87C
7038
0000
0000
0000
0000
0F00
0F80
0F80
0F00
0F00
0F00
0E00
0E00
0E00
0E00
0C00
0C00
0C00
0800
0800
0800
0800
0820
0820
0C70
07E0
07E0
03C0
ENDCHAR
STARTCHAR 03CB
ENCODING 971
SWIDTH 489 0
DWIDTH 24 0
BBX 19 32 3 -1
BITMAP
703800
F87C00
F87C00
F87C00
703800
000000
000000
000000
000000
F80800
F80400
F80600
F80300
F00380
700180
6001C0
6001C0
C001E0
C001E0
C001E0
8001E0
8001E0
8003E0
8003E0
8003C0
8007C0
4007C0
600F80
303F00
3FFE00
0FFC00
03F000
ENDCHAR
STARTCHAR 03CC
ENCODING 972
SWIDTH 469 0
DWIDTH 23 0
BBX 18 36 2 0
BITMAP
001C00
003C00
003C00
003800
007800
007000
006000
006000
00C000
008000
000000
000000
000000
03F800
0FFE00
1F8300
3F0100
3E0080
7C0080
7800C0
F800C0
F000C0
F000C0
F001C0
E001C0
E001C0
E003C0
E003C0
C007C0
400780
600F80
201F00
303F00
1CFE00
0FFC00
03F000
ENDCHAR
STARTCHAR 03CD
ENCODING 973
SWIDTH 469 0
DWIDTH 23 0
BBX 18 36 3 0
BITMAP
00E000
00E000
00E000
01E000
01C000
018000
038000
030000
020000
060000
000000
000000
000000
F01800
F00C00
F00600
F00600
E00700
600300
600380
400380
C003C0
C003C0
8003C0
8003C0
8003C0
8003C0
8007C0
800780
800F80
400F80
601F00
307E00
3FFE00
0FF800
03E000
ENDCHAR
STARTCHAR 03CE
ENCODING 974
SWIDTH 653 0
DWIDTH 32 0
BBX 28 36 2 0
BITMAP
0000E000
0001E000
0001E000
0001C000
0001C000
00038000
00030000
00030000
00060000
00060000
00040000
00000000
00000000
06000400
0F000600
1F000300
3E000380
3E000180
7C0701C0
780F81C0
F80F80E0
F80F80E0
F00F80F0
F00F80F0
F00F80F0
F00F80F0
F00F00F0
F00700F0
F00701F0
700701E0
780601E0
380203E0
3C0703C0
1E058780
0798FF80
01F07E00
ENDCHAR
STARTCHAR 03CF
ENCODING 975
SWIDTH 755 0
DWIDTH 37 0
BBX 31 48 3 -14
BITMAP
FFFC3FFE
FFFC3FFE
07C007E0
07C003C0
07C00780
07C00700
07C00600
07C00C00
07C01800
07C03000
07C06000
07C0C000
07C18000
07C38000
07C78000
07CFC000
07DBE000
07D3E000
07E1F000
07E0F800
07C0F800
07C07C00
07C07C00
07C03E00
07C01F00
07C01F00
07C00F80
07C00FC0
07C007C0
07C003E0
07C003E0
07C001F0
07C001F8
FFFC00F8
FFFC00FC
000001FC
000003F8
000007F0
00000FE0
00001FC0
00023F80
00037F00
0001FE00
0000FC00
00007800
00003000
00001800
00000C00
ENDCHAR
STARTCHAR 03D0
ENCODING 976
SWIDTH 469 0
DWIDTH 23 0
BBX 19 36 3 -1
BITMAP
000FC0
003860
00E060
01C060
038060
0700E0
0601C0
0C0F00
1FF800
180000
300000
300000
200000
600000
600000
400000
47E000
5FF800
BF9C00
BE0600
FC0200
F80300
F80100
F00380
F00380
E00380
E00380
E00780
E00780
400F80
600F80
201F00
303F00
1CFE00
0FFC00
03F000
ENDCHAR
STARTCHAR 03D1
ENCODING 977
SWIDTH 551 0
DWIDTH 27 0
BBX 26 38 1 -1
BITMAP
00F80000
038E0000
07038000
0603C000
0E01C000
0E01E000
0E00E000
0E00F000
0E00F000
0F007000
07007800
07007800
03807800
03C07800
01E07800
00707800
003C7800
0007FC00
00007F00
3C007880
4E007880
4E007840
8F007800
8F007800
8F007800
0F007800
0F007800
0F007800
0F007800
0F007800
0F007800
0F007800
0F007000
07007000
0700E000
0381C000
01C38000
007E0000
ENDCHAR
STARTCHAR 03D2
ENCODING 978
SWIDTH 632 0
DWIDTH 31 0
BBX 28 36 2 0
BITMAP
C00007C0
78001FE0
1E0031F0
070061F0
0380C3F0
01C0C3F0
01E183F0
00F181E0
00710000
007B0000
007B0000
003F0000
003E0000
003E0000
003E0000
003E0000
003E0000
003E0000
003E0000
003E0000
003E0000
003E0000
003E0000
003E0000
003E0000
003E0000
003E0000
003E0000
003E0000
003E0000
003E0000
003E0000
003E0000
003E0000
0FFFF800
0FFFF800
ENDCHAR
STARTCHAR 03D3
ENCODING 979
SWIDTH 857 0
DWIDTH 42 0
BBX 37 36 4 0
BITMAP
0C700003E0
1C3C000FF0
1C0F0018F8
3C038030F8
3801C061F8
3800E061F8
7000F0C1F8
600078C0F0
6000388000
C0003D8000
80003D8000
00001F8000
00001F0000
00001F0000
00001F0000
00001F0000
00001F0000
00001F0000
00001F0000
00001F0000
00001F0000
00001F0000
00001F0000
00001F0000
00001F0000
00001F0000
00001F0000
00001F0000
00001F0000
00001F0000
00001F0000
00001F0000
00001F0000
00001F0000
0007FFFC00
0007FFFC00
ENDCHAR
STARTCHAR 03D4
ENCODING 980
SWIDTH 632 0
DWIDTH 31 0
BBX 28 44 2 0
BITMAP
01C07000
03E0F800
03E0F800
03E0F800
01C07000
00000000
00000000
00000000
C00007C0
78001FE0
1E0031F0
070061F0
0380C3F0
01C0C3F0
01E183F0
00F181E0
00710000
007B0000
007B0000
003F0000
003E0000
003E0000
003E0000
003E0000
003E0000
003E0000
003E0000
003E0000
003E0000
003E0000
003E0000
003E0000
003E0000
003E0000
003E0000
003E0000
003E0000
003E0000
003E0000
003E0000
003E0000
003E0000
0FFFF800
0FFFF800
ENDCHAR
STARTCHAR 03D5
ENCODING 981
SWIDTH 591 0
DWIDTH 29 0
BBX 25 50 2 -14
BITMAP
00180000
003C0000
003C0000
003C0000
003C0000
001C0000
001C0000
001C0000
00180000
00180000
00080000
00080000
00080000
00080000
01FFC000
07FFF000
0FFFF800
1FFFFC00
3F880E00
7E080700
78080300
F0080100
E0080180
C0080180
C0080180
C0080180
C0080180
C0080380
C0080300
40080700
60081F00
70087E00
3C0BFE00
1FFFFC00
0FFFF800
03FFE000
00FF8000
00080000
00080000
00080000
00180000
00180000
00180000
00180000
001C0000
003C0000
003C0000
003C0000
003C0000
00180000
ENDCHAR
STARTCHAR 03D6
ENCODING 982
SWIDTH 714 0
DWIDTH 35 0
BBX 32 23 1 -1
BITMAP
1FFFFFFF
3FFFFFFF
7FFFFFFF
7FFFFFFF
E3C00020
87800030
87804038
0F00E018
0F01F01C
1F01F01C
1E01F01E
1E01F01E
1E01F01E
1E01F01E
1E01E01E
1E00E03E
1E00E03E
0F00C03C
0F00407C
0780A0F8
0380B1F0
01E11FE0
007E07C0
ENDCHAR
STARTCHAR 03D7
ENCODING 983
SWIDTH 530 0
DWIDTH 26 0
BBX 23 32 2 -9
BITMAP
7C00F0
FE01F0
FE01F0
0701E0
0303E0
0103C0
010780
010F80
011F00
013F00
017D00
01FD00
03F900
03F100
03E100
07C100
0F8180
1F0180
1E01C2
3E00FE
3E00FE
3C007E
1C003C
000004
000004
00000C
000008
00E018
01F830
00FE60
00FFC0
007F00
ENDCHAR
STARTCHAR 03D8
ENCODING 984
SWIDTH 673 0
DWIDTH 33 0
BBX 28 36 3 0
BITMAP
003FC000
01FFF800
07C03E00
0F801F00
1F000780
3E0007C0
7C0003E0
7C0003E0
F80001F0
F80001F0
F80001F0
F80001F0
F80001F0
F80001F0
F80001F0
780001E0
7C0003E0
3C0003E0
3E0007C0
1F000F80
0F801F00
03E07E00
00FFF000
000F8000
000F8000
000F8000
000F8000
000F8000
000F8000
000F8000
000F8000
000F8000
000F8000
000F8000
01FFF800
01FFF800
ENDCHAR
STARTCHAR 03D9
ENCODING 985
SWIDTH 469 0
DWIDTH 23 0
BBX 18 36 2 -13
BITMAP
03F800
0FFE00
1F8300
3F0100
3E0080
7C0080
7800C0
F800C0
F000C0
F000C0
F001C0
E001C0
E001C0
E003C0
E003C0
C007C0
4007C0
600F80
201F80
303F00
1CFE00
0FFC00
03F000
004000
004000
004000
00C000
00C000
00C000
00C000
00E000
01E000
01E000
01E000
01E000
00C000
ENDCHAR
STARTCHAR 03DA
ENCODING 986
SWIDTH 551 0
DWIDTH 27 0
BBX 26 36 2 0
BITMAP
00FE0040
03FFF0C0
0FFFFFC0
1FFFFF80
3E07FF00
38003F00
70000200
60000000
E0000000
E0000000
E0000000
C0000000
C0000000
E0000000
E0000000
60000000
70000000
30000000
18000000
0E000000
07800000
01FFC000
003FC000
0007C000
0007C000
0007C000
0007C000
0007C000
0007C000
0007C000
0007C000
0007C000
0007C000
0007C000
00FFFC00
00FFFC00
ENDCHAR
STARTCHAR 03DB
ENCODING 987
SWIDTH 510 0
DWIDTH 25 0
BBX 21 35 3 -8
BITMAP
000008
000008
000018
000018
0001F8
00FFF0
03FFF0
0FFFE0
1FFFC0
3F0000
300000
600000
400000
C00000
800000
800000
800000
800000
800000
800000
C00000
C00000
700000
3F0000
3FF000
0FFC00
03FE00
003F00
000700
000300
000300
078300
07E600
07FC00
03F800
ENDCHAR
STARTCHAR 03DC
ENCODING 988
SWIDTH 693 0
DWIDTH 34 0
BBX 27 35 4 0
BITMAP
FFFFFFE0
FFFFFFE0
0F8007E0
0F8001E0
0F8000E0
0F8000E0
0F800060
0F800060
0F800060
0F800020
0F800020
0F800000
0F800000
0F800000
0FFFF000
0F80F000
0F807000
0F803000
0F803000
0F803000
0F801000
0F801000
0F800000
0F800000
0F800000
0F800000
0F800000
0F800000
0F800000
0F800000
0F800000
0F800000
0F800000
FFFE0000
FFFE0000
ENDCHAR
STARTCHAR 03DD
ENCODING 989
SWIDTH 469 0
DWIDTH 23 0
BBX 24 36 -3 -14
BITMAP
00FFFF
01FFFF
01FFFF
01FFFF
018000
018000
018000
018000
018000
018000
018000
018000
01FFFC
01FFFC
01FFFC
01FFF8
018000
018000
018000
018000
018000
018000
018000
018000
018000
018000
018000
018000
018000
018000
018000
E18000
F18000
F30000
FF0000
7C0000
ENDCHAR
STARTCHAR 03DE
ENCODING 990
SWIDTH 632 0
DWIDTH 31 0
BBX 27 37 3 -1
BITMAP
3C000000
7E000000
FF000000
FF000000
F9800000
71800000
01800000
01800000
01800000
01000300
03000700
03001E00
03003E00
0300FE00
0201FE00
0607FE00
060FFC00
063FF400
067FCC00
05FF8C00
0FFE0C00
0FF80800
0FF01800
0FC01800
1F801800
1E001800
1C001000
10003000
00003000
00003000
00003000
000031C0
000033C0
00003FE0
00001FC0
00001FC0
00000780
ENDCHAR
STARTCHAR 03DF
ENCODING 991
SWIDTH 387 0
DWIDTH 19 0
BBX 15 43 2 -8
BITMAP
3C00
7E00
FE00
8E00
0600
0600
0600
0C00
0C00
0C00
1800
1800
1000
3000
3000
6000
7FFC
7FFE
FFFE
7FFE
0004
000C
000C
001C
0018
0018
0038
0038
0070
0070
00F0
00E0
00E0
01E0
01E0
03C0
03C0
07C0
0780
0780
0F80
0F80
0F00
ENDCHAR
STARTCHAR 03E0
ENCODING 992
SWIDTH 755 0
DWIDTH 37 0
BBX 31 37 3 -1
BITMAP
01FC0000
07FF0000
0FFFC000
1FFFE000
381FF800
7007FC00
6001FE00
C000FF00
C0007F80
C0007F80
C000DFC0
C001CFE0
C00187F0
C00307F0
40060DF8
600E1DF8
301C18F8
3018307C
0030607C
0060C03C
00E1C03E
00C1801E
0183001E
0306001E
060E000E
0E0C000E
0C18000E
1830000E
3060E00E
70E1F00C
60C3F00C
C183F018
0003E038
0003C030
0001E0E0
0000FFC0
00003F00
ENDCHAR
STARTCHAR 03E1
ENCODING 993
SWIDTH 551 0
DWIDTH 27 0
BBX 27 42 -3 -8
BITMAP
80000000
FC000000
FF800000
07F00000
00FC0000
003E0000
000F8000
0003C000
0001E000
0000F000
00007800
00003800
0000FC00
0001CE00
00078600
001E0700
00780380
00F00380
00C00180
000003C0
00000FC0
00003CC0
000078E0
0001E0E0
00078060
000E0060
00040060
00000060
00000060
00000060
00000060
00000060
00000060
000000E0
000000E0
000000E0
000000C0
000001C0
000001C0
00000180
00000380
00000300
ENDCHAR
STARTCHAR 03F0
ENCODING 1008
SWIDTH 530 0
DWIDTH 26 0
BBX 23 23 2 0
BITMAP
7C00F0
FE01F0
FE01F0
0701E0
0303E0
0103C0
010780
010F80
011F00
013F00
017D00
01FD00
03F900
03F100
03E100
07C100
0F8180
1F0180
1E00C2
3E00FE
3E00FE
3C007C
1C0038
ENDCHAR
STARTCHAR 03F1
ENCODING 1009
SWIDTH 489 0
DWIDTH 24 0
BBX 19 36 3 -13
BITMAP
03FC00
07FE00
0FC300
1F0080
3E00C0
3E00C0
7C0040
7800E0
7800E0
7000E0
7000E0
7000E0
6001E0
6001E0
6003E0
6003C0
6007C0
600FC0
700F80
503F00
4C7E00
C7FC00
C1F000
C00000
E00000
E00000
E00000
E00000
E00000
E00000
F00000
F00000
F00000
F00000
F00000
600000
ENDCHAR
STARTCHAR 03F2
ENCODING 1010
SWIDTH 428 0
DWIDTH 21 0
BBX 16 23 2 0
BITMAP
07F8
0C04
1802
3803
3801
7000
7000
F000
F000
F000
F000
F000
F000
F000
F000
7000
7000
7800
3801
1803
1C06
060C
03F0
ENDCHAR
STARTCHAR 03F3
ENCODING 1011
SWIDTH 326 0
DWIDTH 16 0
BBX 13 43 -2 -12
BITMAP
0070
00F8
00F8
00F8
0070
0000
0000
0000
0000
0FF8
0078
0078
0078
0078
0078
0078
0078
0078
0078
0078
0078
0078
0078
0078
0078
0078
0078
0078
0078
0078
0078
0078
0078
0078
0078
2078
F078
F078
F070
E0F0
C0E0
61C0
3F00
ENDCHAR
STARTCHAR 03F4
ENCODING 1012
SWIDTH 673 0
DWIDTH 33 0
BBX 28 37 3 -1
BITMAP
001F8000
007FE000
01E07800
03801C00
07000E00
0E000700
1E000780
1C000380
3C0003C0
3C0003C0
7C0003E0
780001E0
780001E0
780001E0
F80001F0
F80001F0
F80001F0
FFFFFFF0
FFFFFFF0
F80001F0
F80001F0
F80001F0
F80001F0
F80001E0
780001E0
780001E0
7C0003E0
3C0003C0
3C0003C0
1C000380
1E000780
0E000700
07000E00
03801C00
01E07800
00FFF000
001F8000
ENDCHAR
STARTCHAR 03F5
ENCODING 1013
SWIDTH 428 0
DWIDTH 21 0
BBX 16 23 2 0
BITMAP
07F8
0C04
1802
3801
3801
7000
7000
F000
F000
F000
FFF8
F000
F000
F000
F000
7000
7000
7801
3801
1802
1C06
060C
03F0
ENDCHAR
STARTCHAR 03F6
ENCODING 1014
SWIDTH 428 0
DWIDTH 21 0
BBX 16 23 3 0
BITMAP
1FE0
2030
4018
801C
801C
000E
000E
000F
000F
000F
1FFF
000F
000F
000F
000F
000E
000E
801E
801C
4018
6038
3060
0FC0
ENDCHAR
STARTCHAR 03F9
ENCODING 1017
SWIDTH 632 0
DWIDTH 31 0
BBX 25 37 3 -1
BITMAP
001F8000
00FFE000
01E07800
03801C00
07000E00
0E000600
1E000300
3C000300
3C000180
3C000100
7C000000
78000000
78000000
F8000000
F8000000
F8000000
F8000000
F8000000
F8000000
F8000000
F8000000
F8000000
F8000000
F8000000
78000000
78000000
7C000000
7C000100
3C000180
3C000180
1E000300
0E000700
0F000E00
07801C00
01E03800
00FFF000
003F8000
ENDCHAR
STARTCHAR 0400
ENCODING 1024
SWIDTH 693 0
DWIDTH 34 0
BBX 28 46 3 0
BITMAP
00E00000
00F00000
00F00000
00780000
003C0000
000E0000
00060000
00030000
00000000
00000000
00000000
FFFFFFF0
FFFFFFF0
078001F0
078000F0
07800070
07800070
07800030
07800030
07800030
07800010
07802010
07802010
07802000
07806000
07806000
07806000
0780E000
07FFE000
0781E000
07806000
07806000
07806000
07802010
07802010
07802010
07800010
07800030
07800030
07800030
07800070
07800070
078000F0
078001F0
FFFFFFF0
FFFFFFF0
ENDCHAR
STARTCHAR 0401
ENCODING 1025
SWIDTH 693 0
DWIDTH 34 0
BBX 28 44 3 0
BITMAP
00701C00
00F83E00
00F83E00
00F83E00
00701C00
00000000
00000000
00000000
00000000
FFFFFFF0
07C007F0
078001F0
078000F0
07800070
07800070
07800030
07800030
07800030
07800010
07802010
07802010
07802000
07802000
07806000
07806000
0780E000
07FFE000
0781E000
07806000
07806000
07802000
07802010
07802010
07802010
07800010
07800030
07800030
07800030
07800070
07800070
078000F0
078001F0
FFFFFFF0
FFFFFFF0
ENDCHAR
STARTCHAR 0402
ENCODING 1026
SWIDTH 836 0
DWIDTH 41 0
BBX 35 35 4 0
BITMAP
FFFFFFF000
FC1F03F000
F01E00F000
E01E007000
E01E003000
C01E003000
C01E003000
C01E001000
801E001000
801E001000
801E001000
801E001000
001E000000
001E000000
001E07F000
001E387C00
001E401F00
001E800F80
001F000780
001E0007C0
001E0003C0
001E0003E0
001E0003E0
001E0003E0
001E0003E0
001E0003E0
001E0003E0
001E0F03E0
001E1F83C0
001E1F87C0
001E1F87C0
001E1F0780
001E1E0F00
001E0F1E00
07FE07FC00
ENDCHAR
STARTCHAR 0403
ENCODING 1027
SWIDTH 653 0
DWIDTH 32 0
BBX 26 46 3 0
BITMAP
00003800
00007800
00007800
0000F000
0001E000
00038000
00030000
00060000
00000000
00000000
00000000
FFFFFFC0
FFFFFFC0
07800FC0
078003C0
078001C0
078001C0
078000C0
078000C0
078000C0
078000C0
07800040
07800040
07800040
07800000
07800000
07800000
07800000
07800000
07800000
07800000
07800000
07800000
07800000
07800000
07800000
07800000
07800000
07800000
07800000
07800000
07800000
07800000
07800000
07C00000
FFFE0000
ENDCHAR
STARTCHAR 0404
ENCODING 1028
SWIDTH 632 0
DWIDTH 31 0
BBX 25 36 3 0
BITMAP
003F0100
01E1E100
03807300
07001F00
0E000F00
1E000F00
3C000700
3C000700
7C000300
7C000300
78000300
F8000100
F8000100
F8000000
F8000000
F8000000
F8000000
FFFFE000
F8000000
F8000000
F8000000
F8000000
F8000000
78000400
78001F00
78001F80
7C001F80
3C001F80
3C000F80
1C000780
1E000380
0E000300
07000600
03800C00
01E01800
007FF000
ENDCHAR
ENDFONT
